%TF.GenerationSoftware,KiCad,Pcbnew,10.0.3-10.0.3~ubuntu24.04.1*%
%TF.CreationDate,2026-05-16T16:22:26+02:00*%
%TF.ProjectId,Synapse_LPS,53796e61-7073-4655-9f4c-50532e6b6963,rev?*%
%TF.SameCoordinates,Original*%
%TF.FileFunction,Legend,Top*%
%TF.FilePolarity,Positive*%
%FSLAX46Y46*%
G04 Gerber Fmt 4.6, Leading zero omitted, Abs format (unit mm)*
G04 Created by KiCad (PCBNEW 10.0.3-10.0.3~ubuntu24.04.1) date 2026-05-16 16:22:26*
%MOMM*%
%LPD*%
G01*
G04 APERTURE LIST*
%ADD10C,0.254000*%
%ADD11C,0.304800*%
%ADD12C,0.200000*%
%ADD13C,0.100000*%
G04 APERTURE END LIST*
D10*
X14224000Y76962000D02*
X14224000Y77851000D01*
X29696620Y88264990D02*
X39348620Y88264990D01*
X29696620Y77469990D02*
X29696620Y88264990D01*
X29696620Y77469990D02*
X39348620Y77469990D01*
X39348620Y77469990D02*
X39348620Y88264990D01*
X49635620Y88264990D02*
X59287620Y88264990D01*
X49635620Y77469990D02*
X49635620Y88264990D01*
X49635620Y77469990D02*
X59287620Y77469990D01*
X59287620Y77469990D02*
X59287620Y88264990D01*
X37505812Y75535532D02*
X36840574Y75535532D01*
X36840574Y75535532D02*
X36840574Y76932532D01*
X37971479Y75535532D02*
X37971479Y76932532D01*
X37971479Y76932532D02*
X38503669Y76932532D01*
X38503669Y76932532D02*
X38636717Y76866008D01*
X38636717Y76866008D02*
X38703240Y76799484D01*
X38703240Y76799484D02*
X38769764Y76666436D01*
X38769764Y76666436D02*
X38769764Y76466865D01*
X38769764Y76466865D02*
X38703240Y76333817D01*
X38703240Y76333817D02*
X38636717Y76267294D01*
X38636717Y76267294D02*
X38503669Y76200770D01*
X38503669Y76200770D02*
X37971479Y76200770D01*
X39301955Y75602055D02*
X39501526Y75535532D01*
X39501526Y75535532D02*
X39834145Y75535532D01*
X39834145Y75535532D02*
X39967193Y75602055D01*
X39967193Y75602055D02*
X40033717Y75668579D01*
X40033717Y75668579D02*
X40100240Y75801627D01*
X40100240Y75801627D02*
X40100240Y75934675D01*
X40100240Y75934675D02*
X40033717Y76067722D01*
X40033717Y76067722D02*
X39967193Y76134246D01*
X39967193Y76134246D02*
X39834145Y76200770D01*
X39834145Y76200770D02*
X39568050Y76267294D01*
X39568050Y76267294D02*
X39435002Y76333817D01*
X39435002Y76333817D02*
X39368479Y76400341D01*
X39368479Y76400341D02*
X39301955Y76533389D01*
X39301955Y76533389D02*
X39301955Y76666436D01*
X39301955Y76666436D02*
X39368479Y76799484D01*
X39368479Y76799484D02*
X39435002Y76866008D01*
X39435002Y76866008D02*
X39568050Y76932532D01*
X39568050Y76932532D02*
X39900669Y76932532D01*
X39900669Y76932532D02*
X40100240Y76866008D01*
X41696812Y75602055D02*
X41896383Y75535532D01*
X41896383Y75535532D02*
X42229002Y75535532D01*
X42229002Y75535532D02*
X42362050Y75602055D01*
X42362050Y75602055D02*
X42428574Y75668579D01*
X42428574Y75668579D02*
X42495097Y75801627D01*
X42495097Y75801627D02*
X42495097Y75934675D01*
X42495097Y75934675D02*
X42428574Y76067722D01*
X42428574Y76067722D02*
X42362050Y76134246D01*
X42362050Y76134246D02*
X42229002Y76200770D01*
X42229002Y76200770D02*
X41962907Y76267294D01*
X41962907Y76267294D02*
X41829859Y76333817D01*
X41829859Y76333817D02*
X41763336Y76400341D01*
X41763336Y76400341D02*
X41696812Y76533389D01*
X41696812Y76533389D02*
X41696812Y76666436D01*
X41696812Y76666436D02*
X41763336Y76799484D01*
X41763336Y76799484D02*
X41829859Y76866008D01*
X41829859Y76866008D02*
X41962907Y76932532D01*
X41962907Y76932532D02*
X42295526Y76932532D01*
X42295526Y76932532D02*
X42495097Y76866008D01*
X42960764Y76466865D02*
X43293383Y75535532D01*
X43626002Y76466865D02*
X43293383Y75535532D01*
X43293383Y75535532D02*
X43160335Y75202913D01*
X43160335Y75202913D02*
X43093812Y75136389D01*
X43093812Y75136389D02*
X42960764Y75069865D01*
X44158193Y76466865D02*
X44158193Y75535532D01*
X44158193Y76333817D02*
X44224716Y76400341D01*
X44224716Y76400341D02*
X44357764Y76466865D01*
X44357764Y76466865D02*
X44557335Y76466865D01*
X44557335Y76466865D02*
X44690383Y76400341D01*
X44690383Y76400341D02*
X44756907Y76267294D01*
X44756907Y76267294D02*
X44756907Y75535532D01*
X46020859Y75535532D02*
X46020859Y76267294D01*
X46020859Y76267294D02*
X45954335Y76400341D01*
X45954335Y76400341D02*
X45821287Y76466865D01*
X45821287Y76466865D02*
X45555192Y76466865D01*
X45555192Y76466865D02*
X45422145Y76400341D01*
X46020859Y75602055D02*
X45887811Y75535532D01*
X45887811Y75535532D02*
X45555192Y75535532D01*
X45555192Y75535532D02*
X45422145Y75602055D01*
X45422145Y75602055D02*
X45355621Y75735103D01*
X45355621Y75735103D02*
X45355621Y75868151D01*
X45355621Y75868151D02*
X45422145Y76001198D01*
X45422145Y76001198D02*
X45555192Y76067722D01*
X45555192Y76067722D02*
X45887811Y76067722D01*
X45887811Y76067722D02*
X46020859Y76134246D01*
X46686097Y76466865D02*
X46686097Y75069865D01*
X46686097Y76400341D02*
X46819144Y76466865D01*
X46819144Y76466865D02*
X47085239Y76466865D01*
X47085239Y76466865D02*
X47218287Y76400341D01*
X47218287Y76400341D02*
X47284811Y76333817D01*
X47284811Y76333817D02*
X47351335Y76200770D01*
X47351335Y76200770D02*
X47351335Y75801627D01*
X47351335Y75801627D02*
X47284811Y75668579D01*
X47284811Y75668579D02*
X47218287Y75602055D01*
X47218287Y75602055D02*
X47085239Y75535532D01*
X47085239Y75535532D02*
X46819144Y75535532D01*
X46819144Y75535532D02*
X46686097Y75602055D01*
X47883525Y75602055D02*
X48016572Y75535532D01*
X48016572Y75535532D02*
X48282668Y75535532D01*
X48282668Y75535532D02*
X48415715Y75602055D01*
X48415715Y75602055D02*
X48482239Y75735103D01*
X48482239Y75735103D02*
X48482239Y75801627D01*
X48482239Y75801627D02*
X48415715Y75934675D01*
X48415715Y75934675D02*
X48282668Y76001198D01*
X48282668Y76001198D02*
X48083096Y76001198D01*
X48083096Y76001198D02*
X47950049Y76067722D01*
X47950049Y76067722D02*
X47883525Y76200770D01*
X47883525Y76200770D02*
X47883525Y76267294D01*
X47883525Y76267294D02*
X47950049Y76400341D01*
X47950049Y76400341D02*
X48083096Y76466865D01*
X48083096Y76466865D02*
X48282668Y76466865D01*
X48282668Y76466865D02*
X48415715Y76400341D01*
X49613144Y75602055D02*
X49480096Y75535532D01*
X49480096Y75535532D02*
X49214001Y75535532D01*
X49214001Y75535532D02*
X49080954Y75602055D01*
X49080954Y75602055D02*
X49014430Y75735103D01*
X49014430Y75735103D02*
X49014430Y76267294D01*
X49014430Y76267294D02*
X49080954Y76400341D01*
X49080954Y76400341D02*
X49214001Y76466865D01*
X49214001Y76466865D02*
X49480096Y76466865D01*
X49480096Y76466865D02*
X49613144Y76400341D01*
X49613144Y76400341D02*
X49679668Y76267294D01*
X49679668Y76267294D02*
X49679668Y76134246D01*
X49679668Y76134246D02*
X49014430Y76001198D01*
X51342764Y75535532D02*
X51342764Y76932532D01*
X51342764Y76267294D02*
X52141049Y76267294D01*
X52141049Y75535532D02*
X52141049Y76932532D01*
X53604573Y75535532D02*
X53138907Y76200770D01*
X52806288Y75535532D02*
X52806288Y76932532D01*
X52806288Y76932532D02*
X53338478Y76932532D01*
X53338478Y76932532D02*
X53471526Y76866008D01*
X53471526Y76866008D02*
X53538049Y76799484D01*
X53538049Y76799484D02*
X53604573Y76666436D01*
X53604573Y76666436D02*
X53604573Y76466865D01*
X53604573Y76466865D02*
X53538049Y76333817D01*
X53538049Y76333817D02*
X53471526Y76267294D01*
X53471526Y76267294D02*
X53338478Y76200770D01*
X53338478Y76200770D02*
X52806288Y76200770D01*
X54203288Y75535532D02*
X54203288Y76932532D01*
X54203288Y76932532D02*
X54535907Y76932532D01*
X54535907Y76932532D02*
X54735478Y76866008D01*
X54735478Y76866008D02*
X54868526Y76732960D01*
X54868526Y76732960D02*
X54935049Y76599913D01*
X54935049Y76599913D02*
X55001573Y76333817D01*
X55001573Y76333817D02*
X55001573Y76134246D01*
X55001573Y76134246D02*
X54935049Y75868151D01*
X54935049Y75868151D02*
X54868526Y75735103D01*
X54868526Y75735103D02*
X54735478Y75602055D01*
X54735478Y75602055D02*
X54535907Y75535532D01*
X54535907Y75535532D02*
X54203288Y75535532D01*
X56598145Y76799484D02*
X56664669Y76866008D01*
X56664669Y76866008D02*
X56797716Y76932532D01*
X56797716Y76932532D02*
X57130335Y76932532D01*
X57130335Y76932532D02*
X57263383Y76866008D01*
X57263383Y76866008D02*
X57329907Y76799484D01*
X57329907Y76799484D02*
X57396430Y76666436D01*
X57396430Y76666436D02*
X57396430Y76533389D01*
X57396430Y76533389D02*
X57329907Y76333817D01*
X57329907Y76333817D02*
X56531621Y75535532D01*
X56531621Y75535532D02*
X57396430Y75535532D01*
X58261240Y76932532D02*
X58394287Y76932532D01*
X58394287Y76932532D02*
X58527335Y76866008D01*
X58527335Y76866008D02*
X58593859Y76799484D01*
X58593859Y76799484D02*
X58660383Y76666436D01*
X58660383Y76666436D02*
X58726906Y76400341D01*
X58726906Y76400341D02*
X58726906Y76067722D01*
X58726906Y76067722D02*
X58660383Y75801627D01*
X58660383Y75801627D02*
X58593859Y75668579D01*
X58593859Y75668579D02*
X58527335Y75602055D01*
X58527335Y75602055D02*
X58394287Y75535532D01*
X58394287Y75535532D02*
X58261240Y75535532D01*
X58261240Y75535532D02*
X58128192Y75602055D01*
X58128192Y75602055D02*
X58061668Y75668579D01*
X58061668Y75668579D02*
X57995145Y75801627D01*
X57995145Y75801627D02*
X57928621Y76067722D01*
X57928621Y76067722D02*
X57928621Y76400341D01*
X57928621Y76400341D02*
X57995145Y76666436D01*
X57995145Y76666436D02*
X58061668Y76799484D01*
X58061668Y76799484D02*
X58128192Y76866008D01*
X58128192Y76866008D02*
X58261240Y76932532D01*
X59259097Y76799484D02*
X59325621Y76866008D01*
X59325621Y76866008D02*
X59458668Y76932532D01*
X59458668Y76932532D02*
X59791287Y76932532D01*
X59791287Y76932532D02*
X59924335Y76866008D01*
X59924335Y76866008D02*
X59990859Y76799484D01*
X59990859Y76799484D02*
X60057382Y76666436D01*
X60057382Y76666436D02*
X60057382Y76533389D01*
X60057382Y76533389D02*
X59990859Y76333817D01*
X59990859Y76333817D02*
X59192573Y75535532D01*
X59192573Y75535532D02*
X60057382Y75535532D01*
X61254811Y76466865D02*
X61254811Y75535532D01*
X60922192Y76999055D02*
X60589573Y76001198D01*
X60589573Y76001198D02*
X61454382Y76001198D01*
D11*
X15237586Y97176757D02*
X15963300Y97684757D01*
X15237586Y98047614D02*
X16761586Y98047614D01*
X16761586Y98047614D02*
X16761586Y97467043D01*
X16761586Y97467043D02*
X16689015Y97321900D01*
X16689015Y97321900D02*
X16616443Y97249329D01*
X16616443Y97249329D02*
X16471300Y97176757D01*
X16471300Y97176757D02*
X16253586Y97176757D01*
X16253586Y97176757D02*
X16108443Y97249329D01*
X16108443Y97249329D02*
X16035872Y97321900D01*
X16035872Y97321900D02*
X15963300Y97467043D01*
X15963300Y97467043D02*
X15963300Y98047614D01*
X15237586Y96523614D02*
X16761586Y96523614D01*
X16761586Y96523614D02*
X16761586Y96160757D01*
X16761586Y96160757D02*
X16689015Y95943043D01*
X16689015Y95943043D02*
X16543872Y95797900D01*
X16543872Y95797900D02*
X16398729Y95725329D01*
X16398729Y95725329D02*
X16108443Y95652757D01*
X16108443Y95652757D02*
X15890729Y95652757D01*
X15890729Y95652757D02*
X15600443Y95725329D01*
X15600443Y95725329D02*
X15455300Y95797900D01*
X15455300Y95797900D02*
X15310158Y95943043D01*
X15310158Y95943043D02*
X15237586Y96160757D01*
X15237586Y96160757D02*
X15237586Y96523614D01*
X16616443Y95072186D02*
X16689015Y94999614D01*
X16689015Y94999614D02*
X16761586Y94854471D01*
X16761586Y94854471D02*
X16761586Y94491614D01*
X16761586Y94491614D02*
X16689015Y94346471D01*
X16689015Y94346471D02*
X16616443Y94273900D01*
X16616443Y94273900D02*
X16471300Y94201329D01*
X16471300Y94201329D02*
X16326158Y94201329D01*
X16326158Y94201329D02*
X16108443Y94273900D01*
X16108443Y94273900D02*
X15237586Y95144757D01*
X15237586Y95144757D02*
X15237586Y94201329D01*
X16761586Y93330471D02*
X16398729Y93330471D01*
X16543872Y93693328D02*
X16398729Y93330471D01*
X16398729Y93330471D02*
X16543872Y92967614D01*
X16108443Y93548185D02*
X16398729Y93330471D01*
X16398729Y93330471D02*
X16108443Y93112757D01*
X72260586Y82880191D02*
X71172015Y82880191D01*
X71172015Y82880191D02*
X70954300Y82952762D01*
X70954300Y82952762D02*
X70809158Y83097905D01*
X70809158Y83097905D02*
X70736586Y83315619D01*
X70736586Y83315619D02*
X70736586Y83460762D01*
X72115443Y82227048D02*
X72188015Y82154476D01*
X72188015Y82154476D02*
X72260586Y82009333D01*
X72260586Y82009333D02*
X72260586Y81646476D01*
X72260586Y81646476D02*
X72188015Y81501333D01*
X72188015Y81501333D02*
X72115443Y81428762D01*
X72115443Y81428762D02*
X71970300Y81356191D01*
X71970300Y81356191D02*
X71825158Y81356191D01*
X71825158Y81356191D02*
X71607443Y81428762D01*
X71607443Y81428762D02*
X70736586Y82299619D01*
X70736586Y82299619D02*
X70736586Y81356191D01*
X53931853Y84727947D02*
X53423853Y85453661D01*
X53060996Y84727947D02*
X53060996Y86251947D01*
X53060996Y86251947D02*
X53641567Y86251947D01*
X53641567Y86251947D02*
X53786710Y86179376D01*
X53786710Y86179376D02*
X53859281Y86106804D01*
X53859281Y86106804D02*
X53931853Y85961661D01*
X53931853Y85961661D02*
X53931853Y85743947D01*
X53931853Y85743947D02*
X53859281Y85598804D01*
X53859281Y85598804D02*
X53786710Y85526233D01*
X53786710Y85526233D02*
X53641567Y85453661D01*
X53641567Y85453661D02*
X53060996Y85453661D01*
X55455853Y84873090D02*
X55383281Y84800518D01*
X55383281Y84800518D02*
X55165567Y84727947D01*
X55165567Y84727947D02*
X55020424Y84727947D01*
X55020424Y84727947D02*
X54802710Y84800518D01*
X54802710Y84800518D02*
X54657567Y84945661D01*
X54657567Y84945661D02*
X54584996Y85090804D01*
X54584996Y85090804D02*
X54512424Y85381090D01*
X54512424Y85381090D02*
X54512424Y85598804D01*
X54512424Y85598804D02*
X54584996Y85889090D01*
X54584996Y85889090D02*
X54657567Y86034233D01*
X54657567Y86034233D02*
X54802710Y86179376D01*
X54802710Y86179376D02*
X55020424Y86251947D01*
X55020424Y86251947D02*
X55165567Y86251947D01*
X55165567Y86251947D02*
X55383281Y86179376D01*
X55383281Y86179376D02*
X55455853Y86106804D01*
X56036424Y86106804D02*
X56108996Y86179376D01*
X56108996Y86179376D02*
X56254139Y86251947D01*
X56254139Y86251947D02*
X56616996Y86251947D01*
X56616996Y86251947D02*
X56762139Y86179376D01*
X56762139Y86179376D02*
X56834710Y86106804D01*
X56834710Y86106804D02*
X56907281Y85961661D01*
X56907281Y85961661D02*
X56907281Y85816518D01*
X56907281Y85816518D02*
X56834710Y85598804D01*
X56834710Y85598804D02*
X55963853Y84727947D01*
X55963853Y84727947D02*
X56907281Y84727947D01*
X57778139Y86251947D02*
X57778139Y85889090D01*
X57415282Y86034233D02*
X57778139Y85889090D01*
X57778139Y85889090D02*
X58140996Y86034233D01*
X57560425Y85598804D02*
X57778139Y85889090D01*
X57778139Y85889090D02*
X57995853Y85598804D01*
X43118711Y86124947D02*
X43118711Y87648947D01*
X44715282Y86270090D02*
X44642710Y86197518D01*
X44642710Y86197518D02*
X44424996Y86124947D01*
X44424996Y86124947D02*
X44279853Y86124947D01*
X44279853Y86124947D02*
X44062139Y86197518D01*
X44062139Y86197518D02*
X43916996Y86342661D01*
X43916996Y86342661D02*
X43844425Y86487804D01*
X43844425Y86487804D02*
X43771853Y86778090D01*
X43771853Y86778090D02*
X43771853Y86995804D01*
X43771853Y86995804D02*
X43844425Y87286090D01*
X43844425Y87286090D02*
X43916996Y87431233D01*
X43916996Y87431233D02*
X44062139Y87576376D01*
X44062139Y87576376D02*
X44279853Y87648947D01*
X44279853Y87648947D02*
X44424996Y87648947D01*
X44424996Y87648947D02*
X44642710Y87576376D01*
X44642710Y87576376D02*
X44715282Y87503804D01*
X45295853Y87503804D02*
X45368425Y87576376D01*
X45368425Y87576376D02*
X45513568Y87648947D01*
X45513568Y87648947D02*
X45876425Y87648947D01*
X45876425Y87648947D02*
X46021568Y87576376D01*
X46021568Y87576376D02*
X46094139Y87503804D01*
X46094139Y87503804D02*
X46166710Y87358661D01*
X46166710Y87358661D02*
X46166710Y87213518D01*
X46166710Y87213518D02*
X46094139Y86995804D01*
X46094139Y86995804D02*
X45223282Y86124947D01*
X45223282Y86124947D02*
X46166710Y86124947D01*
X33779586Y95416900D02*
X32255586Y94908900D01*
X32255586Y94908900D02*
X33779586Y94400900D01*
X32255586Y93022042D02*
X32981300Y93530042D01*
X32255586Y93892899D02*
X33779586Y93892899D01*
X33779586Y93892899D02*
X33779586Y93312328D01*
X33779586Y93312328D02*
X33707015Y93167185D01*
X33707015Y93167185D02*
X33634443Y93094614D01*
X33634443Y93094614D02*
X33489300Y93022042D01*
X33489300Y93022042D02*
X33271586Y93022042D01*
X33271586Y93022042D02*
X33126443Y93094614D01*
X33126443Y93094614D02*
X33053872Y93167185D01*
X33053872Y93167185D02*
X32981300Y93312328D01*
X32981300Y93312328D02*
X32981300Y93892899D01*
X32255586Y91570614D02*
X32255586Y92441471D01*
X32255586Y92006042D02*
X33779586Y92006042D01*
X33779586Y92006042D02*
X33561872Y92151185D01*
X33561872Y92151185D02*
X33416729Y92296328D01*
X33416729Y92296328D02*
X33344158Y92441471D01*
X63438711Y85997947D02*
X63438711Y87521947D01*
X65035282Y86143090D02*
X64962710Y86070518D01*
X64962710Y86070518D02*
X64744996Y85997947D01*
X64744996Y85997947D02*
X64599853Y85997947D01*
X64599853Y85997947D02*
X64382139Y86070518D01*
X64382139Y86070518D02*
X64236996Y86215661D01*
X64236996Y86215661D02*
X64164425Y86360804D01*
X64164425Y86360804D02*
X64091853Y86651090D01*
X64091853Y86651090D02*
X64091853Y86868804D01*
X64091853Y86868804D02*
X64164425Y87159090D01*
X64164425Y87159090D02*
X64236996Y87304233D01*
X64236996Y87304233D02*
X64382139Y87449376D01*
X64382139Y87449376D02*
X64599853Y87521947D01*
X64599853Y87521947D02*
X64744996Y87521947D01*
X64744996Y87521947D02*
X64962710Y87449376D01*
X64962710Y87449376D02*
X65035282Y87376804D01*
X65543282Y87521947D02*
X66486710Y87521947D01*
X66486710Y87521947D02*
X65978710Y86941376D01*
X65978710Y86941376D02*
X66196425Y86941376D01*
X66196425Y86941376D02*
X66341568Y86868804D01*
X66341568Y86868804D02*
X66414139Y86796233D01*
X66414139Y86796233D02*
X66486710Y86651090D01*
X66486710Y86651090D02*
X66486710Y86288233D01*
X66486710Y86288233D02*
X66414139Y86143090D01*
X66414139Y86143090D02*
X66341568Y86070518D01*
X66341568Y86070518D02*
X66196425Y85997947D01*
X66196425Y85997947D02*
X65760996Y85997947D01*
X65760996Y85997947D02*
X65615853Y86070518D01*
X65615853Y86070518D02*
X65543282Y86143090D01*
X16253586Y83007191D02*
X15165015Y83007191D01*
X15165015Y83007191D02*
X14947300Y83079762D01*
X14947300Y83079762D02*
X14802158Y83224905D01*
X14802158Y83224905D02*
X14729586Y83442619D01*
X14729586Y83442619D02*
X14729586Y83587762D01*
X14729586Y81483191D02*
X14729586Y82354048D01*
X14729586Y81918619D02*
X16253586Y81918619D01*
X16253586Y81918619D02*
X16035872Y82063762D01*
X16035872Y82063762D02*
X15890729Y82208905D01*
X15890729Y82208905D02*
X15818158Y82354048D01*
X32287420Y80341090D02*
X32214848Y80268518D01*
X32214848Y80268518D02*
X31997134Y80195947D01*
X31997134Y80195947D02*
X31851991Y80195947D01*
X31851991Y80195947D02*
X31634277Y80268518D01*
X31634277Y80268518D02*
X31489134Y80413661D01*
X31489134Y80413661D02*
X31416563Y80558804D01*
X31416563Y80558804D02*
X31343991Y80849090D01*
X31343991Y80849090D02*
X31343991Y81066804D01*
X31343991Y81066804D02*
X31416563Y81357090D01*
X31416563Y81357090D02*
X31489134Y81502233D01*
X31489134Y81502233D02*
X31634277Y81647376D01*
X31634277Y81647376D02*
X31851991Y81719947D01*
X31851991Y81719947D02*
X31997134Y81719947D01*
X31997134Y81719947D02*
X32214848Y81647376D01*
X32214848Y81647376D02*
X32287420Y81574804D01*
X32867991Y81574804D02*
X32940563Y81647376D01*
X32940563Y81647376D02*
X33085706Y81719947D01*
X33085706Y81719947D02*
X33448563Y81719947D01*
X33448563Y81719947D02*
X33593706Y81647376D01*
X33593706Y81647376D02*
X33666277Y81574804D01*
X33666277Y81574804D02*
X33738848Y81429661D01*
X33738848Y81429661D02*
X33738848Y81284518D01*
X33738848Y81284518D02*
X33666277Y81066804D01*
X33666277Y81066804D02*
X32795420Y80195947D01*
X32795420Y80195947D02*
X33738848Y80195947D01*
X55474001Y89172947D02*
X54966001Y89898661D01*
X54603144Y89172947D02*
X54603144Y90696947D01*
X54603144Y90696947D02*
X55183715Y90696947D01*
X55183715Y90696947D02*
X55328858Y90624376D01*
X55328858Y90624376D02*
X55401429Y90551804D01*
X55401429Y90551804D02*
X55474001Y90406661D01*
X55474001Y90406661D02*
X55474001Y90188947D01*
X55474001Y90188947D02*
X55401429Y90043804D01*
X55401429Y90043804D02*
X55328858Y89971233D01*
X55328858Y89971233D02*
X55183715Y89898661D01*
X55183715Y89898661D02*
X54603144Y89898661D01*
X56780287Y89172947D02*
X56780287Y89971233D01*
X56780287Y89971233D02*
X56707715Y90116376D01*
X56707715Y90116376D02*
X56562572Y90188947D01*
X56562572Y90188947D02*
X56272287Y90188947D01*
X56272287Y90188947D02*
X56127144Y90116376D01*
X56780287Y89245518D02*
X56635144Y89172947D01*
X56635144Y89172947D02*
X56272287Y89172947D01*
X56272287Y89172947D02*
X56127144Y89245518D01*
X56127144Y89245518D02*
X56054572Y89390661D01*
X56054572Y89390661D02*
X56054572Y89535804D01*
X56054572Y89535804D02*
X56127144Y89680947D01*
X56127144Y89680947D02*
X56272287Y89753518D01*
X56272287Y89753518D02*
X56635144Y89753518D01*
X56635144Y89753518D02*
X56780287Y89826090D01*
X57723715Y89172947D02*
X57578572Y89245518D01*
X57578572Y89245518D02*
X57506001Y89390661D01*
X57506001Y89390661D02*
X57506001Y90696947D01*
X58522001Y90696947D02*
X58522001Y90334090D01*
X58159144Y90479233D02*
X58522001Y90334090D01*
X58522001Y90334090D02*
X58884858Y90479233D01*
X58304287Y90043804D02*
X58522001Y90334090D01*
X58522001Y90334090D02*
X58739715Y90043804D01*
X36859420Y78189090D02*
X36786848Y78116518D01*
X36786848Y78116518D02*
X36569134Y78043947D01*
X36569134Y78043947D02*
X36423991Y78043947D01*
X36423991Y78043947D02*
X36206277Y78116518D01*
X36206277Y78116518D02*
X36061134Y78261661D01*
X36061134Y78261661D02*
X35988563Y78406804D01*
X35988563Y78406804D02*
X35915991Y78697090D01*
X35915991Y78697090D02*
X35915991Y78914804D01*
X35915991Y78914804D02*
X35988563Y79205090D01*
X35988563Y79205090D02*
X36061134Y79350233D01*
X36061134Y79350233D02*
X36206277Y79495376D01*
X36206277Y79495376D02*
X36423991Y79567947D01*
X36423991Y79567947D02*
X36569134Y79567947D01*
X36569134Y79567947D02*
X36786848Y79495376D01*
X36786848Y79495376D02*
X36859420Y79422804D01*
X38310848Y78043947D02*
X37439991Y78043947D01*
X37875420Y78043947D02*
X37875420Y79567947D01*
X37875420Y79567947D02*
X37730277Y79350233D01*
X37730277Y79350233D02*
X37585134Y79205090D01*
X37585134Y79205090D02*
X37439991Y79132518D01*
X16339853Y75456947D02*
X15831853Y76182661D01*
X15468996Y75456947D02*
X15468996Y76980947D01*
X15468996Y76980947D02*
X16049567Y76980947D01*
X16049567Y76980947D02*
X16194710Y76908376D01*
X16194710Y76908376D02*
X16267281Y76835804D01*
X16267281Y76835804D02*
X16339853Y76690661D01*
X16339853Y76690661D02*
X16339853Y76472947D01*
X16339853Y76472947D02*
X16267281Y76327804D01*
X16267281Y76327804D02*
X16194710Y76255233D01*
X16194710Y76255233D02*
X16049567Y76182661D01*
X16049567Y76182661D02*
X15468996Y76182661D01*
X16992996Y75456947D02*
X16992996Y76980947D01*
X16992996Y76980947D02*
X17355853Y76980947D01*
X17355853Y76980947D02*
X17573567Y76908376D01*
X17573567Y76908376D02*
X17718710Y76763233D01*
X17718710Y76763233D02*
X17791281Y76618090D01*
X17791281Y76618090D02*
X17863853Y76327804D01*
X17863853Y76327804D02*
X17863853Y76110090D01*
X17863853Y76110090D02*
X17791281Y75819804D01*
X17791281Y75819804D02*
X17718710Y75674661D01*
X17718710Y75674661D02*
X17573567Y75529518D01*
X17573567Y75529518D02*
X17355853Y75456947D01*
X17355853Y75456947D02*
X16992996Y75456947D01*
X19170139Y76472947D02*
X19170139Y75456947D01*
X18807281Y77053518D02*
X18444424Y75964947D01*
X18444424Y75964947D02*
X19387853Y75964947D01*
X20186139Y76980947D02*
X20186139Y76618090D01*
X19823282Y76763233D02*
X20186139Y76618090D01*
X20186139Y76618090D02*
X20548996Y76763233D01*
X19968425Y76327804D02*
X20186139Y76618090D01*
X20186139Y76618090D02*
X20403853Y76327804D01*
X36947613Y95251997D02*
X36947613Y96775997D01*
X36947613Y96775997D02*
X37528184Y96775997D01*
X37528184Y96775997D02*
X37673327Y96703426D01*
X37673327Y96703426D02*
X37745898Y96630854D01*
X37745898Y96630854D02*
X37818470Y96485711D01*
X37818470Y96485711D02*
X37818470Y96267997D01*
X37818470Y96267997D02*
X37745898Y96122854D01*
X37745898Y96122854D02*
X37673327Y96050283D01*
X37673327Y96050283D02*
X37528184Y95977711D01*
X37528184Y95977711D02*
X36947613Y95977711D01*
X39124756Y96267997D02*
X39124756Y95251997D01*
X38761898Y96848568D02*
X38399041Y95759997D01*
X38399041Y95759997D02*
X39342470Y95759997D01*
D10*
X50161773Y95266305D02*
X50161773Y96790305D01*
X50161773Y96790305D02*
X50742344Y96790305D01*
X50742344Y96790305D02*
X50887487Y96717734D01*
X50887487Y96717734D02*
X50960058Y96645162D01*
X50960058Y96645162D02*
X51032630Y96500019D01*
X51032630Y96500019D02*
X51032630Y96282305D01*
X51032630Y96282305D02*
X50960058Y96137162D01*
X50960058Y96137162D02*
X50887487Y96064591D01*
X50887487Y96064591D02*
X50742344Y95992019D01*
X50742344Y95992019D02*
X50161773Y95992019D01*
X51613201Y96645162D02*
X51685773Y96717734D01*
X51685773Y96717734D02*
X51830916Y96790305D01*
X51830916Y96790305D02*
X52193773Y96790305D01*
X52193773Y96790305D02*
X52338916Y96717734D01*
X52338916Y96717734D02*
X52411487Y96645162D01*
X52411487Y96645162D02*
X52484058Y96500019D01*
X52484058Y96500019D02*
X52484058Y96354876D01*
X52484058Y96354876D02*
X52411487Y96137162D01*
X52411487Y96137162D02*
X51540630Y95266305D01*
X51540630Y95266305D02*
X52484058Y95266305D01*
D11*
X52480420Y80595090D02*
X52407848Y80522518D01*
X52407848Y80522518D02*
X52190134Y80449947D01*
X52190134Y80449947D02*
X52044991Y80449947D01*
X52044991Y80449947D02*
X51827277Y80522518D01*
X51827277Y80522518D02*
X51682134Y80667661D01*
X51682134Y80667661D02*
X51609563Y80812804D01*
X51609563Y80812804D02*
X51536991Y81103090D01*
X51536991Y81103090D02*
X51536991Y81320804D01*
X51536991Y81320804D02*
X51609563Y81611090D01*
X51609563Y81611090D02*
X51682134Y81756233D01*
X51682134Y81756233D02*
X51827277Y81901376D01*
X51827277Y81901376D02*
X52044991Y81973947D01*
X52044991Y81973947D02*
X52190134Y81973947D01*
X52190134Y81973947D02*
X52407848Y81901376D01*
X52407848Y81901376D02*
X52480420Y81828804D01*
X53786706Y81465947D02*
X53786706Y80449947D01*
X53423848Y82046518D02*
X53060991Y80957947D01*
X53060991Y80957947D02*
X54004420Y80957947D01*
X57306430Y78523090D02*
X57233858Y78450518D01*
X57233858Y78450518D02*
X57016144Y78377947D01*
X57016144Y78377947D02*
X56871001Y78377947D01*
X56871001Y78377947D02*
X56653287Y78450518D01*
X56653287Y78450518D02*
X56508144Y78595661D01*
X56508144Y78595661D02*
X56435573Y78740804D01*
X56435573Y78740804D02*
X56363001Y79031090D01*
X56363001Y79031090D02*
X56363001Y79248804D01*
X56363001Y79248804D02*
X56435573Y79539090D01*
X56435573Y79539090D02*
X56508144Y79684233D01*
X56508144Y79684233D02*
X56653287Y79829376D01*
X56653287Y79829376D02*
X56871001Y79901947D01*
X56871001Y79901947D02*
X57016144Y79901947D01*
X57016144Y79901947D02*
X57233858Y79829376D01*
X57233858Y79829376D02*
X57306430Y79756804D01*
X57814430Y79901947D02*
X58757858Y79901947D01*
X58757858Y79901947D02*
X58249858Y79321376D01*
X58249858Y79321376D02*
X58467573Y79321376D01*
X58467573Y79321376D02*
X58612716Y79248804D01*
X58612716Y79248804D02*
X58685287Y79176233D01*
X58685287Y79176233D02*
X58757858Y79031090D01*
X58757858Y79031090D02*
X58757858Y78668233D01*
X58757858Y78668233D02*
X58685287Y78523090D01*
X58685287Y78523090D02*
X58612716Y78450518D01*
X58612716Y78450518D02*
X58467573Y78377947D01*
X58467573Y78377947D02*
X58032144Y78377947D01*
X58032144Y78377947D02*
X57887001Y78450518D01*
X57887001Y78450518D02*
X57814430Y78523090D01*
X34845568Y89045947D02*
X34337568Y89771661D01*
X33974711Y89045947D02*
X33974711Y90569947D01*
X33974711Y90569947D02*
X34555282Y90569947D01*
X34555282Y90569947D02*
X34700425Y90497376D01*
X34700425Y90497376D02*
X34772996Y90424804D01*
X34772996Y90424804D02*
X34845568Y90279661D01*
X34845568Y90279661D02*
X34845568Y90061947D01*
X34845568Y90061947D02*
X34772996Y89916804D01*
X34772996Y89916804D02*
X34700425Y89844233D01*
X34700425Y89844233D02*
X34555282Y89771661D01*
X34555282Y89771661D02*
X33974711Y89771661D01*
X36079282Y89118518D02*
X35934139Y89045947D01*
X35934139Y89045947D02*
X35643854Y89045947D01*
X35643854Y89045947D02*
X35498711Y89118518D01*
X35498711Y89118518D02*
X35426139Y89263661D01*
X35426139Y89263661D02*
X35426139Y89844233D01*
X35426139Y89844233D02*
X35498711Y89989376D01*
X35498711Y89989376D02*
X35643854Y90061947D01*
X35643854Y90061947D02*
X35934139Y90061947D01*
X35934139Y90061947D02*
X36079282Y89989376D01*
X36079282Y89989376D02*
X36151854Y89844233D01*
X36151854Y89844233D02*
X36151854Y89699090D01*
X36151854Y89699090D02*
X35426139Y89553947D01*
X36659854Y89045947D02*
X37458140Y90061947D01*
X36659854Y90061947D02*
X37458140Y89045947D01*
X38256425Y90569947D02*
X38256425Y90207090D01*
X37893568Y90352233D02*
X38256425Y90207090D01*
X38256425Y90207090D02*
X38619282Y90352233D01*
X38038711Y89916804D02*
X38256425Y90207090D01*
X38256425Y90207090D02*
X38474139Y89916804D01*
X22435858Y97427947D02*
X21927858Y98153661D01*
X21565001Y97427947D02*
X21565001Y98951947D01*
X21565001Y98951947D02*
X22145572Y98951947D01*
X22145572Y98951947D02*
X22290715Y98879376D01*
X22290715Y98879376D02*
X22363286Y98806804D01*
X22363286Y98806804D02*
X22435858Y98661661D01*
X22435858Y98661661D02*
X22435858Y98443947D01*
X22435858Y98443947D02*
X22363286Y98298804D01*
X22363286Y98298804D02*
X22290715Y98226233D01*
X22290715Y98226233D02*
X22145572Y98153661D01*
X22145572Y98153661D02*
X21565001Y98153661D01*
X23089001Y97427947D02*
X23089001Y98951947D01*
X23089001Y98951947D02*
X23451858Y98951947D01*
X23451858Y98951947D02*
X23669572Y98879376D01*
X23669572Y98879376D02*
X23814715Y98734233D01*
X23814715Y98734233D02*
X23887286Y98589090D01*
X23887286Y98589090D02*
X23959858Y98298804D01*
X23959858Y98298804D02*
X23959858Y98081090D01*
X23959858Y98081090D02*
X23887286Y97790804D01*
X23887286Y97790804D02*
X23814715Y97645661D01*
X23814715Y97645661D02*
X23669572Y97500518D01*
X23669572Y97500518D02*
X23451858Y97427947D01*
X23451858Y97427947D02*
X23089001Y97427947D01*
X25411286Y97427947D02*
X24540429Y97427947D01*
X24975858Y97427947D02*
X24975858Y98951947D01*
X24975858Y98951947D02*
X24830715Y98734233D01*
X24830715Y98734233D02*
X24685572Y98589090D01*
X24685572Y98589090D02*
X24540429Y98516518D01*
X26282144Y98951947D02*
X26282144Y98589090D01*
X25919287Y98734233D02*
X26282144Y98589090D01*
X26282144Y98589090D02*
X26645001Y98734233D01*
X26064430Y98298804D02*
X26282144Y98589090D01*
X26282144Y98589090D02*
X26499858Y98298804D01*
X21189841Y86950447D02*
X21189841Y88474447D01*
X22786412Y87095590D02*
X22713840Y87023018D01*
X22713840Y87023018D02*
X22496126Y86950447D01*
X22496126Y86950447D02*
X22350983Y86950447D01*
X22350983Y86950447D02*
X22133269Y87023018D01*
X22133269Y87023018D02*
X21988126Y87168161D01*
X21988126Y87168161D02*
X21915555Y87313304D01*
X21915555Y87313304D02*
X21842983Y87603590D01*
X21842983Y87603590D02*
X21842983Y87821304D01*
X21842983Y87821304D02*
X21915555Y88111590D01*
X21915555Y88111590D02*
X21988126Y88256733D01*
X21988126Y88256733D02*
X22133269Y88401876D01*
X22133269Y88401876D02*
X22350983Y88474447D01*
X22350983Y88474447D02*
X22496126Y88474447D01*
X22496126Y88474447D02*
X22713840Y88401876D01*
X22713840Y88401876D02*
X22786412Y88329304D01*
X24237840Y86950447D02*
X23366983Y86950447D01*
X23802412Y86950447D02*
X23802412Y88474447D01*
X23802412Y88474447D02*
X23657269Y88256733D01*
X23657269Y88256733D02*
X23512126Y88111590D01*
X23512126Y88111590D02*
X23366983Y88039018D01*
X27429586Y85111757D02*
X28155300Y85619757D01*
X27429586Y85982614D02*
X28953586Y85982614D01*
X28953586Y85982614D02*
X28953586Y85402043D01*
X28953586Y85402043D02*
X28881015Y85256900D01*
X28881015Y85256900D02*
X28808443Y85184329D01*
X28808443Y85184329D02*
X28663300Y85111757D01*
X28663300Y85111757D02*
X28445586Y85111757D01*
X28445586Y85111757D02*
X28300443Y85184329D01*
X28300443Y85184329D02*
X28227872Y85256900D01*
X28227872Y85256900D02*
X28155300Y85402043D01*
X28155300Y85402043D02*
X28155300Y85982614D01*
X27429586Y84458614D02*
X28953586Y84458614D01*
X28953586Y84458614D02*
X28953586Y84095757D01*
X28953586Y84095757D02*
X28881015Y83878043D01*
X28881015Y83878043D02*
X28735872Y83732900D01*
X28735872Y83732900D02*
X28590729Y83660329D01*
X28590729Y83660329D02*
X28300443Y83587757D01*
X28300443Y83587757D02*
X28082729Y83587757D01*
X28082729Y83587757D02*
X27792443Y83660329D01*
X27792443Y83660329D02*
X27647300Y83732900D01*
X27647300Y83732900D02*
X27502158Y83878043D01*
X27502158Y83878043D02*
X27429586Y84095757D01*
X27429586Y84095757D02*
X27429586Y84458614D01*
X28953586Y83079757D02*
X28953586Y82136329D01*
X28953586Y82136329D02*
X28373015Y82644329D01*
X28373015Y82644329D02*
X28373015Y82426614D01*
X28373015Y82426614D02*
X28300443Y82281471D01*
X28300443Y82281471D02*
X28227872Y82208900D01*
X28227872Y82208900D02*
X28082729Y82136329D01*
X28082729Y82136329D02*
X27719872Y82136329D01*
X27719872Y82136329D02*
X27574729Y82208900D01*
X27574729Y82208900D02*
X27502158Y82281471D01*
X27502158Y82281471D02*
X27429586Y82426614D01*
X27429586Y82426614D02*
X27429586Y82862043D01*
X27429586Y82862043D02*
X27502158Y83007186D01*
X27502158Y83007186D02*
X27574729Y83079757D01*
X28953586Y81265471D02*
X28590729Y81265471D01*
X28735872Y81628328D02*
X28590729Y81265471D01*
X28590729Y81265471D02*
X28735872Y80902614D01*
X28300443Y81483185D02*
X28590729Y81265471D01*
X28590729Y81265471D02*
X28300443Y81047757D01*
D10*
X27301763Y95393305D02*
X27301763Y96917305D01*
X27301763Y96917305D02*
X27882334Y96917305D01*
X27882334Y96917305D02*
X28027477Y96844734D01*
X28027477Y96844734D02*
X28100048Y96772162D01*
X28100048Y96772162D02*
X28172620Y96627019D01*
X28172620Y96627019D02*
X28172620Y96409305D01*
X28172620Y96409305D02*
X28100048Y96264162D01*
X28100048Y96264162D02*
X28027477Y96191591D01*
X28027477Y96191591D02*
X27882334Y96119019D01*
X27882334Y96119019D02*
X27301763Y96119019D01*
X29624048Y95393305D02*
X28753191Y95393305D01*
X29188620Y95393305D02*
X29188620Y96917305D01*
X29188620Y96917305D02*
X29043477Y96699591D01*
X29043477Y96699591D02*
X28898334Y96554448D01*
X28898334Y96554448D02*
X28753191Y96481876D01*
X57400773Y95266305D02*
X57400773Y96790305D01*
X57400773Y96790305D02*
X57981344Y96790305D01*
X57981344Y96790305D02*
X58126487Y96717734D01*
X58126487Y96717734D02*
X58199058Y96645162D01*
X58199058Y96645162D02*
X58271630Y96500019D01*
X58271630Y96500019D02*
X58271630Y96282305D01*
X58271630Y96282305D02*
X58199058Y96137162D01*
X58199058Y96137162D02*
X58126487Y96064591D01*
X58126487Y96064591D02*
X57981344Y95992019D01*
X57981344Y95992019D02*
X57400773Y95992019D01*
X58779630Y96790305D02*
X59723058Y96790305D01*
X59723058Y96790305D02*
X59215058Y96209734D01*
X59215058Y96209734D02*
X59432773Y96209734D01*
X59432773Y96209734D02*
X59577916Y96137162D01*
X59577916Y96137162D02*
X59650487Y96064591D01*
X59650487Y96064591D02*
X59723058Y95919448D01*
X59723058Y95919448D02*
X59723058Y95556591D01*
X59723058Y95556591D02*
X59650487Y95411448D01*
X59650487Y95411448D02*
X59577916Y95338876D01*
X59577916Y95338876D02*
X59432773Y95266305D01*
X59432773Y95266305D02*
X58997344Y95266305D01*
X58997344Y95266305D02*
X58852201Y95338876D01*
X58852201Y95338876D02*
X58779630Y95411448D01*
D11*
X33865858Y84600947D02*
X33357858Y85326661D01*
X32995001Y84600947D02*
X32995001Y86124947D01*
X32995001Y86124947D02*
X33575572Y86124947D01*
X33575572Y86124947D02*
X33720715Y86052376D01*
X33720715Y86052376D02*
X33793286Y85979804D01*
X33793286Y85979804D02*
X33865858Y85834661D01*
X33865858Y85834661D02*
X33865858Y85616947D01*
X33865858Y85616947D02*
X33793286Y85471804D01*
X33793286Y85471804D02*
X33720715Y85399233D01*
X33720715Y85399233D02*
X33575572Y85326661D01*
X33575572Y85326661D02*
X32995001Y85326661D01*
X35389858Y84746090D02*
X35317286Y84673518D01*
X35317286Y84673518D02*
X35099572Y84600947D01*
X35099572Y84600947D02*
X34954429Y84600947D01*
X34954429Y84600947D02*
X34736715Y84673518D01*
X34736715Y84673518D02*
X34591572Y84818661D01*
X34591572Y84818661D02*
X34519001Y84963804D01*
X34519001Y84963804D02*
X34446429Y85254090D01*
X34446429Y85254090D02*
X34446429Y85471804D01*
X34446429Y85471804D02*
X34519001Y85762090D01*
X34519001Y85762090D02*
X34591572Y85907233D01*
X34591572Y85907233D02*
X34736715Y86052376D01*
X34736715Y86052376D02*
X34954429Y86124947D01*
X34954429Y86124947D02*
X35099572Y86124947D01*
X35099572Y86124947D02*
X35317286Y86052376D01*
X35317286Y86052376D02*
X35389858Y85979804D01*
X36841286Y84600947D02*
X35970429Y84600947D01*
X36405858Y84600947D02*
X36405858Y86124947D01*
X36405858Y86124947D02*
X36260715Y85907233D01*
X36260715Y85907233D02*
X36115572Y85762090D01*
X36115572Y85762090D02*
X35970429Y85689518D01*
X37712144Y86124947D02*
X37712144Y85762090D01*
X37349287Y85907233D02*
X37712144Y85762090D01*
X37712144Y85762090D02*
X38075001Y85907233D01*
X37494430Y85471804D02*
X37712144Y85762090D01*
X37712144Y85762090D02*
X37929858Y85471804D01*
%TO.C,RD2\u002A*%
D12*
X15641620Y92424990D02*
X16041620Y92424990D01*
X15641620Y91724990D02*
X16041620Y91724990D01*
%TO.C,J2*%
D13*
X70020630Y89789990D02*
X72430620Y89789990D01*
X70020630Y84199990D02*
X70020630Y89789990D01*
X70020630Y84199990D02*
X72430620Y84199990D01*
X72430620Y84199990D02*
X72430620Y89789990D01*
D12*
X69625620Y88214990D02*
G75*
G02*
X69525620Y88214990I-50000J0D01*
G01*
X69525620Y88214990D02*
G75*
G02*
X69625620Y88214990I50000J0D01*
G01*
%TO.C,RC2\u002A*%
X54261620Y87471990D02*
X54661630Y87471990D01*
X54261620Y86771990D02*
X54661630Y86771990D01*
%TO.C,IC2*%
X40873620Y96771990D02*
X47983620Y96771990D01*
X40873620Y77471990D02*
X48793620Y77471990D01*
%TO.C,VR1*%
D13*
X31248620Y96125990D02*
X34748620Y96125990D01*
X31248620Y91325990D02*
X34748620Y91325990D01*
X34748620Y95725990D02*
X34748620Y96125990D01*
X34748620Y91325990D02*
X34748620Y91725990D01*
X29198620Y95025990D02*
G75*
G02*
X29198620Y94925990I0J-50000D01*
G01*
X29198620Y94925990D02*
G75*
G02*
X29198620Y95025990I0J50000D01*
G01*
%TO.C,IC3*%
D12*
X60939620Y96644990D02*
X68049620Y96644990D01*
X60939620Y77344990D02*
X68859620Y77344990D01*
%TO.C,J1*%
D13*
X14140630Y89789990D02*
X16550620Y89789990D01*
X14140630Y84199990D02*
X14140630Y89789990D01*
X14140630Y84199990D02*
X16550620Y84199990D01*
X16550620Y84199990D02*
X16550620Y89789990D01*
D12*
X17045620Y85774990D02*
G75*
G02*
X16945620Y85774990I-50000J0D01*
G01*
X16945620Y85774990D02*
G75*
G02*
X17045620Y85774990I50000J0D01*
G01*
%TO.C,C2*%
X31404947Y79120101D02*
G75*
G02*
X31161609Y82625501I831672J1818879D01*
G01*
X33311631Y82625500D02*
G75*
G02*
X33068293Y79120102I-1075011J-1686520D01*
G01*
%TO.C,Ral\u002A*%
X51340620Y90011990D02*
X51740620Y90011990D01*
X51340620Y89311990D02*
X51740620Y89311990D01*
%TO.C,C1*%
X36058620Y81434990D02*
X36058620Y82234990D01*
X37558620Y81434990D02*
X37558620Y82234990D01*
%TO.C,RD4\u002A*%
X14995620Y79809990D02*
X14995620Y80209990D01*
X15695630Y79809990D02*
X15695630Y80209990D01*
%TO.C,P4*%
D13*
X34395620Y99694990D02*
X39475620Y99694990D01*
X34395620Y97154990D02*
X34395620Y99694990D01*
X34395620Y97154990D02*
X39475620Y97154990D01*
X39475620Y97154990D02*
X39475620Y99694990D01*
D12*
X35665620Y96674990D02*
G75*
G02*
X35565620Y96674990I-50000J0D01*
G01*
X35565620Y96674990D02*
G75*
G02*
X35665620Y96674990I50000J0D01*
G01*
%TO.C,P2*%
D13*
X49635620Y99694990D02*
X54715620Y99694990D01*
X49635620Y97154990D02*
X49635620Y99694990D01*
X49635620Y97154990D02*
X54715620Y97154990D01*
X54715620Y97154990D02*
X54715620Y99694990D01*
D12*
X53545620Y100174990D02*
G75*
G02*
X53445620Y100174990I-50000J0D01*
G01*
X53445620Y100174990D02*
G75*
G02*
X53545620Y100174990I50000J0D01*
G01*
%TO.C,C4*%
X51597947Y79374101D02*
G75*
G02*
X51354609Y82879501I831672J1818879D01*
G01*
X53504631Y82879500D02*
G75*
G02*
X53261293Y79374102I-1075011J-1686520D01*
G01*
%TO.C,C3*%
X56505620Y81895990D02*
X56505620Y82695990D01*
X58005620Y81895990D02*
X58005620Y82695990D01*
%TO.C,Rex\u002A*%
X31020620Y90011990D02*
X31420620Y90011990D01*
X31020620Y89311990D02*
X31420620Y89311990D01*
%TO.C,RD1\u002A*%
X19094620Y98520990D02*
X19494620Y98520990D01*
X19094620Y97820990D02*
X19494620Y97820990D01*
%TO.C,IC1*%
X18092620Y96771990D02*
X26012620Y96771990D01*
X18902620Y77471990D02*
X26012620Y77471990D01*
%TO.C,RD3\u002A*%
X27949620Y79174990D02*
X27949620Y79574990D01*
X28649620Y79174990D02*
X28649620Y79574990D01*
%TO.C,P1*%
D13*
X26775620Y99694990D02*
X31855620Y99694990D01*
X26775620Y97154990D02*
X26775620Y99694990D01*
X26775620Y97154990D02*
X31855620Y97154990D01*
X31855620Y97154990D02*
X31855620Y99694990D01*
D12*
X30685620Y100174990D02*
G75*
G02*
X30585620Y100174990I-50000J0D01*
G01*
X30585620Y100174990D02*
G75*
G02*
X30685620Y100174990I50000J0D01*
G01*
%TO.C,P3*%
D13*
X57255620Y99694990D02*
X62335620Y99694990D01*
X57255620Y97154990D02*
X57255620Y99694990D01*
X57255620Y97154990D02*
X62335620Y97154990D01*
X62335620Y97154990D02*
X62335620Y99694990D01*
D12*
X61165620Y100174990D02*
G75*
G02*
X61065620Y100174990I-50000J0D01*
G01*
X61065620Y100174990D02*
G75*
G02*
X61165620Y100174990I50000J0D01*
G01*
%TO.C,RC1\u002A*%
X34195620Y87471990D02*
X34595630Y87471990D01*
X34195620Y86771990D02*
X34595630Y86771990D01*
%TD*%
M02*
