%TF.GenerationSoftware,KiCad,Pcbnew,10.0.3-10.0.3~ubuntu24.04.1*%
%TF.CreationDate,2026-05-16T16:22:26+02:00*%
%TF.ProjectId,Synapse_LPS,53796e61-7073-4655-9f4c-50532e6b6963,rev?*%
%TF.SameCoordinates,Original*%
%TF.FileFunction,Copper,L1,Top*%
%TF.FilePolarity,Positive*%
%FSLAX46Y46*%
G04 Gerber Fmt 4.6, Leading zero omitted, Abs format (unit mm)*
G04 Created by KiCad (PCBNEW 10.0.3-10.0.3~ubuntu24.04.1) date 2026-05-16 16:22:26*
%MOMM*%
%LPD*%
G01*
G04 APERTURE LIST*
%TA.AperFunction,SMDPad,CuDef*%
%ADD10R,0.700000X0.900000*%
%TD*%
%TA.AperFunction,ComponentPad*%
%ADD11C,1.570000*%
%TD*%
%TA.AperFunction,ComponentPad*%
%ADD12R,1.110000X1.110000*%
%TD*%
%TA.AperFunction,ComponentPad*%
%ADD13C,1.110000*%
%TD*%
%TA.AperFunction,SMDPad,CuDef*%
%ADD14R,1.900000X1.300000*%
%TD*%
%TA.AperFunction,SMDPad,CuDef*%
%ADD15R,1.900000X2.000000*%
%TD*%
%TA.AperFunction,ComponentPad*%
%ADD16R,1.350000X1.350000*%
%TD*%
%TA.AperFunction,ComponentPad*%
%ADD17C,1.350000*%
%TD*%
%TA.AperFunction,SMDPad,CuDef*%
%ADD18R,1.700000X1.100000*%
%TD*%
%TA.AperFunction,SMDPad,CuDef*%
%ADD19R,0.900000X0.700000*%
%TD*%
%TA.AperFunction,ComponentPad*%
%ADD20C,1.550000*%
%TD*%
%TA.AperFunction,ViaPad*%
%ADD21C,1.270000*%
%TD*%
%TA.AperFunction,Conductor*%
%ADD22C,0.381000*%
%TD*%
G04 APERTURE END LIST*
D10*
%TO.P,RD2\u002A,1*%
%TO.N,IN*%
X15091620Y92074990D03*
%TO.P,RD2\u002A,2*%
%TO.N,NetIC1_2*%
X16591620Y92074990D03*
%TD*%
D11*
%TO.P,J2,1*%
%TO.N,GND*%
X71225620Y88264990D03*
%TO.P,J2,2*%
%TO.N,OUT*%
X71225620Y85724990D03*
%TD*%
D10*
%TO.P,RC2\u002A,1*%
%TO.N,NetC3_2*%
X53711630Y87121990D03*
%TO.P,RC2\u002A,2*%
%TO.N,NetIC3_1*%
X55211620Y87121990D03*
%TD*%
D12*
%TO.P,IC2,1*%
%TO.N,NetIC2_1*%
X48238620Y79501990D03*
D13*
%TO.P,IC2,2*%
X48238620Y82041990D03*
%TO.P,IC2,3*%
%TO.N,GND*%
X48238620Y84581990D03*
%TO.P,IC2,4*%
X48238620Y87121990D03*
%TO.P,IC2,5*%
%TO.N,NetIC2_5*%
X48238620Y89661990D03*
%TO.P,IC2,6*%
%TO.N,NetIC2_6*%
X48238620Y92201990D03*
%TO.P,IC2,7*%
%TO.N,NetIC2_7*%
X48238620Y94741990D03*
%TO.P,IC2,8*%
X40618620Y94741990D03*
%TO.P,IC2,9*%
%TO.N,NetIC2_6*%
X40618620Y92201990D03*
%TO.P,IC2,10*%
X40618620Y89661990D03*
%TO.P,IC2,11*%
%TO.N,+5V*%
X40618620Y87121990D03*
%TO.P,IC2,12*%
%TO.N,GND*%
X40618620Y84581990D03*
%TO.P,IC2,13*%
%TO.N,NetIC2_1*%
X40618620Y82041990D03*
%TO.P,IC2,14*%
%TO.N,NetIC2_14*%
X40618620Y79501990D03*
%TD*%
D14*
%TO.P,VR1,1*%
%TO.N,Voltage_IN*%
X30448620Y94975990D03*
D15*
%TO.P,VR1,2*%
X35548620Y93725990D03*
D14*
%TO.P,VR1,3*%
%TO.N,NetR1_1*%
X30448620Y92475990D03*
%TD*%
D12*
%TO.P,IC3,1*%
%TO.N,NetIC3_1*%
X68304620Y79374990D03*
D13*
%TO.P,IC3,2*%
X68304620Y81914990D03*
%TO.P,IC3,3*%
%TO.N,GND*%
X68304620Y84454990D03*
%TO.P,IC3,4*%
X68304620Y86994990D03*
%TO.P,IC3,5*%
%TO.N,NetIC3_5*%
X68304620Y89534990D03*
%TO.P,IC3,6*%
%TO.N,NetIC3_6*%
X68304620Y92074990D03*
%TO.P,IC3,7*%
%TO.N,NetIC3_7*%
X68304620Y94614990D03*
%TO.P,IC3,8*%
X60684620Y94614990D03*
%TO.P,IC3,9*%
%TO.N,NetIC3_6*%
X60684620Y92074990D03*
%TO.P,IC3,10*%
X60684620Y89534990D03*
%TO.P,IC3,11*%
%TO.N,+5V*%
X60684620Y86994990D03*
%TO.P,IC3,12*%
%TO.N,GND*%
X60684620Y84454990D03*
%TO.P,IC3,13*%
%TO.N,NetIC3_1*%
X60684620Y81914990D03*
%TO.P,IC3,14*%
%TO.N,NetIC3_14*%
X60684620Y79374990D03*
%TD*%
D11*
%TO.P,J1,1*%
%TO.N,GND*%
X15345620Y85724990D03*
%TO.P,J1,2*%
%TO.N,IN*%
X15345620Y88264990D03*
%TD*%
D16*
%TO.P,C2,1*%
%TO.N,NetC1_2*%
X32236620Y83438990D03*
D17*
%TO.P,C2,2*%
%TO.N,GND*%
X32236610Y78438990D03*
%TD*%
D10*
%TO.P,Ral\u002A,1*%
%TO.N,NetC3_2*%
X52290620Y89661990D03*
%TO.P,Ral\u002A,2*%
%TO.N,NetIC2_5*%
X50790620Y89661990D03*
%TD*%
D18*
%TO.P,C1,1*%
%TO.N,GND*%
X36808620Y80484990D03*
%TO.P,C1,2*%
%TO.N,NetC1_2*%
X36808620Y83184990D03*
%TD*%
D19*
%TO.P,RD4\u002A,1*%
%TO.N,GND*%
X15345630Y80759990D03*
%TO.P,RD4\u002A,2*%
%TO.N,NetIC1_7*%
X15345630Y79259990D03*
%TD*%
D20*
%TO.P,P4,1*%
%TO.N,GND*%
X35665620Y98424990D03*
%TO.P,P4,2*%
%TO.N,Voltage_IN*%
X38205620Y98424990D03*
%TD*%
%TO.P,P2,1*%
%TO.N,GND*%
X53445620Y98424990D03*
%TO.P,P2,2*%
%TO.N,+5V*%
X50905620Y98424990D03*
%TD*%
D16*
%TO.P,C4,1*%
%TO.N,NetC3_2*%
X52429620Y83692990D03*
D17*
%TO.P,C4,2*%
%TO.N,GND*%
X52429610Y78692990D03*
%TD*%
D18*
%TO.P,C3,1*%
%TO.N,GND*%
X57255620Y80945990D03*
%TO.P,C3,2*%
%TO.N,NetC3_2*%
X57255620Y83645990D03*
%TD*%
D10*
%TO.P,Rex\u002A,1*%
%TO.N,NetC1_2*%
X31970620Y89661990D03*
%TO.P,Rex\u002A,2*%
%TO.N,NetR1_1*%
X30470620Y89661990D03*
%TD*%
%TO.P,RD1\u002A,1*%
%TO.N,+5V*%
X20044620Y98170990D03*
%TO.P,RD1\u002A,2*%
%TO.N,NetIC1_1*%
X18544620Y98170990D03*
%TD*%
D12*
%TO.P,IC1,1*%
%TO.N,NetIC1_1*%
X18647620Y94741990D03*
D13*
%TO.P,IC1,2*%
%TO.N,NetIC1_2*%
X18647620Y92201990D03*
%TO.P,IC1,3*%
%TO.N,GND*%
X18647620Y89661990D03*
%TO.P,IC1,4*%
X18647620Y87121990D03*
%TO.P,IC1,5*%
%TO.N,+5V*%
X18647620Y84581990D03*
%TO.P,IC1,6*%
%TO.N,NetIC1_1*%
X18647620Y82041990D03*
%TO.P,IC1,7*%
%TO.N,NetIC1_7*%
X18647620Y79501990D03*
%TO.P,IC1,8*%
%TO.N,N/C*%
X26267620Y79501990D03*
%TO.P,IC1,9*%
X26267620Y82041990D03*
%TO.P,IC1,10*%
X26267620Y84581990D03*
%TO.P,IC1,11*%
%TO.N,+5V*%
X26267620Y87121990D03*
%TO.P,IC1,12*%
%TO.N,N/C*%
X26267620Y89661990D03*
%TO.P,IC1,13*%
X26267620Y92201990D03*
%TO.P,IC1,14*%
X26267620Y94741990D03*
%TD*%
D19*
%TO.P,RD3\u002A,1*%
%TO.N,NetIC1_7*%
X28299620Y78624990D03*
%TO.P,RD3\u002A,2*%
%TO.N,Voltage_IN*%
X28299620Y80124990D03*
%TD*%
D20*
%TO.P,P1,1*%
%TO.N,GND*%
X30585620Y98424990D03*
%TO.P,P1,2*%
%TO.N,+5V*%
X28045620Y98424990D03*
%TD*%
%TO.P,P3,1*%
%TO.N,GND*%
X61065620Y98424990D03*
%TO.P,P3,2*%
%TO.N,+5V*%
X58525620Y98424990D03*
%TD*%
D10*
%TO.P,RC1\u002A,1*%
%TO.N,NetC1_2*%
X33645630Y87121990D03*
%TO.P,RC1\u002A,2*%
%TO.N,NetIC2_1*%
X35145620Y87121990D03*
%TD*%
D21*
%TO.N,NetIC2_5*%
X50651620Y81279990D03*
%TO.N,NetR1_1*%
X30458620Y81152990D03*
%TD*%
%TO.N,NetIC3_7*%
D22*
X60811620Y94360990D02*
X68431620Y94360990D01*
%TO.N,NetIC2_7*%
X40618620Y94741990D02*
X48238620Y94741990D01*
%TO.N,NetIC1_7*%
X18647620Y77596990D02*
X18647620Y79247990D01*
X28330440Y78231990D02*
X28330440Y78707490D01*
X18641620Y79253990D02*
X18647620Y79247990D01*
X15351630Y79253990D02*
X18641620Y79253990D01*
X26775620Y76707990D02*
X28299620Y78231990D01*
X28299620Y78231990D02*
X28330440Y78231990D01*
X15345630Y79259990D02*
X15351630Y79253990D01*
X18647620Y77596990D02*
X19536620Y76707990D01*
X19536620Y76707990D02*
X26775620Y76707990D01*
%TO.N,NetIC3_6*%
X60684620Y92074990D02*
X68304620Y92074990D01*
X60684620Y89534990D02*
X60684620Y92074990D01*
%TO.N,NetIC3_1*%
X58525620Y87121990D02*
X59287620Y86359990D01*
X59287620Y82793670D02*
X60026820Y82054470D01*
X68304620Y79374990D02*
X68304620Y81914990D01*
X60684620Y81914990D02*
X68304620Y81914990D01*
X60545140Y82054470D02*
X60684620Y81914990D01*
X59287620Y82793670D02*
X59287620Y86359990D01*
X55211620Y87121990D02*
X58525620Y87121990D01*
X60026820Y82054470D02*
X60545140Y82054470D01*
%TO.N,NetIC2_5*%
X50721120Y81349490D02*
X50721120Y89592490D01*
X48238630Y89661990D02*
X50790620Y89661990D01*
X50721120Y89592490D02*
X50790620Y89661990D01*
X50651620Y81279990D02*
X50721120Y81349490D01*
X48238620Y89661990D02*
X48238630Y89661990D01*
%TO.N,NetC3_2*%
X52429620Y85739990D02*
X53711630Y87021990D01*
X52290620Y89561990D02*
X53079620Y88772990D01*
X53711630Y87121990D02*
X53711630Y88143490D01*
X53079620Y88772990D02*
X53082130Y88772990D01*
X52476620Y83645990D02*
X57255620Y83645990D01*
X53082130Y88772990D02*
X53711630Y88143490D01*
X52429620Y83692990D02*
X52476620Y83645990D01*
X52429620Y83692990D02*
X52429620Y85739990D01*
X52290620Y89561990D02*
X52290620Y89661990D01*
X53711630Y87021990D02*
X53711630Y87121990D01*
%TO.N,NetIC1_2*%
X16655120Y92011490D02*
X18584120Y92011490D01*
X16591620Y92074990D02*
X16655120Y92011490D01*
%TO.N,Voltage_IN*%
X28299620Y93126980D02*
X30148620Y94975990D01*
X35548620Y93775990D02*
X38205620Y96432990D01*
X34348620Y94975990D02*
X35548620Y93775990D01*
X38205620Y96432990D02*
X38205620Y98424990D01*
X28299620Y80124990D02*
X28299620Y93126980D01*
X30148620Y94975990D02*
X30448620Y94975990D01*
X38079000Y98298370D02*
X38205620Y98424990D01*
X30448620Y94975990D02*
X34348620Y94975990D01*
%TO.N,+5V*%
X27918620Y98297990D02*
X28045620Y98424990D01*
X20171620Y98297990D02*
X27918620Y98297990D01*
X20044620Y98170990D02*
X20171620Y98297990D01*
%TO.N,NetIC2_6*%
X40618620Y92201990D02*
X48238620Y92201990D01*
X40618620Y89661990D02*
X40618620Y92201990D01*
%TO.N,NetC1_2*%
X32490620Y83184990D02*
X36808620Y83184990D01*
X32236620Y83438990D02*
X32236620Y85612990D01*
X32236620Y83438990D02*
X32490620Y83184990D01*
X32130120Y89402480D02*
X32230120Y89402480D01*
X31970620Y89561990D02*
X31970620Y89661980D01*
X31970620Y89561990D02*
X32130120Y89402480D01*
X32230120Y89402480D02*
X33645630Y87986980D01*
X32236620Y85612990D02*
X33645630Y87021990D01*
X33645630Y87021990D02*
X33645630Y87986980D01*
%TO.N,NetIC2_1*%
X39822070Y82076540D02*
X40584070Y82076540D01*
X40618620Y82041990D02*
X48238620Y82041990D01*
X38332620Y87121990D02*
X38967620Y86486990D01*
X35145620Y87121990D02*
X38332620Y87121990D01*
X38967620Y82930990D02*
X38967620Y86486990D01*
X38967620Y82930990D02*
X39822070Y82076540D01*
X40584070Y82076540D02*
X40618620Y82041990D01*
X48238620Y79501990D02*
X48238620Y82041990D01*
%TO.N,NetIC1_1*%
X18544620Y98170990D02*
X18596130Y98119490D01*
X18647630Y94741990D02*
X19012120Y94377490D01*
X19012120Y94377490D02*
X20425620Y92963990D01*
X18787110Y82181470D02*
X19295110Y82181470D01*
X18596130Y94793490D02*
X18647620Y94741990D01*
X18596130Y94793490D02*
X18596130Y98119490D01*
X20425620Y83311990D02*
X20425620Y92963990D01*
X19295110Y82181470D02*
X20425620Y83311990D01*
X18647620Y94741990D02*
X18647630Y94741990D01*
X18647620Y82041990D02*
X18787110Y82181470D01*
X19012120Y94377490D02*
X19012120Y94377490D01*
%TO.N,NetR1_1*%
X30458620Y81152990D02*
X30464620Y81158990D01*
X30464620Y89655990D02*
X30470620Y89661990D01*
X30448620Y92475990D02*
X30470620Y92453990D01*
X30464620Y81158990D02*
X30464620Y89655990D01*
X30470620Y89661990D02*
X30470620Y92453990D01*
%TO.N,IN*%
X15091620Y92074990D02*
X15218620Y91947990D01*
X15218620Y88391990D02*
X15345620Y88264990D01*
X15218620Y88391990D02*
X15218620Y91947990D01*
%TD*%
%TA.AperFunction,Conductor*%
%TO.N,NetC3_2*%
G36*
X53903490Y86678090D02*
G01*
X53874130Y86699330D01*
X53839320Y86709810D01*
X53799060Y86709500D01*
X53753350Y86698420D01*
X53702200Y86676560D01*
X53645590Y86643930D01*
X53583530Y86600520D01*
X53516030Y86546330D01*
X53364670Y86405630D01*
X53095270Y86675040D01*
X53171000Y86753440D01*
X53290160Y86893900D01*
X53333560Y86955960D01*
X53366200Y87012560D01*
X53388050Y87063720D01*
X53399140Y87109420D01*
X53399440Y87149680D01*
X53388970Y87184490D01*
X53367720Y87213850D01*
X53903490Y86678090D01*
G37*
%TD.AperFunction*%
%TD*%
%TA.AperFunction,Conductor*%
%TO.N,NetIC1_7*%
G36*
X18454900Y78981520D02*
G01*
X18410260Y78997090D01*
X18318690Y79023320D01*
X18271770Y79033980D01*
X18175670Y79050370D01*
X18126490Y79056110D01*
X17974410Y79063490D01*
X17762610Y79444490D01*
X17817170Y79446770D01*
X17867530Y79453610D01*
X17913700Y79465000D01*
X17955670Y79480960D01*
X17993460Y79501470D01*
X18027040Y79526550D01*
X18056430Y79556180D01*
X18081630Y79590370D01*
X18102640Y79629120D01*
X18119450Y79672440D01*
X18454900Y78981520D01*
G37*
%TD.AperFunction*%
%TD*%
%TA.AperFunction,Conductor*%
%TO.N,+5V*%
G36*
X20395390Y98593340D02*
G01*
X20406820Y98571340D01*
X20425870Y98551920D01*
X20452540Y98535090D01*
X20486830Y98520850D01*
X20528740Y98509200D01*
X20578270Y98500140D01*
X20635420Y98493670D01*
X20700190Y98489780D01*
X20772580Y98488490D01*
X20772580Y98107490D01*
X20699760Y98105580D01*
X20634580Y98099870D01*
X20577060Y98090340D01*
X20527180Y98077010D01*
X20484950Y98059860D01*
X20450370Y98038910D01*
X20423440Y98014140D01*
X20404150Y97985570D01*
X20392520Y97953180D01*
X20388530Y97916990D01*
X20391580Y98617940D01*
X20395390Y98593340D01*
G37*
%TD.AperFunction*%
%TD*%
%TA.AperFunction,Conductor*%
%TO.N,NetIC3_6*%
G36*
X61120490Y92425870D02*
G01*
X61161390Y92392210D01*
X61203700Y92362510D01*
X61247400Y92336770D01*
X61292500Y92314990D01*
X61338990Y92297170D01*
X61386870Y92283310D01*
X61436160Y92273410D01*
X61486830Y92267470D01*
X61538910Y92265490D01*
X61538910Y91884490D01*
X61486830Y91882510D01*
X61436160Y91876570D01*
X61386870Y91866670D01*
X61338990Y91852810D01*
X61292500Y91834990D01*
X61247400Y91813210D01*
X61203700Y91787470D01*
X61161390Y91757770D01*
X61120490Y91724110D01*
X61080970Y91686490D01*
X61080970Y92463490D01*
X61120490Y92425870D01*
G37*
%TD.AperFunction*%
%TD*%
%TA.AperFunction,Conductor*%
%TO.N,+5V*%
G36*
X27588550Y97799130D02*
G01*
X27505390Y97857710D01*
X27346870Y97956390D01*
X27271490Y97996480D01*
X27198700Y98030400D01*
X27128510Y98058150D01*
X27060910Y98079740D01*
X26995900Y98095150D01*
X26933470Y98104400D01*
X26873650Y98107490D01*
X26808230Y98488490D01*
X26874700Y98492300D01*
X26939790Y98503730D01*
X27003490Y98522780D01*
X27065820Y98549440D01*
X27126760Y98583730D01*
X27186320Y98625640D01*
X27244500Y98675160D01*
X27301300Y98732310D01*
X27356710Y98797070D01*
X27410750Y98869460D01*
X27588550Y97799130D01*
G37*
%TD.AperFunction*%
%TD*%
%TA.AperFunction,Conductor*%
%TO.N,NetIC2_5*%
G36*
X48674490Y90012870D02*
G01*
X48715400Y89979210D01*
X48757700Y89949510D01*
X48801400Y89923770D01*
X48846500Y89901980D01*
X48892990Y89884160D01*
X48940880Y89870310D01*
X48990160Y89860400D01*
X49040830Y89854470D01*
X49092910Y89852490D01*
X49092900Y89471490D01*
X49040830Y89469500D01*
X48990150Y89463570D01*
X48940870Y89453660D01*
X48892990Y89439810D01*
X48846490Y89421990D01*
X48801400Y89400210D01*
X48757700Y89374460D01*
X48715390Y89344760D01*
X48674490Y89311100D01*
X48634970Y89273480D01*
X48634980Y90050490D01*
X48674490Y90012870D01*
G37*
%TD.AperFunction*%
%TD*%
%TA.AperFunction,Conductor*%
%TO.N,Voltage_IN*%
G36*
X30040490Y94329040D02*
G01*
X30010850Y94350590D01*
X29975830Y94361370D01*
X29935420Y94361370D01*
X29889620Y94350590D01*
X29838430Y94329040D01*
X29781860Y94296710D01*
X29719890Y94253600D01*
X29652540Y94199720D01*
X29501670Y94059630D01*
X29232270Y94329040D01*
X29307700Y94407170D01*
X29426240Y94547260D01*
X29469340Y94609220D01*
X29501670Y94665800D01*
X29523230Y94716980D01*
X29534000Y94762780D01*
X29534000Y94803190D01*
X29523230Y94838220D01*
X29501670Y94867850D01*
X30040490Y94329040D01*
G37*
%TD.AperFunction*%
%TD*%
%TA.AperFunction,Conductor*%
%TO.N,NetIC2_6*%
G36*
X47842270Y91813490D02*
G01*
X47802760Y91851110D01*
X47761850Y91884770D01*
X47719550Y91914470D01*
X47675850Y91940210D01*
X47630750Y91961990D01*
X47584260Y91979810D01*
X47536370Y91993670D01*
X47487090Y92003570D01*
X47436420Y92009510D01*
X47384340Y92011490D01*
X47384340Y92392490D01*
X47436420Y92394470D01*
X47487090Y92400410D01*
X47536370Y92410310D01*
X47584260Y92424170D01*
X47630750Y92441990D01*
X47675850Y92463770D01*
X47719550Y92489510D01*
X47761850Y92519210D01*
X47802760Y92552870D01*
X47842270Y92590490D01*
X47842270Y91813490D01*
G37*
%TD.AperFunction*%
%TD*%
%TA.AperFunction,Conductor*%
%TO.N,NetIC2_6*%
G36*
X40969500Y91766120D02*
G01*
X40935840Y91725220D01*
X40906140Y91682910D01*
X40880400Y91639210D01*
X40858620Y91594120D01*
X40840800Y91547630D01*
X40826940Y91499740D01*
X40817040Y91450460D01*
X40811110Y91399780D01*
X40809120Y91347700D01*
X40428120Y91347700D01*
X40426140Y91399780D01*
X40420200Y91450460D01*
X40410300Y91499740D01*
X40396440Y91547630D01*
X40378620Y91594120D01*
X40356840Y91639210D01*
X40331100Y91682910D01*
X40301400Y91725220D01*
X40267740Y91766120D01*
X40230120Y91805640D01*
X41007120Y91805640D01*
X40969500Y91766120D01*
G37*
%TD.AperFunction*%
%TD*%
%TA.AperFunction,Conductor*%
%TO.N,Voltage_IN*%
G36*
X31396370Y95320790D02*
G01*
X31407890Y95288410D01*
X31427090Y95259830D01*
X31453970Y95235070D01*
X31488540Y95214110D01*
X31530780Y95196970D01*
X31580710Y95183630D01*
X31638320Y95174110D01*
X31703600Y95168390D01*
X31776570Y95166490D01*
X31776570Y94785490D01*
X31703600Y94783580D01*
X31638320Y94777870D01*
X31580710Y94768340D01*
X31530780Y94755010D01*
X31488540Y94737860D01*
X31453970Y94716910D01*
X31427090Y94692140D01*
X31407890Y94663570D01*
X31396370Y94631180D01*
X31392530Y94594990D01*
X31392530Y95356990D01*
X31396370Y95320790D01*
G37*
%TD.AperFunction*%
%TD*%
%TA.AperFunction,Conductor*%
%TO.N,Voltage_IN*%
G36*
X28492030Y80780550D02*
G01*
X28497740Y80715780D01*
X28507270Y80658630D01*
X28520600Y80609100D01*
X28537750Y80567190D01*
X28558700Y80532900D01*
X28583470Y80506230D01*
X28612040Y80487180D01*
X28644430Y80475750D01*
X28680620Y80471940D01*
X27918620Y80471940D01*
X27954820Y80475750D01*
X27987200Y80487180D01*
X28015780Y80506230D01*
X28040540Y80532900D01*
X28061500Y80567190D01*
X28078640Y80609100D01*
X28091980Y80658630D01*
X28101500Y80715780D01*
X28107220Y80780550D01*
X28109120Y80852940D01*
X28490120Y80852940D01*
X28492030Y80780550D01*
G37*
%TD.AperFunction*%
%TD*%
%TA.AperFunction,Conductor*%
%TO.N,NetIC3_6*%
G36*
X61035500Y91639120D02*
G01*
X61001840Y91598220D01*
X60972140Y91555910D01*
X60946400Y91512210D01*
X60924620Y91467120D01*
X60906800Y91420630D01*
X60892940Y91372740D01*
X60883040Y91323460D01*
X60877110Y91272780D01*
X60875120Y91220700D01*
X60494120Y91220700D01*
X60492140Y91272780D01*
X60486200Y91323460D01*
X60476300Y91372740D01*
X60462440Y91420630D01*
X60444620Y91467120D01*
X60422840Y91512210D01*
X60397100Y91555910D01*
X60367400Y91598220D01*
X60333740Y91639120D01*
X60296120Y91678640D01*
X61073120Y91678640D01*
X61035500Y91639120D01*
G37*
%TD.AperFunction*%
%TD*%
%TA.AperFunction,Conductor*%
%TO.N,NetIC2_1*%
G36*
X47842270Y81653490D02*
G01*
X47802760Y81691110D01*
X47761850Y81724770D01*
X47719550Y81754470D01*
X47675850Y81780210D01*
X47630750Y81801990D01*
X47584260Y81819810D01*
X47536370Y81833670D01*
X47487090Y81843570D01*
X47436420Y81849510D01*
X47384340Y81851490D01*
X47384340Y82232490D01*
X47436420Y82234470D01*
X47487090Y82240410D01*
X47536370Y82250310D01*
X47584260Y82264170D01*
X47630750Y82281990D01*
X47675850Y82303770D01*
X47719550Y82329510D01*
X47761850Y82359210D01*
X47802760Y82392870D01*
X47842270Y82430490D01*
X47842270Y81653490D01*
G37*
%TD.AperFunction*%
%TD*%
%TA.AperFunction,Conductor*%
%TO.N,NetC3_2*%
G36*
X53102370Y83990790D02*
G01*
X53113890Y83958410D01*
X53133090Y83929830D01*
X53159980Y83905070D01*
X53194540Y83884110D01*
X53236790Y83866970D01*
X53286710Y83853630D01*
X53344320Y83844110D01*
X53409610Y83838390D01*
X53482580Y83836490D01*
X53482580Y83455490D01*
X53409610Y83453580D01*
X53344320Y83447870D01*
X53286710Y83438340D01*
X53236790Y83425010D01*
X53194540Y83407860D01*
X53159980Y83386910D01*
X53133090Y83362140D01*
X53113890Y83333570D01*
X53102370Y83301180D01*
X53098530Y83264990D01*
X53098530Y84026990D01*
X53102370Y83990790D01*
G37*
%TD.AperFunction*%
%TD*%
%TA.AperFunction,Conductor*%
%TO.N,NetC1_2*%
G36*
X32429030Y84418970D02*
G01*
X32434740Y84353680D01*
X32444270Y84296080D01*
X32457600Y84246150D01*
X32474750Y84203900D01*
X32495700Y84169340D01*
X32520470Y84142460D01*
X32549040Y84123250D01*
X32581430Y84111730D01*
X32617620Y84107890D01*
X31855620Y84107890D01*
X31891820Y84111730D01*
X31924200Y84123250D01*
X31952780Y84142460D01*
X31977540Y84169340D01*
X31998500Y84203900D01*
X32015640Y84246150D01*
X32028980Y84296080D01*
X32038500Y84353680D01*
X32044220Y84418970D01*
X32046120Y84491940D01*
X32427120Y84491940D01*
X32429030Y84418970D01*
G37*
%TD.AperFunction*%
%TD*%
%TA.AperFunction,Conductor*%
%TO.N,NetIC3_6*%
G36*
X60877110Y90337200D02*
G01*
X60883040Y90286520D01*
X60892940Y90237240D01*
X60906800Y90189350D01*
X60924620Y90142860D01*
X60946400Y90097770D01*
X60972140Y90054060D01*
X61001840Y90011760D01*
X61035500Y89970850D01*
X61073120Y89931340D01*
X60296120Y89931340D01*
X60333740Y89970850D01*
X60367400Y90011760D01*
X60397100Y90054060D01*
X60422840Y90097770D01*
X60444620Y90142860D01*
X60462440Y90189350D01*
X60476300Y90237240D01*
X60486200Y90286520D01*
X60492140Y90337200D01*
X60494120Y90389270D01*
X60875120Y90389270D01*
X60877110Y90337200D01*
G37*
%TD.AperFunction*%
%TD*%
%TA.AperFunction,Conductor*%
%TO.N,NetIC2_1*%
G36*
X41054490Y82392870D02*
G01*
X41095390Y82359210D01*
X41137700Y82329510D01*
X41181400Y82303770D01*
X41226500Y82281990D01*
X41272990Y82264170D01*
X41320870Y82250310D01*
X41370160Y82240410D01*
X41420830Y82234470D01*
X41472910Y82232490D01*
X41472910Y81851490D01*
X41420830Y81849510D01*
X41370160Y81843570D01*
X41320870Y81833670D01*
X41272990Y81819810D01*
X41226500Y81801990D01*
X41181400Y81780210D01*
X41137700Y81754470D01*
X41095390Y81724770D01*
X41054490Y81691110D01*
X41014970Y81653490D01*
X41014970Y82430490D01*
X41054490Y82392870D01*
G37*
%TD.AperFunction*%
%TD*%
%TA.AperFunction,Conductor*%
%TO.N,NetR1_1*%
G36*
X30786710Y89211220D02*
G01*
X30759090Y89199790D01*
X30734720Y89180740D01*
X30713610Y89154070D01*
X30695740Y89119780D01*
X30681120Y89077870D01*
X30669740Y89028340D01*
X30661620Y88971190D01*
X30656750Y88906420D01*
X30655120Y88834030D01*
X30274120Y88834030D01*
X30272620Y88906420D01*
X30260580Y89028340D01*
X30250050Y89077870D01*
X30236510Y89119780D01*
X30219960Y89154070D01*
X30200400Y89180740D01*
X30177830Y89199790D01*
X30152260Y89211220D01*
X30123670Y89215030D01*
X30817570Y89215030D01*
X30786710Y89211220D01*
G37*
%TD.AperFunction*%
%TD*%
%TA.AperFunction,Conductor*%
%TO.N,NetIC2_6*%
G36*
X41054490Y92552870D02*
G01*
X41095390Y92519210D01*
X41137700Y92489510D01*
X41181400Y92463770D01*
X41226500Y92441990D01*
X41272990Y92424170D01*
X41320870Y92410310D01*
X41370160Y92400410D01*
X41420830Y92394470D01*
X41472910Y92392490D01*
X41472910Y92011490D01*
X41420830Y92009510D01*
X41370160Y92003570D01*
X41320870Y91993670D01*
X41272990Y91979810D01*
X41226500Y91961990D01*
X41181400Y91940210D01*
X41137700Y91914470D01*
X41095390Y91884770D01*
X41054490Y91851110D01*
X41014970Y91813490D01*
X41014970Y92590490D01*
X41054490Y92552870D01*
G37*
%TD.AperFunction*%
%TD*%
%TA.AperFunction,Conductor*%
%TO.N,NetC1_2*%
G36*
X32909370Y83529790D02*
G01*
X32920890Y83497410D01*
X32940090Y83468830D01*
X32966980Y83444070D01*
X33001540Y83423110D01*
X33043790Y83405970D01*
X33093710Y83392630D01*
X33151320Y83383110D01*
X33216610Y83377390D01*
X33289580Y83375490D01*
X33289580Y82994490D01*
X33216610Y82992580D01*
X33151320Y82986870D01*
X33093710Y82977340D01*
X33043790Y82964010D01*
X33001540Y82946860D01*
X32966980Y82925910D01*
X32940090Y82901140D01*
X32920890Y82872570D01*
X32909370Y82840180D01*
X32905530Y82803990D01*
X32905530Y83565990D01*
X32909370Y83529790D01*
G37*
%TD.AperFunction*%
%TD*%
%TA.AperFunction,Conductor*%
%TO.N,Voltage_IN*%
G36*
X34676800Y94919550D02*
G01*
X34810720Y94804330D01*
X34869500Y94761900D01*
X34922840Y94729600D01*
X34970720Y94707410D01*
X35013160Y94695350D01*
X35050140Y94693410D01*
X35081680Y94701590D01*
X35107770Y94719890D01*
X34604720Y94216840D01*
X34623020Y94242930D01*
X34631210Y94274470D01*
X34629270Y94311460D01*
X34617200Y94353890D01*
X34595020Y94401780D01*
X34562710Y94455110D01*
X34520280Y94513900D01*
X34467730Y94578130D01*
X34332270Y94722940D01*
X34601670Y94992350D01*
X34676800Y94919550D01*
G37*
%TD.AperFunction*%
%TD*%
%TA.AperFunction,Conductor*%
%TO.N,GND*%
G36*
X72582500Y74818780D02*
G01*
X72505620Y74786940D01*
X13908490Y74786940D01*
X13908490Y79863990D01*
X14641630Y79863990D01*
X14641630Y78655990D01*
X16049630Y78655990D01*
X16049630Y78800780D01*
X18194420Y78800780D01*
X18194420Y77596990D01*
X18228920Y77423550D01*
X18327160Y77276520D01*
X19216150Y76387530D01*
X19216160Y76387520D01*
X19363190Y76289280D01*
X19536620Y76254780D01*
X19536640Y76254780D01*
X26775620Y76254780D01*
X26949060Y76289280D01*
X27096090Y76387520D01*
X28219810Y77511240D01*
X28558040Y77849470D01*
X28650910Y77911520D01*
X28724050Y78020990D01*
X29003620Y78020990D01*
X29003620Y78311990D01*
X31308870Y78311990D01*
X31370920Y78080410D01*
X31493230Y77868570D01*
X31666190Y77695600D01*
X31878030Y77573300D01*
X32109610Y77511250D01*
X32109610Y78311990D01*
X32363610Y78311990D01*
X32363610Y77511240D01*
X32595190Y77573300D01*
X32807030Y77695600D01*
X32876670Y77765240D01*
X32980000Y77868570D01*
X33102300Y78080410D01*
X33164360Y78311990D01*
X32363610Y78311990D01*
X32109610Y78311990D01*
X31308870Y78311990D01*
X29003620Y78311990D01*
X29003620Y78565990D01*
X31308870Y78565990D01*
X32109610Y78565990D01*
X32109610Y79366730D01*
X32363610Y79366730D01*
X32363610Y78565990D01*
X33164360Y78565990D01*
X51501870Y78565990D01*
X51563920Y78334410D01*
X51686230Y78122570D01*
X51859190Y77949600D01*
X52071030Y77827300D01*
X52302610Y77765250D01*
X52302610Y78565990D01*
X52556610Y78565990D01*
X52556610Y77765240D01*
X52788190Y77827300D01*
X53000030Y77949600D01*
X53173000Y78122570D01*
X53295300Y78334410D01*
X53357360Y78565990D01*
X52556610Y78565990D01*
X52302610Y78565990D01*
X51501870Y78565990D01*
X33164360Y78565990D01*
X33102300Y78797570D01*
X32980000Y79009410D01*
X32807030Y79182370D01*
X32595190Y79304680D01*
X32363610Y79366730D01*
X32109610Y79366730D01*
X31878030Y79304680D01*
X31666190Y79182370D01*
X31493230Y79009410D01*
X31370920Y78797570D01*
X31308870Y78565990D01*
X29003620Y78565990D01*
X29003620Y79228990D01*
X27595620Y79228990D01*
X27595620Y78168920D01*
X26587900Y77161190D01*
X19724350Y77161190D01*
X19100830Y77784710D01*
X19100830Y78829500D01*
X19144360Y78854630D01*
X19294980Y79005250D01*
X19401490Y79189730D01*
X19456620Y79395480D01*
X25458620Y79395480D01*
X25513760Y79189730D01*
X25620260Y79005250D01*
X25770890Y78854630D01*
X25955360Y78748120D01*
X26161120Y78692990D01*
X26374130Y78692990D01*
X26579890Y78748120D01*
X26764360Y78854630D01*
X26914980Y79005250D01*
X27021490Y79189730D01*
X27076620Y79395480D01*
X39809620Y79395480D01*
X39864760Y79189730D01*
X39971260Y79005250D01*
X40121890Y78854630D01*
X40306360Y78748120D01*
X40512120Y78692990D01*
X40725130Y78692990D01*
X40930890Y78748120D01*
X41115360Y78854630D01*
X41265980Y79005250D01*
X41372490Y79189730D01*
X41427620Y79395480D01*
X41427620Y79608500D01*
X41372490Y79814250D01*
X41265980Y79998730D01*
X41115360Y80149350D01*
X40930890Y80255850D01*
X40725130Y80310990D01*
X40512120Y80310990D01*
X40306360Y80255850D01*
X40121890Y80149350D01*
X39971260Y79998730D01*
X39864760Y79814250D01*
X39809620Y79608500D01*
X39809620Y79395480D01*
X27076620Y79395480D01*
X27076620Y79520990D01*
X27595620Y79520990D01*
X29003620Y79520990D01*
X29003620Y79608500D01*
X29003620Y79680990D01*
X29003620Y80728990D01*
X28752830Y80728990D01*
X28752830Y92939260D01*
X29117620Y93304060D01*
X29244630Y93251450D01*
X29244630Y91571990D01*
X30017420Y91571990D01*
X30017420Y90365980D01*
X29866620Y90365980D01*
X29866620Y88957990D01*
X30011420Y88957990D01*
X30011420Y81921320D01*
X29912770Y81864370D01*
X29747250Y81698850D01*
X29630210Y81496130D01*
X29569620Y81270030D01*
X29569620Y81035950D01*
X29630210Y80809850D01*
X29747250Y80607130D01*
X29912770Y80441610D01*
X30115480Y80324570D01*
X30341590Y80263990D01*
X30575660Y80263990D01*
X30801770Y80324570D01*
X30859653Y80357990D01*
X35704630Y80357990D01*
X35704630Y79680990D01*
X36681620Y79680990D01*
X36681620Y80357990D01*
X36935620Y80357990D01*
X36935620Y79680990D01*
X37912620Y79680990D01*
X37912620Y80357990D01*
X36935620Y80357990D01*
X36681620Y80357990D01*
X35704630Y80357990D01*
X30859653Y80357990D01*
X31004480Y80441610D01*
X31170000Y80607130D01*
X31172806Y80611990D01*
X31287040Y80809850D01*
X31347620Y81035950D01*
X31347620Y81270030D01*
X31342540Y81288990D01*
X35704630Y81288990D01*
X35704630Y80611990D01*
X36681620Y80611990D01*
X36681620Y81288990D01*
X36935620Y81288990D01*
X36935620Y80611990D01*
X37912620Y80611990D01*
X37912620Y81288990D01*
X36935620Y81288990D01*
X36681620Y81288990D01*
X35704630Y81288990D01*
X31342540Y81288990D01*
X31287040Y81496130D01*
X31170000Y81698850D01*
X31004480Y81864370D01*
X30917830Y81914390D01*
X30917830Y82509990D01*
X31307620Y82509990D01*
X33165620Y82509990D01*
X33165620Y82731780D01*
X35704630Y82731780D01*
X35704630Y82380990D01*
X37912620Y82380990D01*
X37912620Y83988990D01*
X35704630Y83988990D01*
X35704630Y83638190D01*
X33165620Y83638190D01*
X33165620Y84367990D01*
X32689830Y84367990D01*
X32689830Y85425260D01*
X33682560Y86417990D01*
X34249620Y86417990D01*
X34249620Y87825990D01*
X34541630Y87825990D01*
X34541630Y86417990D01*
X35749620Y86417990D01*
X35749620Y86668780D01*
X38144900Y86668780D01*
X38514420Y86299270D01*
X38514420Y82930990D01*
X38548920Y82757550D01*
X38647160Y82610520D01*
X39501600Y81756090D01*
X39501600Y81756080D01*
X39648630Y81657840D01*
X39822070Y81623330D01*
X39822080Y81623340D01*
X39926180Y81623340D01*
X39971260Y81545250D01*
X40121890Y81394630D01*
X40306360Y81288120D01*
X40512120Y81232990D01*
X40725130Y81232990D01*
X40930890Y81288120D01*
X41115360Y81394630D01*
X41265980Y81545250D01*
X41291120Y81588780D01*
X47566130Y81588780D01*
X47591260Y81545250D01*
X47741890Y81394630D01*
X47785420Y81369500D01*
X47785420Y80310990D01*
X47429620Y80310990D01*
X47429620Y78692990D01*
X49047620Y78692990D01*
X49047620Y78819990D01*
X51501870Y78819990D01*
X52302610Y78819990D01*
X52302610Y79620730D01*
X52556610Y79620730D01*
X52556610Y78819990D01*
X53357360Y78819990D01*
X53295300Y79051570D01*
X53173000Y79263410D01*
X53167930Y79268480D01*
X59875620Y79268480D01*
X59930760Y79062730D01*
X60037260Y78878250D01*
X60187890Y78727630D01*
X60372360Y78621120D01*
X60578120Y78565990D01*
X60791130Y78565990D01*
X60996890Y78621120D01*
X61181360Y78727630D01*
X61331980Y78878250D01*
X61438490Y79062730D01*
X61493620Y79268480D01*
X61493620Y79481500D01*
X61438490Y79687250D01*
X61331980Y79871730D01*
X61181360Y80022350D01*
X60996890Y80128850D01*
X60791130Y80183990D01*
X60578120Y80183990D01*
X60372360Y80128850D01*
X60187890Y80022350D01*
X60037260Y79871730D01*
X59930760Y79687250D01*
X59875620Y79481500D01*
X59875620Y79268480D01*
X53167930Y79268480D01*
X53000030Y79436370D01*
X52921865Y79481500D01*
X52788190Y79558680D01*
X52556610Y79620730D01*
X52302610Y79620730D01*
X52071030Y79558680D01*
X51859190Y79436370D01*
X51686230Y79263410D01*
X51563920Y79051570D01*
X51501870Y78819990D01*
X49047620Y78819990D01*
X49047620Y80141990D01*
X49047620Y80310990D01*
X48691830Y80310990D01*
X48691830Y81369500D01*
X48735360Y81394630D01*
X48885980Y81545250D01*
X48992490Y81729730D01*
X49047620Y81935480D01*
X49047620Y82148500D01*
X48992490Y82354250D01*
X48885980Y82538730D01*
X48735360Y82689350D01*
X48550890Y82795850D01*
X48345130Y82850990D01*
X48132120Y82850990D01*
X47926360Y82795850D01*
X47741890Y82689350D01*
X47591260Y82538730D01*
X47566130Y82495190D01*
X41291120Y82495190D01*
X41265980Y82538730D01*
X41115360Y82689350D01*
X40930890Y82795850D01*
X40725130Y82850990D01*
X40512120Y82850990D01*
X40306360Y82795850D01*
X40121890Y82689350D01*
X39986040Y82553500D01*
X39420830Y83118720D01*
X39420830Y84454990D01*
X39815110Y84454990D01*
X39864760Y84269730D01*
X39971260Y84085250D01*
X40121890Y83934630D01*
X40306360Y83828120D01*
X40491620Y83778480D01*
X40745620Y83778480D01*
X40930890Y83828120D01*
X41115360Y83934630D01*
X41265980Y84085250D01*
X41372490Y84269730D01*
X41422130Y84454990D01*
X47435110Y84454990D01*
X47484760Y84269730D01*
X47591260Y84085250D01*
X47741890Y83934630D01*
X47926360Y83828120D01*
X48111620Y83778480D01*
X48365620Y83778480D01*
X48550890Y83828120D01*
X48735360Y83934630D01*
X48885980Y84085250D01*
X48992490Y84269730D01*
X49042130Y84454990D01*
X48365620Y84454990D01*
X48365620Y83778480D01*
X48111620Y83778480D01*
X48111620Y84454990D01*
X47435110Y84454990D01*
X41422130Y84454990D01*
X40745620Y84454990D01*
X40745620Y83778480D01*
X40491620Y83778480D01*
X40491620Y84454990D01*
X39815110Y84454990D01*
X39420830Y84454990D01*
X39420830Y84708990D01*
X39815120Y84708990D01*
X40491620Y84708990D01*
X40491620Y85385500D01*
X40745620Y85385500D01*
X40745620Y84708990D01*
X41422130Y84708990D01*
X47435120Y84708990D01*
X48111620Y84708990D01*
X48111620Y85385500D01*
X48365620Y85385500D01*
X48365620Y84708990D01*
X49042130Y84708990D01*
X48992490Y84894250D01*
X48885980Y85078730D01*
X48735360Y85229350D01*
X48550890Y85335850D01*
X48365620Y85385500D01*
X48111620Y85385500D01*
X47926360Y85335850D01*
X47741890Y85229350D01*
X47591260Y85078730D01*
X47484760Y84894250D01*
X47435120Y84708990D01*
X41422130Y84708990D01*
X41372490Y84894250D01*
X41265980Y85078730D01*
X41115360Y85229350D01*
X40930890Y85335850D01*
X40745620Y85385500D01*
X40491620Y85385500D01*
X40306360Y85335850D01*
X40121890Y85229350D01*
X39971260Y85078730D01*
X39864760Y84894250D01*
X39815120Y84708990D01*
X39420830Y84708990D01*
X39420830Y86486990D01*
X39386330Y86660420D01*
X39288090Y86807460D01*
X39288080Y86807460D01*
X39080063Y87015480D01*
X39809620Y87015480D01*
X39864760Y86809730D01*
X39971260Y86625250D01*
X40121890Y86474630D01*
X40306360Y86368120D01*
X40512120Y86312990D01*
X40725130Y86312990D01*
X40930890Y86368120D01*
X41115360Y86474630D01*
X41265980Y86625250D01*
X41372490Y86809730D01*
X41422130Y86994990D01*
X47435110Y86994990D01*
X47484760Y86809730D01*
X47591260Y86625250D01*
X47741890Y86474630D01*
X47926360Y86368120D01*
X48111620Y86318480D01*
X48365620Y86318480D01*
X48550890Y86368120D01*
X48735360Y86474630D01*
X48885980Y86625250D01*
X48992490Y86809730D01*
X49042130Y86994990D01*
X48365620Y86994990D01*
X48365620Y86318480D01*
X48111620Y86318480D01*
X48111620Y86994990D01*
X47435110Y86994990D01*
X41422130Y86994990D01*
X41427620Y87015480D01*
X41427620Y87228500D01*
X41422130Y87248990D01*
X47435120Y87248990D01*
X48111620Y87248990D01*
X48111620Y87925500D01*
X48365620Y87925500D01*
X48365620Y87248990D01*
X49042130Y87248990D01*
X48992490Y87434250D01*
X48885980Y87618730D01*
X48735360Y87769350D01*
X48550890Y87875850D01*
X48365620Y87925500D01*
X48111620Y87925500D01*
X47926360Y87875850D01*
X47741890Y87769350D01*
X47591260Y87618730D01*
X47484760Y87434250D01*
X47435120Y87248990D01*
X41422130Y87248990D01*
X41372490Y87434250D01*
X41265980Y87618730D01*
X41115360Y87769350D01*
X40930890Y87875850D01*
X40725130Y87930990D01*
X40512120Y87930990D01*
X40306360Y87875850D01*
X40121890Y87769350D01*
X39971260Y87618730D01*
X39864760Y87434250D01*
X39809620Y87228500D01*
X39809620Y87015480D01*
X39080063Y87015480D01*
X38867047Y87228500D01*
X38653090Y87442460D01*
X38506060Y87540700D01*
X38332620Y87575200D01*
X35749620Y87575200D01*
X35749620Y87825990D01*
X34541630Y87825990D01*
X34249620Y87825990D01*
X34098830Y87825990D01*
X34098830Y87986980D01*
X34064330Y88160410D01*
X33966090Y88307440D01*
X33966080Y88307450D01*
X32574620Y89698910D01*
X32574620Y90365980D01*
X31366620Y90365980D01*
X31366620Y88957990D01*
X32033680Y88957990D01*
X33077960Y87913710D01*
X33041620Y87825990D01*
X33041630Y87825990D01*
X33041630Y87058920D01*
X31916160Y85933460D01*
X31817920Y85786430D01*
X31783420Y85612990D01*
X31783420Y84367990D01*
X31307620Y84367990D01*
X31307620Y82509990D01*
X30917830Y82509990D01*
X30917830Y84367990D01*
X30917830Y88957990D01*
X31074620Y88957990D01*
X31074620Y90365980D01*
X30923830Y90365980D01*
X30923830Y91571990D01*
X31652620Y91571990D01*
X31652620Y92095480D01*
X39809620Y92095480D01*
X39864760Y91889730D01*
X39971260Y91705250D01*
X40121890Y91554630D01*
X40165420Y91529500D01*
X40165420Y90334480D01*
X40121890Y90309350D01*
X39971260Y90158730D01*
X39864760Y89974250D01*
X39809620Y89768500D01*
X39809620Y89555480D01*
X39864760Y89349730D01*
X39971260Y89165250D01*
X40121890Y89014630D01*
X40306360Y88908120D01*
X40512120Y88852990D01*
X40725130Y88852990D01*
X40930890Y88908120D01*
X41115360Y89014630D01*
X41265980Y89165250D01*
X41372490Y89349730D01*
X41427620Y89555480D01*
X47429620Y89555480D01*
X47484760Y89349730D01*
X47591260Y89165250D01*
X47741890Y89014630D01*
X47926360Y88908120D01*
X48132120Y88852990D01*
X48345130Y88852990D01*
X48550890Y88908120D01*
X48735360Y89014630D01*
X48885980Y89165250D01*
X48911110Y89208780D01*
X50186620Y89208780D01*
X50186620Y88957990D01*
X50267920Y88957990D01*
X50267920Y82084980D01*
X50105770Y81991370D01*
X49940250Y81825850D01*
X49823210Y81623130D01*
X49762620Y81397030D01*
X49762620Y81162950D01*
X49823210Y80936850D01*
X49940250Y80734130D01*
X50105770Y80568610D01*
X50308480Y80451570D01*
X50534590Y80390990D01*
X50768660Y80390990D01*
X50994770Y80451570D01*
X51197480Y80568610D01*
X51363000Y80734130D01*
X51411994Y80818990D01*
X56151630Y80818990D01*
X56151630Y80141990D01*
X57128620Y80141990D01*
X57128620Y80818990D01*
X57382620Y80818990D01*
X57382620Y80141990D01*
X58359620Y80141990D01*
X58359620Y80818990D01*
X57382620Y80818990D01*
X57128620Y80818990D01*
X56151630Y80818990D01*
X51411994Y80818990D01*
X51480040Y80936850D01*
X51516517Y81072990D01*
X51540620Y81162950D01*
X51540620Y81397030D01*
X51480040Y81623130D01*
X51406798Y81749990D01*
X56151630Y81749990D01*
X56151630Y81072990D01*
X57128620Y81072990D01*
X57128620Y81749990D01*
X57382620Y81749990D01*
X57382620Y81072990D01*
X58359620Y81072990D01*
X58359620Y81749990D01*
X57382620Y81749990D01*
X57128620Y81749990D01*
X56151630Y81749990D01*
X51406798Y81749990D01*
X51363000Y81825850D01*
X51197480Y81991370D01*
X51174330Y82004730D01*
X51174330Y82763990D01*
X51500620Y82763990D01*
X53358620Y82763990D01*
X53358620Y83192780D01*
X56151630Y83192780D01*
X56151630Y82841990D01*
X58359620Y82841990D01*
X58359620Y84449990D01*
X56151630Y84449990D01*
X56151630Y84099190D01*
X53358620Y84099190D01*
X53358620Y84621990D01*
X52882830Y84621990D01*
X52882830Y85552260D01*
X53748560Y86417990D01*
X54315620Y86417990D01*
X54315620Y87825990D01*
X54607630Y87825990D01*
X54607630Y86417990D01*
X55815620Y86417990D01*
X55815620Y86668780D01*
X58337900Y86668780D01*
X58834420Y86172260D01*
X58834420Y82793670D01*
X58868920Y82620230D01*
X58967160Y82473200D01*
X59706350Y81734010D01*
X59853380Y81635770D01*
X59925760Y81621370D01*
X59930760Y81602730D01*
X60037260Y81418250D01*
X60187890Y81267630D01*
X60372360Y81161120D01*
X60578120Y81105990D01*
X60791130Y81105990D01*
X60996890Y81161120D01*
X61181360Y81267630D01*
X61331980Y81418250D01*
X61357120Y81461780D01*
X67632130Y81461780D01*
X67657260Y81418250D01*
X67807890Y81267630D01*
X67851420Y81242500D01*
X67851420Y80183990D01*
X67495620Y80183990D01*
X67495620Y78565990D01*
X69113620Y78565990D01*
X69113620Y80183990D01*
X68757830Y80183990D01*
X68757830Y81242500D01*
X68801360Y81267630D01*
X68951980Y81418250D01*
X69058490Y81602730D01*
X69113620Y81808480D01*
X69113620Y82021500D01*
X69058490Y82227250D01*
X68951980Y82411730D01*
X68801360Y82562350D01*
X68616890Y82668850D01*
X68411130Y82723990D01*
X68198120Y82723990D01*
X67992360Y82668850D01*
X67807890Y82562350D01*
X67657260Y82411730D01*
X67632130Y82368190D01*
X61357120Y82368190D01*
X61331980Y82411730D01*
X61181360Y82562350D01*
X60996890Y82668850D01*
X60791130Y82723990D01*
X60578120Y82723990D01*
X60372360Y82668850D01*
X60187890Y82562350D01*
X60173880Y82548340D01*
X59740830Y82981390D01*
X59740830Y84327990D01*
X59881110Y84327990D01*
X59930760Y84142730D01*
X60037260Y83958250D01*
X60187890Y83807630D01*
X60372360Y83701120D01*
X60557620Y83651480D01*
X60811620Y83651480D01*
X60996890Y83701120D01*
X61181360Y83807630D01*
X61331980Y83958250D01*
X61438490Y84142730D01*
X61488130Y84327990D01*
X67501110Y84327990D01*
X67550760Y84142730D01*
X67657260Y83958250D01*
X67807890Y83807630D01*
X67992360Y83701120D01*
X68177620Y83651480D01*
X68431620Y83651480D01*
X68616890Y83701120D01*
X68801360Y83807630D01*
X68951980Y83958250D01*
X69058490Y84142730D01*
X69108130Y84327990D01*
X68431620Y84327990D01*
X68431620Y83651480D01*
X68177620Y83651480D01*
X68177620Y84327990D01*
X67501110Y84327990D01*
X61488130Y84327990D01*
X60811620Y84327990D01*
X60811620Y83651480D01*
X60557620Y83651480D01*
X60557620Y84327990D01*
X59881110Y84327990D01*
X59740830Y84327990D01*
X59740830Y84581990D01*
X59881120Y84581990D01*
X60557620Y84581990D01*
X60557620Y85258500D01*
X60811620Y85258500D01*
X60811620Y84581990D01*
X61488130Y84581990D01*
X67501120Y84581990D01*
X68177620Y84581990D01*
X68177620Y85258500D01*
X68431620Y85258500D01*
X68431620Y84581990D01*
X69108130Y84581990D01*
X69058490Y84767250D01*
X68951980Y84951730D01*
X68801360Y85102350D01*
X68616890Y85208850D01*
X68431620Y85258500D01*
X68177620Y85258500D01*
X67992360Y85208850D01*
X67807890Y85102350D01*
X67657260Y84951730D01*
X67550760Y84767250D01*
X67501120Y84581990D01*
X61488130Y84581990D01*
X61438490Y84767250D01*
X61331980Y84951730D01*
X61181360Y85102350D01*
X60996890Y85208850D01*
X60811620Y85258500D01*
X60557620Y85258500D01*
X60372360Y85208850D01*
X60187890Y85102350D01*
X60037260Y84951730D01*
X59930760Y84767250D01*
X59881120Y84581990D01*
X59740830Y84581990D01*
X59740830Y85588200D01*
X70186620Y85588200D01*
X70257430Y85323950D01*
X70394220Y85087030D01*
X70587660Y84893580D01*
X70824590Y84756790D01*
X71088840Y84685990D01*
X71362410Y84685990D01*
X71626660Y84756790D01*
X71863590Y84893580D01*
X72057030Y85087030D01*
X72193820Y85323950D01*
X72264620Y85588200D01*
X72264620Y85861770D01*
X72193820Y86126030D01*
X72057030Y86362950D01*
X71863590Y86556400D01*
X71626660Y86693180D01*
X71362410Y86763990D01*
X71088840Y86763990D01*
X70824590Y86693180D01*
X70587660Y86556400D01*
X70394220Y86362950D01*
X70257430Y86126030D01*
X70186620Y85861770D01*
X70186620Y85588200D01*
X59740830Y85588200D01*
X59740830Y85861770D01*
X59740830Y86359990D01*
X59706330Y86533420D01*
X59608090Y86680450D01*
X59608080Y86680460D01*
X59400063Y86888480D01*
X59875620Y86888480D01*
X59930760Y86682730D01*
X60037260Y86498250D01*
X60187890Y86347630D01*
X60372360Y86241120D01*
X60578120Y86185990D01*
X60791130Y86185990D01*
X60996890Y86241120D01*
X61181360Y86347630D01*
X61331980Y86498250D01*
X61438490Y86682730D01*
X61488130Y86867990D01*
X67501110Y86867990D01*
X67550760Y86682730D01*
X67657260Y86498250D01*
X67807890Y86347630D01*
X67992360Y86241120D01*
X68177620Y86191480D01*
X68431620Y86191480D01*
X68616890Y86241120D01*
X68801360Y86347630D01*
X68951980Y86498250D01*
X69058490Y86682730D01*
X69108130Y86867990D01*
X68431620Y86867990D01*
X68431620Y86191480D01*
X68177620Y86191480D01*
X68177620Y86867990D01*
X67501110Y86867990D01*
X61488130Y86867990D01*
X61493620Y86888480D01*
X61493620Y87101500D01*
X61488130Y87121990D01*
X67501120Y87121990D01*
X68177620Y87121990D01*
X68177620Y87798500D01*
X68431620Y87798500D01*
X68431620Y87121990D01*
X69108130Y87121990D01*
X69058490Y87307250D01*
X68951980Y87491730D01*
X68801360Y87642350D01*
X68616890Y87748850D01*
X68431620Y87798500D01*
X68177620Y87798500D01*
X67992360Y87748850D01*
X67807890Y87642350D01*
X67657260Y87491730D01*
X67550760Y87307250D01*
X67501120Y87121990D01*
X61488130Y87121990D01*
X61438490Y87307250D01*
X61331980Y87491730D01*
X61181360Y87642350D01*
X60996890Y87748850D01*
X60791130Y87803990D01*
X60578120Y87803990D01*
X60372360Y87748850D01*
X60187890Y87642350D01*
X60037260Y87491730D01*
X59930760Y87307250D01*
X59875620Y87101500D01*
X59875620Y86888480D01*
X59400063Y86888480D01*
X59187046Y87101500D01*
X58846090Y87442460D01*
X58699060Y87540700D01*
X58525620Y87575200D01*
X55815620Y87575200D01*
X55815620Y87825990D01*
X54607630Y87825990D01*
X54315620Y87825990D01*
X54164830Y87825990D01*
X54164830Y88128200D01*
X54164830Y88137990D01*
X70186620Y88137990D01*
X70186620Y88128200D01*
X70257430Y87863950D01*
X70394220Y87627030D01*
X70587660Y87433580D01*
X70824590Y87296790D01*
X71088840Y87225990D01*
X71098620Y87225990D01*
X71352620Y87225990D01*
X71362410Y87225990D01*
X71626660Y87296790D01*
X71863590Y87433580D01*
X72057030Y87627030D01*
X72193820Y87863950D01*
X72264620Y88128200D01*
X72264620Y88137990D01*
X71352620Y88137990D01*
X71352620Y87225990D01*
X71098620Y87225990D01*
X71098620Y88137990D01*
X70186620Y88137990D01*
X54164830Y88137990D01*
X54164830Y88143490D01*
X54130330Y88316930D01*
X54080178Y88391990D01*
X70186620Y88391990D01*
X71098620Y88391990D01*
X71352620Y88391990D01*
X72264620Y88391990D01*
X72264620Y88401770D01*
X72193820Y88666030D01*
X72057030Y88902950D01*
X71863590Y89096400D01*
X71626660Y89233180D01*
X71362410Y89303990D01*
X71352620Y89303990D01*
X71352620Y88391990D01*
X71098620Y88391990D01*
X71098620Y89303990D01*
X71088840Y89303990D01*
X70824590Y89233180D01*
X70587660Y89096400D01*
X70394220Y88902950D01*
X70257430Y88666030D01*
X70186620Y88401770D01*
X70186620Y88391990D01*
X54080178Y88391990D01*
X54073643Y88401770D01*
X54032090Y88463960D01*
X54032080Y88463960D01*
X53402600Y89093450D01*
X53395040Y89098510D01*
X52894620Y89598920D01*
X52894620Y90365980D01*
X51686620Y90365980D01*
X51686620Y88957990D01*
X52253690Y88957990D01*
X52759160Y88452520D01*
X52766720Y88447470D01*
X53258420Y87955770D01*
X53258420Y87825990D01*
X53107630Y87825990D01*
X53107630Y87058920D01*
X52109160Y86060460D01*
X52010920Y85913430D01*
X51976420Y85739990D01*
X51976420Y84621990D01*
X51500620Y84621990D01*
X51500620Y82763990D01*
X51174330Y82763990D01*
X51174330Y84621990D01*
X51174330Y88957990D01*
X51394620Y88957990D01*
X51394620Y90365980D01*
X50186620Y90365980D01*
X50186620Y90115190D01*
X48911120Y90115190D01*
X48885980Y90158730D01*
X48735360Y90309350D01*
X48550890Y90415850D01*
X48345130Y90470990D01*
X48132120Y90470990D01*
X47926360Y90415850D01*
X47741890Y90309350D01*
X47591260Y90158730D01*
X47484760Y89974250D01*
X47429620Y89768500D01*
X47429620Y89555480D01*
X41427620Y89555480D01*
X41427620Y89768500D01*
X41372490Y89974250D01*
X41265980Y90158730D01*
X41115360Y90309350D01*
X41071830Y90334480D01*
X41071830Y91529500D01*
X41115360Y91554630D01*
X41265980Y91705250D01*
X41291120Y91748780D01*
X47566130Y91748780D01*
X47591260Y91705250D01*
X47741890Y91554630D01*
X47926360Y91448120D01*
X48132120Y91392990D01*
X48345130Y91392990D01*
X48550890Y91448120D01*
X48735360Y91554630D01*
X48885980Y91705250D01*
X48992490Y91889730D01*
X49013591Y91968480D01*
X59875620Y91968480D01*
X59930760Y91762730D01*
X60037260Y91578250D01*
X60187890Y91427630D01*
X60231420Y91402500D01*
X60231420Y90207480D01*
X60187890Y90182350D01*
X60037260Y90031730D01*
X59930760Y89847250D01*
X59875620Y89641500D01*
X59875620Y89428480D01*
X59930760Y89222730D01*
X60037260Y89038250D01*
X60187890Y88887630D01*
X60372360Y88781120D01*
X60578120Y88725990D01*
X60791130Y88725990D01*
X60996890Y88781120D01*
X61181360Y88887630D01*
X61331980Y89038250D01*
X61438490Y89222730D01*
X61493620Y89428480D01*
X67495620Y89428480D01*
X67550760Y89222730D01*
X67657260Y89038250D01*
X67807890Y88887630D01*
X67992360Y88781120D01*
X68198120Y88725990D01*
X68411130Y88725990D01*
X68616890Y88781120D01*
X68801360Y88887630D01*
X68951980Y89038250D01*
X69058490Y89222730D01*
X69113620Y89428480D01*
X69113620Y89641500D01*
X69058490Y89847250D01*
X68951980Y90031730D01*
X68801360Y90182350D01*
X68616890Y90288850D01*
X68411130Y90343990D01*
X68198120Y90343990D01*
X67992360Y90288850D01*
X67807890Y90182350D01*
X67657260Y90031730D01*
X67550760Y89847250D01*
X67495620Y89641500D01*
X67495620Y89428480D01*
X61493620Y89428480D01*
X61493620Y89641500D01*
X61438490Y89847250D01*
X61331980Y90031730D01*
X61181360Y90182350D01*
X61137830Y90207480D01*
X61137830Y91402500D01*
X61181360Y91427630D01*
X61331980Y91578250D01*
X61357120Y91621780D01*
X67632130Y91621780D01*
X67657260Y91578250D01*
X67807890Y91427630D01*
X67992360Y91321120D01*
X68198120Y91265990D01*
X68411130Y91265990D01*
X68616890Y91321120D01*
X68801360Y91427630D01*
X68951980Y91578250D01*
X69058490Y91762730D01*
X69113620Y91968480D01*
X69113620Y92181500D01*
X69058490Y92387250D01*
X68951980Y92571730D01*
X68801360Y92722350D01*
X68616890Y92828850D01*
X68411130Y92883990D01*
X68198120Y92883990D01*
X67992360Y92828850D01*
X67807890Y92722350D01*
X67657260Y92571730D01*
X67632130Y92528190D01*
X61357120Y92528190D01*
X61331980Y92571730D01*
X61181360Y92722350D01*
X60996890Y92828850D01*
X60791130Y92883990D01*
X60578120Y92883990D01*
X60372360Y92828850D01*
X60187890Y92722350D01*
X60037260Y92571730D01*
X59930760Y92387250D01*
X59875620Y92181500D01*
X59875620Y91968480D01*
X49013591Y91968480D01*
X49047620Y92095480D01*
X49047620Y92181500D01*
X49047620Y92308500D01*
X48992490Y92514250D01*
X48885980Y92698730D01*
X48735360Y92849350D01*
X48550890Y92955850D01*
X48345130Y93010990D01*
X48132120Y93010990D01*
X47926360Y92955850D01*
X47741890Y92849350D01*
X47591260Y92698730D01*
X47566130Y92655190D01*
X41291120Y92655190D01*
X41265980Y92698730D01*
X41115360Y92849350D01*
X40930890Y92955850D01*
X40725130Y93010990D01*
X40512120Y93010990D01*
X40306360Y92955850D01*
X40121890Y92849350D01*
X39971260Y92698730D01*
X39864760Y92514250D01*
X39809620Y92308500D01*
X39809620Y92095480D01*
X31652620Y92095480D01*
X31652620Y92308500D01*
X31652620Y93379990D01*
X29373160Y93379990D01*
X29320560Y93506990D01*
X29885560Y94071990D01*
X31652620Y94071990D01*
X31652620Y94522780D01*
X34160900Y94522780D01*
X34344630Y94339050D01*
X34344630Y92471990D01*
X36752620Y92471990D01*
X36752620Y94339050D01*
X37049048Y94635480D01*
X39809620Y94635480D01*
X39864760Y94429730D01*
X39971260Y94245250D01*
X40121890Y94094630D01*
X40306360Y93988120D01*
X40512120Y93932990D01*
X40725130Y93932990D01*
X40930890Y93988120D01*
X41115360Y94094630D01*
X41265980Y94245250D01*
X41291120Y94288780D01*
X47566130Y94288780D01*
X47591260Y94245250D01*
X47741890Y94094630D01*
X47926360Y93988120D01*
X48132120Y93932990D01*
X48345130Y93932990D01*
X48550890Y93988120D01*
X48735360Y94094630D01*
X48885980Y94245250D01*
X48992490Y94429730D01*
X49013591Y94508480D01*
X59875620Y94508480D01*
X59930760Y94302730D01*
X60037260Y94118250D01*
X60187890Y93967630D01*
X60372360Y93861120D01*
X60578120Y93805990D01*
X60791130Y93805990D01*
X60996890Y93861120D01*
X61077700Y93907780D01*
X67911540Y93907780D01*
X67992360Y93861120D01*
X68198120Y93805990D01*
X68411130Y93805990D01*
X68616890Y93861120D01*
X68801360Y93967630D01*
X68951980Y94118250D01*
X69058490Y94302730D01*
X69113620Y94508480D01*
X69113620Y94721500D01*
X69058490Y94927250D01*
X68951980Y95111730D01*
X68801360Y95262350D01*
X68616890Y95368850D01*
X68411130Y95423990D01*
X68198120Y95423990D01*
X67992360Y95368850D01*
X67807890Y95262350D01*
X67657260Y95111730D01*
X67550760Y94927250D01*
X67520460Y94814190D01*
X61468780Y94814190D01*
X61438490Y94927250D01*
X61331980Y95111730D01*
X61181360Y95262350D01*
X60996890Y95368850D01*
X60791130Y95423990D01*
X60578120Y95423990D01*
X60372360Y95368850D01*
X60187890Y95262350D01*
X60037260Y95111730D01*
X59930760Y94927250D01*
X59875620Y94721500D01*
X59875620Y94508480D01*
X49013591Y94508480D01*
X49047620Y94635480D01*
X49047620Y94721500D01*
X49047620Y94848500D01*
X48992490Y95054250D01*
X48885980Y95238730D01*
X48735360Y95389350D01*
X48550890Y95495850D01*
X48345130Y95550990D01*
X48132120Y95550990D01*
X47926360Y95495850D01*
X47741890Y95389350D01*
X47591260Y95238730D01*
X47566130Y95195190D01*
X41291120Y95195190D01*
X41265980Y95238730D01*
X41115360Y95389350D01*
X40930890Y95495850D01*
X40725130Y95550990D01*
X40512120Y95550990D01*
X40306360Y95495850D01*
X40121890Y95389350D01*
X39971260Y95238730D01*
X39864760Y95054250D01*
X39809620Y94848500D01*
X39809620Y94635480D01*
X37049048Y94635480D01*
X37262067Y94848500D01*
X38526080Y96112520D01*
X38526090Y96112520D01*
X38624330Y96259550D01*
X38658830Y96432990D01*
X38658830Y97498460D01*
X38837440Y97601580D01*
X39029030Y97793170D01*
X39164500Y98027810D01*
X39234620Y98289520D01*
X49876620Y98289520D01*
X49946750Y98027810D01*
X50082220Y97793170D01*
X50273800Y97601580D01*
X50508440Y97466110D01*
X50770150Y97395990D01*
X51041090Y97395990D01*
X51302800Y97466110D01*
X51537440Y97601580D01*
X51729030Y97793170D01*
X51864500Y98027810D01*
X51934620Y98289520D01*
X51934620Y98297990D01*
X52416620Y98297990D01*
X52416620Y98289520D01*
X52486750Y98027810D01*
X52622220Y97793170D01*
X52813800Y97601580D01*
X53048440Y97466110D01*
X53310150Y97395990D01*
X53318620Y97395990D01*
X53572620Y97395990D01*
X53581090Y97395990D01*
X53842800Y97466110D01*
X54077440Y97601580D01*
X54269030Y97793170D01*
X54404500Y98027810D01*
X54474620Y98289520D01*
X57496620Y98289520D01*
X57566750Y98027810D01*
X57702220Y97793170D01*
X57893800Y97601580D01*
X58128440Y97466110D01*
X58390150Y97395990D01*
X58661090Y97395990D01*
X58922800Y97466110D01*
X59157440Y97601580D01*
X59349030Y97793170D01*
X59484500Y98027810D01*
X59554620Y98289520D01*
X59554620Y98297990D01*
X60036620Y98297990D01*
X60036620Y98289520D01*
X60106750Y98027810D01*
X60242220Y97793170D01*
X60433800Y97601580D01*
X60668440Y97466110D01*
X60930150Y97395990D01*
X60938620Y97395990D01*
X61192620Y97395990D01*
X61201090Y97395990D01*
X61462800Y97466110D01*
X61697440Y97601580D01*
X61889030Y97793170D01*
X62024500Y98027810D01*
X62094620Y98289520D01*
X62094620Y98297990D01*
X61192620Y98297990D01*
X61192620Y97395990D01*
X60938620Y97395990D01*
X60938620Y98297990D01*
X60036620Y98297990D01*
X59554620Y98297990D01*
X59554620Y98551990D01*
X60036620Y98551990D01*
X60938620Y98551990D01*
X61192620Y98551990D01*
X62094620Y98551990D01*
X62094620Y98560460D01*
X62024500Y98822170D01*
X61889030Y99056810D01*
X61697440Y99248390D01*
X61462800Y99383860D01*
X61201090Y99453990D01*
X61192620Y99453990D01*
X61192620Y98551990D01*
X60938620Y98551990D01*
X60938620Y99453990D01*
X60930150Y99453990D01*
X60668440Y99383860D01*
X60433800Y99248390D01*
X60242220Y99056810D01*
X60106750Y98822170D01*
X60036620Y98560460D01*
X60036620Y98551990D01*
X59554620Y98551990D01*
X59554620Y98560460D01*
X59484500Y98822170D01*
X59349030Y99056810D01*
X59157440Y99248390D01*
X58922800Y99383860D01*
X58661090Y99453990D01*
X58390150Y99453990D01*
X58128440Y99383860D01*
X57893800Y99248390D01*
X57702220Y99056810D01*
X57566750Y98822170D01*
X57496620Y98560460D01*
X57496620Y98289520D01*
X54474620Y98289520D01*
X54474620Y98297990D01*
X53572620Y98297990D01*
X53572620Y97395990D01*
X53318620Y97395990D01*
X53318620Y98297990D01*
X52416620Y98297990D01*
X51934620Y98297990D01*
X51934620Y98551990D01*
X52416620Y98551990D01*
X53318620Y98551990D01*
X53572620Y98551990D01*
X54474620Y98551990D01*
X54474620Y98560460D01*
X54404500Y98822170D01*
X54269030Y99056810D01*
X54077440Y99248390D01*
X53842800Y99383860D01*
X53581090Y99453990D01*
X53572620Y99453990D01*
X53572620Y98551990D01*
X53318620Y98551990D01*
X53318620Y99453990D01*
X53310150Y99453990D01*
X53048440Y99383860D01*
X52813800Y99248390D01*
X52622220Y99056810D01*
X52486750Y98822170D01*
X52416620Y98560460D01*
X52416620Y98551990D01*
X51934620Y98551990D01*
X51934620Y98560460D01*
X51864500Y98822170D01*
X51729030Y99056810D01*
X51537440Y99248390D01*
X51302800Y99383860D01*
X51041090Y99453990D01*
X50770150Y99453990D01*
X50508440Y99383860D01*
X50273800Y99248390D01*
X50082220Y99056810D01*
X49946750Y98822170D01*
X49876620Y98560460D01*
X49876620Y98289520D01*
X39234620Y98289520D01*
X39234620Y98560460D01*
X39164500Y98822170D01*
X39029030Y99056810D01*
X38837440Y99248390D01*
X38602800Y99383860D01*
X38341090Y99453990D01*
X38070150Y99453990D01*
X37808440Y99383860D01*
X37573800Y99248390D01*
X37382220Y99056810D01*
X37246750Y98822170D01*
X37176620Y98560460D01*
X37176620Y98289520D01*
X37246750Y98027810D01*
X37382220Y97793170D01*
X37573800Y97601580D01*
X37752420Y97498460D01*
X37752420Y96620710D01*
X36111690Y94979990D01*
X34985560Y94979990D01*
X34669090Y95296450D01*
X34522060Y95394700D01*
X34348620Y95429190D01*
X31652620Y95429190D01*
X31652620Y95879990D01*
X29244630Y95879990D01*
X29244630Y94712920D01*
X27979150Y93447450D01*
X27880910Y93300420D01*
X27846410Y93126980D01*
X27846410Y80728990D01*
X27595620Y80728990D01*
X27595620Y79520990D01*
X27076620Y79520990D01*
X27076620Y79608500D01*
X27021490Y79814250D01*
X26914980Y79998730D01*
X26764360Y80149350D01*
X26579890Y80255850D01*
X26374130Y80310990D01*
X26161120Y80310990D01*
X25955360Y80255850D01*
X25770890Y80149350D01*
X25620260Y79998730D01*
X25513760Y79814250D01*
X25458620Y79608500D01*
X25458620Y79395480D01*
X19456620Y79395480D01*
X19456620Y79608500D01*
X19401490Y79814250D01*
X19294980Y79998730D01*
X19144360Y80149350D01*
X18959890Y80255850D01*
X18754130Y80310990D01*
X18541120Y80310990D01*
X18335360Y80255850D01*
X18150890Y80149350D01*
X18000260Y79998730D01*
X17893760Y79814250D01*
X17865070Y79707190D01*
X16049630Y79707190D01*
X16049630Y79863990D01*
X14641630Y79863990D01*
X13908490Y79863990D01*
X13908490Y80155990D01*
X13908490Y80632990D01*
X14641630Y80632990D01*
X14641630Y80155990D01*
X15218630Y80155990D01*
X15218630Y80632990D01*
X15472630Y80632990D01*
X15472630Y80155990D01*
X16049630Y80155990D01*
X16049630Y80632990D01*
X15472630Y80632990D01*
X15218630Y80632990D01*
X14641630Y80632990D01*
X13908490Y80632990D01*
X13908490Y80728990D01*
X13908490Y80886990D01*
X13908490Y81363990D01*
X14641630Y81363990D01*
X14641630Y80886990D01*
X15218630Y80886990D01*
X15218630Y81363990D01*
X15472630Y81363990D01*
X15472630Y80886990D01*
X16049630Y80886990D01*
X16049630Y81363990D01*
X15472630Y81363990D01*
X15218630Y81363990D01*
X14641630Y81363990D01*
X13908490Y81363990D01*
X13908490Y84475480D01*
X17838620Y84475480D01*
X17893760Y84269730D01*
X18000260Y84085250D01*
X18150890Y83934630D01*
X18335360Y83828120D01*
X18541120Y83772990D01*
X18754130Y83772990D01*
X18959890Y83828120D01*
X19144360Y83934630D01*
X19294980Y84085250D01*
X19401490Y84269730D01*
X19456620Y84475480D01*
X19456620Y84688500D01*
X19401490Y84894250D01*
X19294980Y85078730D01*
X19144360Y85229350D01*
X18959890Y85335850D01*
X18754130Y85390990D01*
X18541120Y85390990D01*
X18335360Y85335850D01*
X18150890Y85229350D01*
X18000260Y85078730D01*
X17893760Y84894250D01*
X17838620Y84688500D01*
X17838620Y84475480D01*
X13908490Y84475480D01*
X13908490Y85588200D01*
X13908490Y85597990D01*
X14306620Y85597990D01*
X14306620Y85588200D01*
X14377430Y85323950D01*
X14514220Y85087030D01*
X14707660Y84893580D01*
X14944590Y84756790D01*
X15208840Y84685990D01*
X15218630Y84685990D01*
X15472630Y84685990D01*
X15482410Y84685990D01*
X15491778Y84688500D01*
X15746660Y84756790D01*
X15983590Y84893580D01*
X16177030Y85087030D01*
X16313820Y85323950D01*
X16384620Y85588200D01*
X16384620Y85597990D01*
X15472630Y85597990D01*
X15472630Y84685990D01*
X15218630Y84685990D01*
X15218630Y85597990D01*
X14306620Y85597990D01*
X13908490Y85597990D01*
X13908490Y85851990D01*
X14306620Y85851990D01*
X15218630Y85851990D01*
X15472630Y85851990D01*
X16384620Y85851990D01*
X16384620Y85861770D01*
X16313820Y86126030D01*
X16177030Y86362950D01*
X15983590Y86556400D01*
X15746660Y86693180D01*
X15482410Y86763990D01*
X15472630Y86763990D01*
X15472630Y85851990D01*
X15218630Y85851990D01*
X15218630Y86763990D01*
X15208840Y86763990D01*
X14944590Y86693180D01*
X14707660Y86556400D01*
X14514220Y86362950D01*
X14377430Y86126030D01*
X14306620Y85861770D01*
X14306620Y85851990D01*
X13908490Y85851990D01*
X13908490Y85861770D01*
X13908490Y86994990D01*
X17844110Y86994990D01*
X17893760Y86809730D01*
X18000260Y86625250D01*
X18150890Y86474630D01*
X18335360Y86368120D01*
X18520620Y86318480D01*
X18774620Y86318480D01*
X18959890Y86368120D01*
X19144360Y86474630D01*
X19294980Y86625250D01*
X19401490Y86809730D01*
X19451130Y86994990D01*
X18774620Y86994990D01*
X18774620Y86318480D01*
X18520620Y86318480D01*
X18520620Y86994990D01*
X17844110Y86994990D01*
X13908490Y86994990D01*
X13908490Y88128200D01*
X14306620Y88128200D01*
X14377430Y87863950D01*
X14514220Y87627030D01*
X14707660Y87433580D01*
X14944590Y87296790D01*
X15208840Y87225990D01*
X15482410Y87225990D01*
X15568254Y87248990D01*
X17844110Y87248990D01*
X18520620Y87248990D01*
X18520620Y87925500D01*
X18774620Y87925500D01*
X18774620Y87248990D01*
X19451130Y87248990D01*
X19401490Y87434250D01*
X19294980Y87618730D01*
X19144360Y87769350D01*
X18959890Y87875850D01*
X18774620Y87925500D01*
X18520620Y87925500D01*
X18335360Y87875850D01*
X18150890Y87769350D01*
X18000260Y87618730D01*
X17893760Y87434250D01*
X17844110Y87248990D01*
X15568254Y87248990D01*
X15746660Y87296790D01*
X15983590Y87433580D01*
X16177030Y87627030D01*
X16313820Y87863950D01*
X16384620Y88128200D01*
X16384620Y88401770D01*
X16313820Y88666030D01*
X16177030Y88902950D01*
X15983590Y89096400D01*
X15746660Y89233180D01*
X15671830Y89253230D01*
X15671830Y89534990D01*
X17844110Y89534990D01*
X17893760Y89349730D01*
X18000260Y89165250D01*
X18150890Y89014630D01*
X18335360Y88908120D01*
X18520620Y88858480D01*
X18774620Y88858480D01*
X18959890Y88908120D01*
X19144360Y89014630D01*
X19294980Y89165250D01*
X19401490Y89349730D01*
X19451130Y89534990D01*
X18774620Y89534990D01*
X18774620Y88858480D01*
X18520620Y88858480D01*
X18520620Y89534990D01*
X17844110Y89534990D01*
X15671830Y89534990D01*
X15671830Y89788990D01*
X17844110Y89788990D01*
X18520620Y89788990D01*
X18520620Y90465500D01*
X18774620Y90465500D01*
X18774620Y89788990D01*
X19451130Y89788990D01*
X19401490Y89974250D01*
X19294980Y90158730D01*
X19144360Y90309350D01*
X18959890Y90415850D01*
X18774620Y90465500D01*
X18520620Y90465500D01*
X18335360Y90415850D01*
X18150890Y90309350D01*
X18000260Y90158730D01*
X17893760Y89974250D01*
X17844110Y89788990D01*
X15671830Y89788990D01*
X15671830Y91370990D01*
X15695620Y91370990D01*
X15695620Y92778990D01*
X15987620Y92778990D01*
X15987620Y91370990D01*
X17195620Y91370990D01*
X17195620Y91558280D01*
X18147230Y91558280D01*
X18150890Y91554630D01*
X18335360Y91448120D01*
X18541120Y91392990D01*
X18754130Y91392990D01*
X18959890Y91448120D01*
X19144360Y91554630D01*
X19294980Y91705250D01*
X19401490Y91889730D01*
X19456620Y92095480D01*
X19456620Y92308500D01*
X19401490Y92514250D01*
X19294980Y92698730D01*
X19144360Y92849350D01*
X18959890Y92955850D01*
X18754130Y93010990D01*
X18541120Y93010990D01*
X18335360Y92955850D01*
X18150890Y92849350D01*
X18000260Y92698730D01*
X17893760Y92514250D01*
X17880480Y92464690D01*
X17195620Y92464690D01*
X17195620Y92778990D01*
X15987620Y92778990D01*
X15695620Y92778990D01*
X14487620Y92778990D01*
X14487620Y91370990D01*
X14765420Y91370990D01*
X14765420Y89129740D01*
X14707660Y89096400D01*
X14514220Y88902950D01*
X14377430Y88666030D01*
X14306620Y88401770D01*
X14306620Y88128200D01*
X13908490Y88128200D01*
X13908490Y88401770D01*
X13908490Y93932990D01*
X17838620Y93932990D01*
X18815690Y93932990D01*
X19972420Y92776260D01*
X19972420Y83499710D01*
X19153210Y82680500D01*
X19144360Y82689350D01*
X18959890Y82795850D01*
X18754130Y82850990D01*
X18541120Y82850990D01*
X18335360Y82795850D01*
X18150890Y82689350D01*
X18000260Y82538730D01*
X17893760Y82354250D01*
X17838620Y82148500D01*
X17838620Y81935480D01*
X17893760Y81729730D01*
X18000260Y81545250D01*
X18150890Y81394630D01*
X18335360Y81288120D01*
X18541120Y81232990D01*
X18754130Y81232990D01*
X18959890Y81288120D01*
X19144360Y81394630D01*
X19294980Y81545250D01*
X19401490Y81729730D01*
X19407070Y81750540D01*
X19468550Y81762770D01*
X19615580Y81861010D01*
X19690050Y81935480D01*
X25458620Y81935480D01*
X25513760Y81729730D01*
X25620260Y81545250D01*
X25770890Y81394630D01*
X25955360Y81288120D01*
X26161120Y81232990D01*
X26374130Y81232990D01*
X26579890Y81288120D01*
X26764360Y81394630D01*
X26914980Y81545250D01*
X27021490Y81729730D01*
X27076620Y81935480D01*
X27076620Y82148500D01*
X27021490Y82354250D01*
X26914980Y82538730D01*
X26764360Y82689350D01*
X26579890Y82795850D01*
X26374130Y82850990D01*
X26161120Y82850990D01*
X25955360Y82795850D01*
X25770890Y82689350D01*
X25620260Y82538730D01*
X25513760Y82354250D01*
X25458620Y82148500D01*
X25458620Y81935480D01*
X19690050Y81935480D01*
X19903070Y82148500D01*
X20746090Y82991520D01*
X20844330Y83138550D01*
X20878830Y83311990D01*
X20878830Y83312000D01*
X20878830Y84475480D01*
X25458620Y84475480D01*
X25513760Y84269730D01*
X25620260Y84085250D01*
X25770890Y83934630D01*
X25955360Y83828120D01*
X26161120Y83772990D01*
X26374130Y83772990D01*
X26579890Y83828120D01*
X26764360Y83934630D01*
X26914980Y84085250D01*
X27021490Y84269730D01*
X27076620Y84475480D01*
X27076620Y84688500D01*
X27021490Y84894250D01*
X26914980Y85078730D01*
X26764360Y85229350D01*
X26579890Y85335850D01*
X26374130Y85390990D01*
X26161120Y85390990D01*
X25955360Y85335850D01*
X25770890Y85229350D01*
X25620260Y85078730D01*
X25513760Y84894250D01*
X25458620Y84688500D01*
X25458620Y84475480D01*
X20878830Y84475480D01*
X20878830Y84688500D01*
X20878830Y87015480D01*
X25458620Y87015480D01*
X25513760Y86809730D01*
X25620260Y86625250D01*
X25770890Y86474630D01*
X25955360Y86368120D01*
X26161120Y86312990D01*
X26374130Y86312990D01*
X26579890Y86368120D01*
X26764360Y86474630D01*
X26914980Y86625250D01*
X27021490Y86809730D01*
X27076620Y87015480D01*
X27076620Y87228500D01*
X27021490Y87434250D01*
X26914980Y87618730D01*
X26764360Y87769350D01*
X26579890Y87875850D01*
X26374130Y87930990D01*
X26161120Y87930990D01*
X25955360Y87875850D01*
X25770890Y87769350D01*
X25620260Y87618730D01*
X25513760Y87434250D01*
X25458620Y87228500D01*
X25458620Y87015480D01*
X20878830Y87015480D01*
X20878830Y87228500D01*
X20878830Y89555480D01*
X25458620Y89555480D01*
X25513760Y89349730D01*
X25620260Y89165250D01*
X25770890Y89014630D01*
X25955360Y88908120D01*
X26161120Y88852990D01*
X26374130Y88852990D01*
X26579890Y88908120D01*
X26764360Y89014630D01*
X26914980Y89165250D01*
X27021490Y89349730D01*
X27076620Y89555480D01*
X27076620Y89768500D01*
X27021490Y89974250D01*
X26914980Y90158730D01*
X26764360Y90309350D01*
X26579890Y90415850D01*
X26374130Y90470990D01*
X26161120Y90470990D01*
X25955360Y90415850D01*
X25770890Y90309350D01*
X25620260Y90158730D01*
X25513760Y89974250D01*
X25458620Y89768500D01*
X25458620Y89555480D01*
X20878830Y89555480D01*
X20878830Y89768500D01*
X20878830Y92095480D01*
X25458620Y92095480D01*
X25513760Y91889730D01*
X25620260Y91705250D01*
X25770890Y91554630D01*
X25955360Y91448120D01*
X26161120Y91392990D01*
X26374130Y91392990D01*
X26579890Y91448120D01*
X26764360Y91554630D01*
X26914980Y91705250D01*
X27021490Y91889730D01*
X27076620Y92095480D01*
X27076620Y92308500D01*
X27021490Y92514250D01*
X26914980Y92698730D01*
X26764360Y92849350D01*
X26579890Y92955850D01*
X26374130Y93010990D01*
X26161120Y93010990D01*
X25955360Y92955850D01*
X25770890Y92849350D01*
X25620260Y92698730D01*
X25513760Y92514250D01*
X25458620Y92308500D01*
X25458620Y92095480D01*
X20878830Y92095480D01*
X20878830Y92308500D01*
X20878830Y92963990D01*
X20844330Y93137420D01*
X20746090Y93284450D01*
X19456620Y94573920D01*
X19456620Y94635480D01*
X25458620Y94635480D01*
X25513760Y94429730D01*
X25620260Y94245250D01*
X25770890Y94094630D01*
X25955360Y93988120D01*
X26161120Y93932990D01*
X26374130Y93932990D01*
X26579890Y93988120D01*
X26764360Y94094630D01*
X26914980Y94245250D01*
X27021490Y94429730D01*
X27076620Y94635480D01*
X27076620Y94848500D01*
X27021490Y95054250D01*
X26914980Y95238730D01*
X26764360Y95389350D01*
X26579890Y95495850D01*
X26374130Y95550990D01*
X26161120Y95550990D01*
X25955360Y95495850D01*
X25770890Y95389350D01*
X25620260Y95238730D01*
X25513760Y95054250D01*
X25458620Y94848500D01*
X25458620Y94635480D01*
X19456620Y94635480D01*
X19456620Y94848500D01*
X19456620Y95550990D01*
X19049330Y95550990D01*
X19049330Y97466990D01*
X19148620Y97466990D01*
X19148620Y98874990D01*
X19440620Y98874990D01*
X19440620Y97466990D01*
X20648620Y97466990D01*
X20648620Y97844780D01*
X27192420Y97844780D01*
X27222220Y97793170D01*
X27413800Y97601580D01*
X27648440Y97466110D01*
X27910150Y97395990D01*
X28181090Y97395990D01*
X28442800Y97466110D01*
X28677440Y97601580D01*
X28869030Y97793170D01*
X29004500Y98027810D01*
X29074620Y98289520D01*
X29074620Y98297990D01*
X29556620Y98297990D01*
X29556620Y98289520D01*
X29626750Y98027810D01*
X29762220Y97793170D01*
X29953800Y97601580D01*
X30188440Y97466110D01*
X30450150Y97395990D01*
X30458620Y97395990D01*
X30712620Y97395990D01*
X30721090Y97395990D01*
X30982800Y97466110D01*
X31217440Y97601580D01*
X31409030Y97793170D01*
X31544500Y98027810D01*
X31614620Y98289520D01*
X31614620Y98297990D01*
X34636620Y98297990D01*
X34636620Y98289520D01*
X34706750Y98027810D01*
X34842220Y97793170D01*
X35033800Y97601580D01*
X35268440Y97466110D01*
X35530150Y97395990D01*
X35538620Y97395990D01*
X35792620Y97395990D01*
X35801090Y97395990D01*
X36062800Y97466110D01*
X36297440Y97601580D01*
X36489030Y97793170D01*
X36624500Y98027810D01*
X36694620Y98289520D01*
X36694620Y98297990D01*
X35792620Y98297990D01*
X35792620Y97395990D01*
X35538620Y97395990D01*
X35538620Y98297990D01*
X34636620Y98297990D01*
X31614620Y98297990D01*
X30712620Y98297990D01*
X30712620Y97395990D01*
X30458620Y97395990D01*
X30458620Y98297990D01*
X29556620Y98297990D01*
X29074620Y98297990D01*
X29074620Y98551990D01*
X29556620Y98551990D01*
X30458620Y98551990D01*
X30712620Y98551990D01*
X31614620Y98551990D01*
X34636620Y98551990D01*
X35538620Y98551990D01*
X35792620Y98551990D01*
X36694620Y98551990D01*
X36694620Y98560460D01*
X36624500Y98822170D01*
X36489030Y99056810D01*
X36297440Y99248390D01*
X36062800Y99383860D01*
X35801090Y99453990D01*
X35792620Y99453990D01*
X35792620Y98551990D01*
X35538620Y98551990D01*
X35538620Y99453990D01*
X35530150Y99453990D01*
X35268440Y99383860D01*
X35033800Y99248390D01*
X34842220Y99056810D01*
X34706750Y98822170D01*
X34636620Y98560460D01*
X34636620Y98551990D01*
X31614620Y98551990D01*
X31614620Y98560460D01*
X31544500Y98822170D01*
X31409030Y99056810D01*
X31217440Y99248390D01*
X30982800Y99383860D01*
X30721090Y99453990D01*
X30712620Y99453990D01*
X30712620Y98551990D01*
X30458620Y98551990D01*
X30458620Y99453990D01*
X30450150Y99453990D01*
X30188440Y99383860D01*
X29953800Y99248390D01*
X29762220Y99056810D01*
X29626750Y98822170D01*
X29556620Y98560460D01*
X29556620Y98551990D01*
X29074620Y98551990D01*
X29074620Y98560460D01*
X29004500Y98822170D01*
X28869030Y99056810D01*
X28677440Y99248390D01*
X28442800Y99383860D01*
X28181090Y99453990D01*
X27910150Y99453990D01*
X27648440Y99383860D01*
X27413800Y99248390D01*
X27222220Y99056810D01*
X27086750Y98822170D01*
X27067730Y98751190D01*
X20648620Y98751190D01*
X20648620Y98874990D01*
X19440620Y98874990D01*
X19148620Y98874990D01*
X17940630Y98874990D01*
X17940630Y97466990D01*
X18142920Y97466990D01*
X18142920Y95550990D01*
X17838620Y95550990D01*
X17838620Y93932990D01*
X13908490Y93932990D01*
X13908490Y95550990D01*
X13908490Y99710030D01*
X13908510Y99710030D01*
X72582500Y99710030D01*
X72582500Y74818780D01*
G37*
%TD.AperFunction*%
%TD*%
%TA.AperFunction,Conductor*%
%TO.N,NetIC1_7*%
G36*
X15796390Y79576070D02*
G01*
X15807820Y79548450D01*
X15826870Y79524090D01*
X15853540Y79502970D01*
X15887830Y79485100D01*
X15929740Y79470480D01*
X15979270Y79459110D01*
X16036420Y79450980D01*
X16101190Y79446110D01*
X16173580Y79444490D01*
X16173580Y79063490D01*
X16101190Y79061980D01*
X15979270Y79049950D01*
X15929740Y79039420D01*
X15887830Y79025870D01*
X15853540Y79009320D01*
X15826870Y78989770D01*
X15807820Y78967200D01*
X15796390Y78941620D01*
X15792580Y78913040D01*
X15792580Y79606940D01*
X15796390Y79576070D01*
G37*
%TD.AperFunction*%
%TD*%
%TA.AperFunction,Conductor*%
%TO.N,NetIC3_1*%
G36*
X68655500Y81479120D02*
G01*
X68621840Y81438220D01*
X68592140Y81395910D01*
X68566400Y81352210D01*
X68544620Y81307120D01*
X68526800Y81260630D01*
X68512940Y81212740D01*
X68503040Y81163460D01*
X68497110Y81112780D01*
X68495120Y81060700D01*
X68114120Y81060700D01*
X68112140Y81112780D01*
X68106200Y81163460D01*
X68096300Y81212740D01*
X68082440Y81260630D01*
X68064620Y81307120D01*
X68042840Y81352210D01*
X68017100Y81395910D01*
X67987400Y81438220D01*
X67953740Y81479120D01*
X67916120Y81518640D01*
X68693120Y81518640D01*
X68655500Y81479120D01*
G37*
%TD.AperFunction*%
%TD*%
%TA.AperFunction,Conductor*%
%TO.N,NetIC2_7*%
G36*
X41054490Y95092870D02*
G01*
X41095390Y95059210D01*
X41137700Y95029510D01*
X41181400Y95003770D01*
X41226500Y94981990D01*
X41272990Y94964170D01*
X41320870Y94950310D01*
X41370160Y94940410D01*
X41420830Y94934470D01*
X41472910Y94932490D01*
X41472910Y94551490D01*
X41420830Y94549510D01*
X41370160Y94543570D01*
X41320870Y94533670D01*
X41272990Y94519810D01*
X41226500Y94501990D01*
X41181400Y94480210D01*
X41137700Y94454470D01*
X41095390Y94424770D01*
X41054490Y94391110D01*
X41014970Y94353490D01*
X41014970Y95130490D01*
X41054490Y95092870D01*
G37*
%TD.AperFunction*%
%TD*%
%TA.AperFunction,Conductor*%
%TO.N,NetIC3_1*%
G36*
X55562390Y87466800D02*
G01*
X55573820Y87434410D01*
X55592870Y87405840D01*
X55619540Y87381070D01*
X55653830Y87360120D01*
X55695740Y87342970D01*
X55745270Y87329640D01*
X55802420Y87320110D01*
X55867190Y87314400D01*
X55939580Y87312490D01*
X55939580Y86931490D01*
X55867190Y86929590D01*
X55802420Y86923870D01*
X55745270Y86914350D01*
X55695740Y86901010D01*
X55653830Y86883870D01*
X55619540Y86862910D01*
X55592870Y86838150D01*
X55573820Y86809570D01*
X55562390Y86777190D01*
X55558580Y86740990D01*
X55558580Y87502990D01*
X55562390Y87466800D01*
G37*
%TD.AperFunction*%
%TD*%
%TA.AperFunction,Conductor*%
%TO.N,IN*%
G36*
X15438580Y91628040D02*
G01*
X15432980Y91624230D01*
X15427970Y91612800D01*
X15423560Y91593750D01*
X15419730Y91567080D01*
X15413840Y91490880D01*
X15409120Y91247040D01*
X15028120Y91247040D01*
X15026220Y91319830D01*
X15020500Y91384980D01*
X15010980Y91442490D01*
X14997640Y91492360D01*
X14980500Y91534590D01*
X14959540Y91569170D01*
X14934780Y91596110D01*
X14906200Y91615410D01*
X14873820Y91627070D01*
X14837620Y91631080D01*
X15438580Y91628040D01*
G37*
%TD.AperFunction*%
%TD*%
%TA.AperFunction,Conductor*%
%TO.N,Voltage_IN*%
G36*
X36764980Y94722940D02*
G01*
X36689550Y94644810D01*
X36571010Y94504720D01*
X36527900Y94442760D01*
X36495570Y94386180D01*
X36474020Y94334990D01*
X36463240Y94289190D01*
X36463240Y94248780D01*
X36474020Y94213760D01*
X36495570Y94184130D01*
X35956760Y94722940D01*
X35986390Y94701390D01*
X36021420Y94690610D01*
X36061830Y94690610D01*
X36107630Y94701390D01*
X36158810Y94722940D01*
X36215390Y94755270D01*
X36277350Y94798370D01*
X36344710Y94852260D01*
X36495570Y94992350D01*
X36764980Y94722940D01*
G37*
%TD.AperFunction*%
%TD*%
%TA.AperFunction,Conductor*%
%TO.N,NetIC2_5*%
G36*
X50911620Y82240320D02*
G01*
X50913940Y82185180D01*
X50920880Y82129890D01*
X50932450Y82074440D01*
X50948660Y82018850D01*
X50969490Y81963100D01*
X50994950Y81907200D01*
X51025040Y81851150D01*
X51059760Y81794950D01*
X51099110Y81738600D01*
X51143090Y81682100D01*
X50259430Y81779390D01*
X50310950Y81822780D01*
X50357060Y81867750D01*
X50397740Y81914290D01*
X50432990Y81962420D01*
X50462820Y82012120D01*
X50487230Y82063410D01*
X50506220Y82116280D01*
X50519780Y82170720D01*
X50527910Y82226750D01*
X50530620Y82284350D01*
X50911620Y82240320D01*
G37*
%TD.AperFunction*%
%TD*%
%TA.AperFunction,Conductor*%
%TO.N,NetIC1_7*%
G36*
X18998500Y79066120D02*
G01*
X18964840Y79025220D01*
X18935140Y78982910D01*
X18909400Y78939210D01*
X18887620Y78894120D01*
X18869800Y78847630D01*
X18855940Y78799740D01*
X18846040Y78750460D01*
X18840110Y78699780D01*
X18838120Y78647700D01*
X18457120Y78647700D01*
X18455140Y78699780D01*
X18449200Y78750460D01*
X18439300Y78799740D01*
X18425440Y78847630D01*
X18407620Y78894120D01*
X18385840Y78939210D01*
X18360100Y78982910D01*
X18330400Y79025220D01*
X18296740Y79066120D01*
X18259120Y79105640D01*
X19036120Y79105640D01*
X18998500Y79066120D01*
G37*
%TD.AperFunction*%
%TD*%
%TA.AperFunction,Conductor*%
%TO.N,NetR1_1*%
G36*
X30815430Y91825230D02*
G01*
X30783040Y91813800D01*
X30754470Y91794750D01*
X30729700Y91768080D01*
X30708750Y91733790D01*
X30691600Y91691880D01*
X30678270Y91642350D01*
X30668740Y91585200D01*
X30663030Y91520430D01*
X30661120Y91448040D01*
X30280120Y91448040D01*
X30278220Y91520430D01*
X30272500Y91585200D01*
X30262980Y91642350D01*
X30249640Y91691880D01*
X30232500Y91733790D01*
X30211540Y91768080D01*
X30186780Y91794750D01*
X30158200Y91813800D01*
X30125820Y91825230D01*
X30089620Y91829040D01*
X30851620Y91829040D01*
X30815430Y91825230D01*
G37*
%TD.AperFunction*%
%TD*%
%TA.AperFunction,Conductor*%
%TO.N,NetIC3_7*%
G36*
X61231040Y94735790D02*
G01*
X61251520Y94697110D01*
X61276270Y94662980D01*
X61305280Y94633400D01*
X61338560Y94608370D01*
X61376110Y94587890D01*
X61417930Y94571970D01*
X61464010Y94560590D01*
X61514360Y94553760D01*
X61568980Y94551490D01*
X61349960Y94170490D01*
X61297930Y94169710D01*
X61147690Y94158100D01*
X61099550Y94151140D01*
X61006180Y94132560D01*
X60960950Y94120940D01*
X60873390Y94093070D01*
X61214830Y94779020D01*
X61231040Y94735790D01*
G37*
%TD.AperFunction*%
%TD*%
%TA.AperFunction,Conductor*%
%TO.N,NetIC3_7*%
G36*
X68115860Y94093070D02*
G01*
X68072570Y94107780D01*
X67983070Y94132560D01*
X67936870Y94142620D01*
X67841550Y94158100D01*
X67742360Y94167390D01*
X67639290Y94170490D01*
X67420270Y94551490D01*
X67474880Y94553760D01*
X67525240Y94560590D01*
X67571320Y94571970D01*
X67613130Y94587890D01*
X67650680Y94608370D01*
X67683960Y94633400D01*
X67712980Y94662980D01*
X67737730Y94697110D01*
X67758210Y94735790D01*
X67774420Y94779020D01*
X68115860Y94093070D01*
G37*
%TD.AperFunction*%
%TD*%
%TA.AperFunction,Conductor*%
%TO.N,NetIC1_1*%
G36*
X18788530Y95601970D02*
G01*
X18794250Y95536680D01*
X18803770Y95479080D01*
X18817110Y95429150D01*
X18834250Y95386900D01*
X18855210Y95352340D01*
X18879970Y95325460D01*
X18908550Y95306250D01*
X18940930Y95294730D01*
X18977130Y95290890D01*
X18215130Y95290890D01*
X18251320Y95294730D01*
X18283710Y95306250D01*
X18312280Y95325460D01*
X18337050Y95352340D01*
X18358000Y95386900D01*
X18375150Y95429150D01*
X18388480Y95479080D01*
X18398010Y95536680D01*
X18403720Y95601970D01*
X18405630Y95674940D01*
X18786630Y95674940D01*
X18788530Y95601970D01*
G37*
%TD.AperFunction*%
%TD*%
%TA.AperFunction,Conductor*%
%TO.N,NetIC3_1*%
G36*
X67908270Y81526490D02*
G01*
X67868760Y81564110D01*
X67827850Y81597770D01*
X67785550Y81627470D01*
X67741850Y81653210D01*
X67696750Y81674990D01*
X67650260Y81692810D01*
X67602370Y81706670D01*
X67553090Y81716570D01*
X67502420Y81722510D01*
X67450340Y81724490D01*
X67450340Y82105490D01*
X67502420Y82107470D01*
X67553090Y82113410D01*
X67602370Y82123310D01*
X67650260Y82137170D01*
X67696750Y82154990D01*
X67741850Y82176770D01*
X67785550Y82202510D01*
X67827850Y82232210D01*
X67868760Y82265870D01*
X67908270Y82303490D01*
X67908270Y81526490D01*
G37*
%TD.AperFunction*%
%TD*%
%TA.AperFunction,Conductor*%
%TO.N,NetIC2_5*%
G36*
X51065930Y89214080D02*
G01*
X51033540Y89202440D01*
X51004970Y89183150D01*
X50980200Y89156210D01*
X50959250Y89121630D01*
X50942100Y89079400D01*
X50928770Y89029530D01*
X50919240Y88972010D01*
X50913530Y88906850D01*
X50911620Y88834030D01*
X50530620Y88834030D01*
X50529750Y88906420D01*
X50516710Y89077870D01*
X50508890Y89119780D01*
X50499320Y89154070D01*
X50488020Y89180740D01*
X50474970Y89199790D01*
X50460190Y89211220D01*
X50443670Y89215030D01*
X51102120Y89218080D01*
X51065930Y89214080D01*
G37*
%TD.AperFunction*%
%TD*%
%TA.AperFunction,Conductor*%
%TO.N,NetIC2_6*%
G36*
X40811110Y90464200D02*
G01*
X40817040Y90413520D01*
X40826940Y90364240D01*
X40840800Y90316350D01*
X40858620Y90269860D01*
X40880400Y90224770D01*
X40906140Y90181060D01*
X40935840Y90138760D01*
X40969500Y90097850D01*
X41007120Y90058340D01*
X40230120Y90058340D01*
X40267740Y90097850D01*
X40301400Y90138760D01*
X40331100Y90181060D01*
X40356840Y90224770D01*
X40378620Y90269860D01*
X40396440Y90316350D01*
X40410300Y90364240D01*
X40420200Y90413520D01*
X40426140Y90464200D01*
X40428120Y90516270D01*
X40809120Y90516270D01*
X40811110Y90464200D01*
G37*
%TD.AperFunction*%
%TD*%
%TA.AperFunction,Conductor*%
%TO.N,NetR1_1*%
G36*
X30662690Y90417550D02*
G01*
X30675200Y90295630D01*
X30686150Y90246100D01*
X30700240Y90204190D01*
X30717440Y90169900D01*
X30737790Y90143230D01*
X30761250Y90124180D01*
X30787850Y90112750D01*
X30817570Y90108940D01*
X30123670Y90108940D01*
X30153400Y90112750D01*
X30179990Y90124180D01*
X30203460Y90143230D01*
X30223800Y90169900D01*
X30241010Y90204190D01*
X30255090Y90246100D01*
X30266040Y90295630D01*
X30273860Y90352780D01*
X30278560Y90417550D01*
X30280120Y90489940D01*
X30661120Y90489940D01*
X30662690Y90417550D01*
G37*
%TD.AperFunction*%
%TD*%
%TA.AperFunction,Conductor*%
%TO.N,NetIC2_1*%
G36*
X40124540Y81789190D02*
G01*
X40112590Y81807590D01*
X40096580Y81824060D01*
X40076500Y81838590D01*
X40052360Y81851180D01*
X40024140Y81861830D01*
X39991860Y81870550D01*
X39955520Y81877330D01*
X39915100Y81882170D01*
X39870620Y81885080D01*
X39822070Y81886040D01*
X39822070Y82267040D01*
X39875560Y82267920D01*
X39969390Y82274890D01*
X40009730Y82280990D01*
X40045690Y82288840D01*
X40077270Y82298430D01*
X40104470Y82309770D01*
X40127290Y82322840D01*
X40145730Y82337670D01*
X40159790Y82354230D01*
X40124540Y81789190D01*
G37*
%TD.AperFunction*%
%TD*%
%TA.AperFunction,Conductor*%
%TO.N,NetIC2_5*%
G36*
X50443670Y89280990D02*
G01*
X50439860Y89317180D01*
X50428430Y89349570D01*
X50409380Y89378140D01*
X50382710Y89402910D01*
X50348420Y89423860D01*
X50306510Y89441010D01*
X50256980Y89454340D01*
X50199830Y89463870D01*
X50135060Y89469580D01*
X50062670Y89471490D01*
X50062670Y89852490D01*
X50135060Y89854390D01*
X50199830Y89860110D01*
X50256980Y89869630D01*
X50306510Y89882970D01*
X50348420Y89900110D01*
X50382710Y89921070D01*
X50409380Y89945830D01*
X50428430Y89974410D01*
X50439860Y90006790D01*
X50443670Y90042990D01*
X50443670Y89280990D01*
G37*
%TD.AperFunction*%
%TD*%
%TA.AperFunction,Conductor*%
%TO.N,NetIC3_6*%
G36*
X67908270Y91686490D02*
G01*
X67868760Y91724110D01*
X67827850Y91757770D01*
X67785550Y91787470D01*
X67741850Y91813210D01*
X67696750Y91834990D01*
X67650260Y91852810D01*
X67602370Y91866670D01*
X67553090Y91876570D01*
X67502420Y91882510D01*
X67450340Y91884490D01*
X67450340Y92265490D01*
X67502420Y92267470D01*
X67553090Y92273410D01*
X67602370Y92283310D01*
X67650260Y92297170D01*
X67696750Y92314990D01*
X67741850Y92336770D01*
X67785550Y92362510D01*
X67827850Y92392210D01*
X67868760Y92425870D01*
X67908270Y92463490D01*
X67908270Y91686490D01*
G37*
%TD.AperFunction*%
%TD*%
%TA.AperFunction,Conductor*%
%TO.N,NetIC3_1*%
G36*
X68497030Y80234970D02*
G01*
X68502740Y80169680D01*
X68512270Y80112080D01*
X68525600Y80062150D01*
X68542750Y80019900D01*
X68563700Y79985340D01*
X68588470Y79958460D01*
X68617040Y79939250D01*
X68649430Y79927730D01*
X68685620Y79923890D01*
X67923620Y79923890D01*
X67959820Y79927730D01*
X67992200Y79939250D01*
X68020780Y79958460D01*
X68045540Y79985340D01*
X68066500Y80019900D01*
X68083640Y80062150D01*
X68096980Y80112080D01*
X68106500Y80169680D01*
X68112220Y80234970D01*
X68114120Y80307940D01*
X68495120Y80307940D01*
X68497030Y80234970D01*
G37*
%TD.AperFunction*%
%TD*%
%TA.AperFunction,Conductor*%
%TO.N,NetIC2_7*%
G36*
X47842270Y94353490D02*
G01*
X47802760Y94391110D01*
X47761850Y94424770D01*
X47719550Y94454470D01*
X47675850Y94480210D01*
X47630750Y94501990D01*
X47584260Y94519810D01*
X47536370Y94533670D01*
X47487090Y94543570D01*
X47436420Y94549510D01*
X47384340Y94551490D01*
X47384340Y94932490D01*
X47436420Y94934470D01*
X47487090Y94940410D01*
X47536370Y94950310D01*
X47584260Y94964170D01*
X47630750Y94981990D01*
X47675850Y95003770D01*
X47719550Y95029510D01*
X47761850Y95059210D01*
X47802760Y95092870D01*
X47842270Y95130490D01*
X47842270Y94353490D01*
G37*
%TD.AperFunction*%
%TD*%
%TA.AperFunction,Conductor*%
%TO.N,NetC3_2*%
G36*
X53903690Y87877550D02*
G01*
X53916210Y87755630D01*
X53927160Y87706100D01*
X53941240Y87664190D01*
X53958450Y87629900D01*
X53978790Y87603230D01*
X54002250Y87584180D01*
X54028850Y87572750D01*
X54058580Y87568940D01*
X53364670Y87568940D01*
X53394400Y87572750D01*
X53421000Y87584180D01*
X53444460Y87603230D01*
X53464800Y87629900D01*
X53482010Y87664190D01*
X53496090Y87706100D01*
X53507040Y87755630D01*
X53514870Y87812780D01*
X53519560Y87877550D01*
X53521130Y87949940D01*
X53902130Y87949940D01*
X53903690Y87877550D01*
G37*
%TD.AperFunction*%
%TD*%
%TA.AperFunction,Conductor*%
%TO.N,NetC3_2*%
G36*
X52622030Y84672970D02*
G01*
X52627740Y84607680D01*
X52637270Y84550080D01*
X52650600Y84500150D01*
X52667750Y84457900D01*
X52688700Y84423340D01*
X52713470Y84396460D01*
X52742040Y84377250D01*
X52774430Y84365730D01*
X52810620Y84361890D01*
X52048620Y84361890D01*
X52084820Y84365730D01*
X52117200Y84377250D01*
X52145780Y84396460D01*
X52170540Y84423340D01*
X52191500Y84457900D01*
X52208640Y84500150D01*
X52221980Y84550080D01*
X52231500Y84607680D01*
X52237220Y84672970D01*
X52239120Y84745940D01*
X52620120Y84745940D01*
X52622030Y84672970D01*
G37*
%TD.AperFunction*%
%TD*%
%TA.AperFunction,Conductor*%
%TO.N,NetR1_1*%
G36*
X30655120Y82137820D02*
G01*
X30657650Y82081420D01*
X30665210Y82025650D01*
X30677830Y81970510D01*
X30695490Y81916010D01*
X30718190Y81862140D01*
X30745940Y81808890D01*
X30778730Y81756280D01*
X30816570Y81704310D01*
X30859460Y81652960D01*
X30907390Y81602250D01*
X30018430Y81610650D01*
X30067010Y81660230D01*
X30110480Y81710590D01*
X30148830Y81761730D01*
X30182070Y81813650D01*
X30210200Y81866350D01*
X30233210Y81919840D01*
X30251110Y81974110D01*
X30263890Y82029150D01*
X30271570Y82084980D01*
X30274120Y82141590D01*
X30655120Y82137820D01*
G37*
%TD.AperFunction*%
%TD*%
%TA.AperFunction,Conductor*%
%TO.N,NetIC2_1*%
G36*
X35496390Y87466800D02*
G01*
X35507820Y87434410D01*
X35526870Y87405840D01*
X35553540Y87381070D01*
X35587830Y87360120D01*
X35629740Y87342970D01*
X35679270Y87329640D01*
X35736420Y87320110D01*
X35801190Y87314400D01*
X35873580Y87312490D01*
X35873580Y86931490D01*
X35801190Y86929590D01*
X35736420Y86923870D01*
X35679270Y86914350D01*
X35629740Y86901010D01*
X35587830Y86883870D01*
X35553540Y86862910D01*
X35526870Y86838150D01*
X35507820Y86809570D01*
X35496390Y86777190D01*
X35492580Y86740990D01*
X35492580Y87502990D01*
X35496390Y87466800D01*
G37*
%TD.AperFunction*%
%TD*%
%TA.AperFunction,Conductor*%
%TO.N,NetC1_2*%
G36*
X35964720Y82803990D02*
G01*
X35960880Y82840180D01*
X35949360Y82872570D01*
X35930160Y82901140D01*
X35903270Y82925910D01*
X35868710Y82946860D01*
X35826460Y82964010D01*
X35776540Y82977340D01*
X35718930Y82986870D01*
X35653640Y82992580D01*
X35580670Y82994490D01*
X35580670Y83375490D01*
X35653640Y83377390D01*
X35718930Y83383110D01*
X35776540Y83392630D01*
X35826460Y83405970D01*
X35868710Y83423110D01*
X35903270Y83444070D01*
X35930160Y83468830D01*
X35949360Y83497410D01*
X35960880Y83529790D01*
X35964720Y83565990D01*
X35964720Y82803990D01*
G37*
%TD.AperFunction*%
%TD*%
%TA.AperFunction,Conductor*%
%TO.N,NetIC2_1*%
G36*
X48431030Y80361970D02*
G01*
X48436740Y80296680D01*
X48446270Y80239080D01*
X48459600Y80189150D01*
X48476750Y80146900D01*
X48497700Y80112340D01*
X48522470Y80085460D01*
X48551040Y80066250D01*
X48583430Y80054730D01*
X48619620Y80050890D01*
X47857620Y80050890D01*
X47893820Y80054730D01*
X47926200Y80066250D01*
X47954780Y80085460D01*
X47979540Y80112340D01*
X48000500Y80146900D01*
X48017640Y80189150D01*
X48030980Y80239080D01*
X48040500Y80296680D01*
X48046220Y80361970D01*
X48048120Y80434940D01*
X48429120Y80434940D01*
X48431030Y80361970D01*
G37*
%TD.AperFunction*%
%TD*%
%TA.AperFunction,Conductor*%
%TO.N,IN*%
G36*
X15413000Y89451390D02*
G01*
X15424650Y89385670D01*
X15444050Y89321270D01*
X15471210Y89258170D01*
X15506140Y89196380D01*
X15548830Y89135910D01*
X15599280Y89076740D01*
X15657490Y89018890D01*
X15723460Y88962340D01*
X15797190Y88907100D01*
X14712670Y88729300D01*
X14772600Y88813960D01*
X14873550Y88975130D01*
X14914560Y89051660D01*
X14949260Y89125470D01*
X14977650Y89196580D01*
X14999730Y89264980D01*
X15015510Y89330670D01*
X15024970Y89393640D01*
X15028120Y89453910D01*
X15409120Y89518410D01*
X15413000Y89451390D01*
G37*
%TD.AperFunction*%
%TD*%
%TA.AperFunction,Conductor*%
%TO.N,NetC1_2*%
G36*
X32299100Y89818660D02*
G01*
X32296150Y89776330D01*
X32305670Y89726850D01*
X32327680Y89670220D01*
X32362150Y89606450D01*
X32409110Y89535520D01*
X32468540Y89457440D01*
X32624830Y89279850D01*
X32721690Y89180330D01*
X32417570Y88945630D01*
X32334690Y89025840D01*
X32188270Y89150960D01*
X32124720Y89195850D01*
X32067620Y89228990D01*
X32016960Y89250350D01*
X31972740Y89259940D01*
X31934970Y89257750D01*
X31903640Y89243800D01*
X31878750Y89218080D01*
X32314530Y89853840D01*
X32299100Y89818660D01*
G37*
%TD.AperFunction*%
%TD*%
%TA.AperFunction,Conductor*%
%TO.N,Voltage_IN*%
G36*
X38681240Y97802790D02*
G01*
X38568600Y97666970D01*
X38522840Y97599870D01*
X38484120Y97533320D01*
X38452440Y97467320D01*
X38427800Y97401860D01*
X38410200Y97336950D01*
X38399640Y97272580D01*
X38396120Y97208770D01*
X38015120Y97208770D01*
X38011600Y97272580D01*
X38001040Y97336950D01*
X37983440Y97401860D01*
X37958800Y97467320D01*
X37927120Y97533320D01*
X37888400Y97599870D01*
X37842650Y97666970D01*
X37789840Y97734610D01*
X37730000Y97802790D01*
X37663120Y97871530D01*
X38748120Y97871530D01*
X38681240Y97802790D01*
G37*
%TD.AperFunction*%
%TD*%
%TA.AperFunction,Conductor*%
%TO.N,NetIC3_1*%
G36*
X61120490Y82265870D02*
G01*
X61161390Y82232210D01*
X61203700Y82202510D01*
X61247400Y82176770D01*
X61292500Y82154990D01*
X61338990Y82137170D01*
X61386870Y82123310D01*
X61436160Y82113410D01*
X61486830Y82107470D01*
X61538910Y82105490D01*
X61538910Y81724490D01*
X61486830Y81722510D01*
X61436160Y81716570D01*
X61386870Y81706670D01*
X61338990Y81692810D01*
X61292500Y81674990D01*
X61247400Y81653210D01*
X61203700Y81627470D01*
X61161390Y81597770D01*
X61120490Y81564110D01*
X61080970Y81526490D01*
X61080970Y82303490D01*
X61120490Y82265870D01*
G37*
%TD.AperFunction*%
%TD*%
%TA.AperFunction,Conductor*%
%TO.N,NetIC1_2*%
G36*
X18408700Y91701050D02*
G01*
X18358460Y91723840D01*
X18258300Y91762220D01*
X18208370Y91777810D01*
X18108840Y91801800D01*
X18059240Y91810190D01*
X17960350Y91819790D01*
X17911060Y91820990D01*
X17759620Y92201990D01*
X17813630Y92204280D01*
X17864130Y92211140D01*
X17911130Y92222580D01*
X17954630Y92238600D01*
X17994620Y92259200D01*
X18031100Y92284380D01*
X18064080Y92314130D01*
X18093560Y92348450D01*
X18119540Y92387360D01*
X18142000Y92430840D01*
X18408700Y91701050D01*
G37*
%TD.AperFunction*%
%TD*%
%TA.AperFunction,Conductor*%
%TO.N,NetIC1_2*%
G36*
X16942380Y92356290D02*
G01*
X16953810Y92323910D01*
X16972860Y92295330D01*
X16999530Y92270570D01*
X17033820Y92249610D01*
X17075730Y92232470D01*
X17125260Y92219130D01*
X17182410Y92209610D01*
X17247180Y92203890D01*
X17319570Y92201990D01*
X17319570Y91820990D01*
X17247180Y91819080D01*
X17182410Y91813370D01*
X17125260Y91803840D01*
X17075730Y91790510D01*
X17033820Y91773360D01*
X16999530Y91752410D01*
X16972860Y91727640D01*
X16953810Y91699070D01*
X16942380Y91666680D01*
X16938570Y91630490D01*
X16938570Y92392490D01*
X16942380Y92356290D01*
G37*
%TD.AperFunction*%
%TD*%
%TA.AperFunction,Conductor*%
%TO.N,NetC1_2*%
G36*
X33837690Y87877550D02*
G01*
X33850210Y87755630D01*
X33861160Y87706100D01*
X33875240Y87664190D01*
X33892450Y87629900D01*
X33912790Y87603230D01*
X33936250Y87584180D01*
X33962850Y87572750D01*
X33992580Y87568940D01*
X33298670Y87568940D01*
X33328400Y87572750D01*
X33355000Y87584180D01*
X33378460Y87603230D01*
X33398800Y87629900D01*
X33416010Y87664190D01*
X33430090Y87706100D01*
X33441040Y87755630D01*
X33448870Y87812780D01*
X33453560Y87877550D01*
X33455130Y87949940D01*
X33836130Y87949940D01*
X33837690Y87877550D01*
G37*
%TD.AperFunction*%
%TD*%
%TA.AperFunction,Conductor*%
%TO.N,NetC1_2*%
G36*
X33837490Y86678090D02*
G01*
X33808130Y86699330D01*
X33773320Y86709810D01*
X33733060Y86709500D01*
X33687350Y86698420D01*
X33636200Y86676560D01*
X33579590Y86643930D01*
X33517530Y86600520D01*
X33450030Y86546330D01*
X33298670Y86405630D01*
X33029270Y86675040D01*
X33105000Y86753440D01*
X33224160Y86893900D01*
X33267560Y86955960D01*
X33300200Y87012560D01*
X33322050Y87063720D01*
X33333140Y87109420D01*
X33333440Y87149680D01*
X33322970Y87184490D01*
X33301720Y87213850D01*
X33837490Y86678090D01*
G37*
%TD.AperFunction*%
%TD*%
%TA.AperFunction,Conductor*%
%TO.N,NetIC2_1*%
G36*
X48589500Y81606120D02*
G01*
X48555840Y81565220D01*
X48526140Y81522910D01*
X48500400Y81479210D01*
X48478620Y81434120D01*
X48460800Y81387630D01*
X48446940Y81339740D01*
X48437040Y81290460D01*
X48431110Y81239780D01*
X48429120Y81187700D01*
X48048120Y81187700D01*
X48046140Y81239780D01*
X48040200Y81290460D01*
X48030300Y81339740D01*
X48016440Y81387630D01*
X47998620Y81434120D01*
X47976840Y81479210D01*
X47951100Y81522910D01*
X47921400Y81565220D01*
X47887740Y81606120D01*
X47850120Y81645640D01*
X48627120Y81645640D01*
X48589500Y81606120D01*
G37*
%TD.AperFunction*%
%TD*%
%TA.AperFunction,Conductor*%
%TO.N,NetC3_2*%
G36*
X52613280Y89724490D02*
G01*
X52602810Y89689680D01*
X52603110Y89649420D01*
X52614190Y89603710D01*
X52636050Y89552560D01*
X52668680Y89495950D01*
X52712090Y89433890D01*
X52766280Y89366390D01*
X52906980Y89215030D01*
X52637570Y88945630D01*
X52559170Y89021360D01*
X52418710Y89140520D01*
X52356660Y89183920D01*
X52300050Y89216560D01*
X52248900Y89238410D01*
X52203190Y89249500D01*
X52162930Y89249800D01*
X52128120Y89239330D01*
X52098760Y89218080D01*
X52634530Y89753850D01*
X52613280Y89724490D01*
G37*
%TD.AperFunction*%
%TD*%
%TA.AperFunction,Conductor*%
%TO.N,NetIC1_1*%
G36*
X18891580Y97724040D02*
G01*
X18871630Y97720230D01*
X18853790Y97708800D01*
X18838050Y97689750D01*
X18824410Y97663080D01*
X18812860Y97628790D01*
X18803420Y97586880D01*
X18796070Y97537350D01*
X18790820Y97480200D01*
X18786630Y97343040D01*
X18405630Y97343040D01*
X18403720Y97415850D01*
X18398010Y97481020D01*
X18388480Y97538540D01*
X18375150Y97588420D01*
X18358000Y97630640D01*
X18337050Y97665230D01*
X18312280Y97692160D01*
X18283710Y97711450D01*
X18251320Y97723090D01*
X18215130Y97727080D01*
X18891580Y97724040D01*
G37*
%TD.AperFunction*%
%TD*%
%TA.AperFunction,Conductor*%
%TO.N,NetIC1_1*%
G36*
X19178020Y94699220D02*
G01*
X19167250Y94664190D01*
X19167250Y94623780D01*
X19178020Y94577980D01*
X19199580Y94526800D01*
X19231910Y94470220D01*
X19275010Y94408250D01*
X19328890Y94340900D01*
X19468980Y94190040D01*
X19199580Y93920630D01*
X19121450Y93996060D01*
X18981360Y94114600D01*
X18919390Y94157710D01*
X18862820Y94190040D01*
X18811630Y94211590D01*
X18765830Y94222360D01*
X18725420Y94222360D01*
X18690390Y94211590D01*
X18660760Y94190040D01*
X19199580Y94728850D01*
X19178020Y94699220D01*
G37*
%TD.AperFunction*%
%TD*%
%TA.AperFunction,Conductor*%
%TO.N,NetC3_2*%
G36*
X56411720Y83264990D02*
G01*
X56407880Y83301180D01*
X56396360Y83333570D01*
X56377160Y83362140D01*
X56350270Y83386910D01*
X56315710Y83407860D01*
X56273460Y83425010D01*
X56223540Y83438340D01*
X56165930Y83447870D01*
X56100640Y83453580D01*
X56027670Y83455490D01*
X56027670Y83836490D01*
X56100640Y83838390D01*
X56165930Y83844110D01*
X56223540Y83853630D01*
X56273460Y83866970D01*
X56315710Y83884110D01*
X56350270Y83905070D01*
X56377160Y83929830D01*
X56396360Y83958410D01*
X56407880Y83990790D01*
X56411720Y84026990D01*
X56411720Y83264990D01*
G37*
%TD.AperFunction*%
%TD*%
M02*
