M48
; DRILL file KiCad 10.0.3-10.0.3~ubuntu24.04.1 date 2026-05-16T16:22:35
; FORMAT={-:-/ absolute / metric / decimal}
; #@! TF.CreationDate,2026-05-16T16:22:35+02:00
; #@! TF.GenerationSoftware,Kicad,Pcbnew,10.0.3-10.0.3~ubuntu24.04.1
; #@! TF.FileFunction,MixedPlating,1,2
FMAT,2
METRIC
; #@! TA.AperFunction,Plated,PTH,ComponentDrill
T1C0.710
; #@! TA.AperFunction,Plated,PTH,ViaDrill
T2C0.711
; #@! TA.AperFunction,Plated,PTH,ComponentDrill
T3C0.800
; #@! TA.AperFunction,Plated,PTH,ComponentDrill
T4C1.020
; #@! TA.AperFunction,Plated,PTH,ComponentDrill
T5C1.040
%
G90
G05
T1
X18.648Y94.742
X18.648Y92.202
X18.648Y89.662
X18.648Y87.122
X18.648Y84.582
X18.648Y82.042
X18.648Y79.502
X26.268Y94.742
X26.268Y92.202
X26.268Y89.662
X26.268Y87.122
X26.268Y84.582
X26.268Y82.042
X26.268Y79.502
X40.619Y94.742
X40.619Y92.202
X40.619Y89.662
X40.619Y87.122
X40.619Y84.582
X40.619Y82.042
X40.619Y79.502
X48.239Y94.742
X48.239Y92.202
X48.239Y89.662
X48.239Y87.122
X48.239Y84.582
X48.239Y82.042
X48.239Y79.502
X60.685Y94.615
X60.685Y92.075
X60.685Y89.535
X60.685Y86.995
X60.685Y84.455
X60.685Y81.915
X60.685Y79.375
X68.305Y94.615
X68.305Y92.075
X68.305Y89.535
X68.305Y86.995
X68.305Y84.455
X68.305Y81.915
X68.305Y79.375
T2
X30.459Y81.153
X50.652Y81.28
T3
X32.237Y78.439
X32.237Y83.439
X52.43Y78.693
X52.43Y83.693
T4
X28.046Y98.425
X30.586Y98.425
X35.666Y98.425
X38.206Y98.425
X50.906Y98.425
X53.446Y98.425
X58.526Y98.425
X61.066Y98.425
T5
X15.346Y88.265
X15.346Y85.725
X71.226Y88.265
X71.226Y85.725
M30
