%TF.GenerationSoftware,KiCad,Pcbnew,10.0.3-10.0.3~ubuntu24.04.1*%
%TF.CreationDate,2026-05-16T16:22:24+02:00*%
%TF.ProjectId,Current_Source,43757272-656e-4745-9f53-6f757263652e,rev?*%
%TF.SameCoordinates,Original*%
%TF.FileFunction,Legend,Top*%
%TF.FilePolarity,Positive*%
%FSLAX46Y46*%
G04 Gerber Fmt 4.6, Leading zero omitted, Abs format (unit mm)*
G04 Created by KiCad (PCBNEW 10.0.3-10.0.3~ubuntu24.04.1) date 2026-05-16 16:22:24*
%MOMM*%
%LPD*%
G01*
G04 APERTURE LIST*
%ADD10C,0.190500*%
%ADD11C,0.254000*%
%ADD12C,0.200000*%
%ADD13C,0.100000*%
G04 APERTURE END LIST*
D10*
X6787385Y78263587D02*
X6751099Y78227301D01*
X6751099Y78227301D02*
X6642242Y78191016D01*
X6642242Y78191016D02*
X6569670Y78191016D01*
X6569670Y78191016D02*
X6460813Y78227301D01*
X6460813Y78227301D02*
X6388242Y78299873D01*
X6388242Y78299873D02*
X6351956Y78372444D01*
X6351956Y78372444D02*
X6315670Y78517587D01*
X6315670Y78517587D02*
X6315670Y78626444D01*
X6315670Y78626444D02*
X6351956Y78771587D01*
X6351956Y78771587D02*
X6388242Y78844159D01*
X6388242Y78844159D02*
X6460813Y78916730D01*
X6460813Y78916730D02*
X6569670Y78953016D01*
X6569670Y78953016D02*
X6642242Y78953016D01*
X6642242Y78953016D02*
X6751099Y78916730D01*
X6751099Y78916730D02*
X6787385Y78880444D01*
X7440528Y78699016D02*
X7440528Y78191016D01*
X7113956Y78699016D02*
X7113956Y78299873D01*
X7113956Y78299873D02*
X7150242Y78227301D01*
X7150242Y78227301D02*
X7222813Y78191016D01*
X7222813Y78191016D02*
X7331670Y78191016D01*
X7331670Y78191016D02*
X7404242Y78227301D01*
X7404242Y78227301D02*
X7440528Y78263587D01*
X7803385Y78191016D02*
X7803385Y78699016D01*
X7803385Y78553873D02*
X7839671Y78626444D01*
X7839671Y78626444D02*
X7875957Y78662730D01*
X7875957Y78662730D02*
X7948528Y78699016D01*
X7948528Y78699016D02*
X8021099Y78699016D01*
X8275099Y78191016D02*
X8275099Y78699016D01*
X8275099Y78553873D02*
X8311385Y78626444D01*
X8311385Y78626444D02*
X8347671Y78662730D01*
X8347671Y78662730D02*
X8420242Y78699016D01*
X8420242Y78699016D02*
X8492813Y78699016D01*
X9037099Y78227301D02*
X8964527Y78191016D01*
X8964527Y78191016D02*
X8819385Y78191016D01*
X8819385Y78191016D02*
X8746813Y78227301D01*
X8746813Y78227301D02*
X8710527Y78299873D01*
X8710527Y78299873D02*
X8710527Y78590159D01*
X8710527Y78590159D02*
X8746813Y78662730D01*
X8746813Y78662730D02*
X8819385Y78699016D01*
X8819385Y78699016D02*
X8964527Y78699016D01*
X8964527Y78699016D02*
X9037099Y78662730D01*
X9037099Y78662730D02*
X9073385Y78590159D01*
X9073385Y78590159D02*
X9073385Y78517587D01*
X9073385Y78517587D02*
X8710527Y78445016D01*
X9399956Y78699016D02*
X9399956Y78191016D01*
X9399956Y78626444D02*
X9436242Y78662730D01*
X9436242Y78662730D02*
X9508813Y78699016D01*
X9508813Y78699016D02*
X9617670Y78699016D01*
X9617670Y78699016D02*
X9690242Y78662730D01*
X9690242Y78662730D02*
X9726528Y78590159D01*
X9726528Y78590159D02*
X9726528Y78191016D01*
X9980528Y78699016D02*
X10270814Y78699016D01*
X10089385Y78953016D02*
X10089385Y78299873D01*
X10089385Y78299873D02*
X10125671Y78227301D01*
X10125671Y78227301D02*
X10198242Y78191016D01*
X10198242Y78191016D02*
X10270814Y78191016D01*
X11069099Y78227301D02*
X11177957Y78191016D01*
X11177957Y78191016D02*
X11359385Y78191016D01*
X11359385Y78191016D02*
X11431957Y78227301D01*
X11431957Y78227301D02*
X11468242Y78263587D01*
X11468242Y78263587D02*
X11504528Y78336159D01*
X11504528Y78336159D02*
X11504528Y78408730D01*
X11504528Y78408730D02*
X11468242Y78481301D01*
X11468242Y78481301D02*
X11431957Y78517587D01*
X11431957Y78517587D02*
X11359385Y78553873D01*
X11359385Y78553873D02*
X11214242Y78590159D01*
X11214242Y78590159D02*
X11141671Y78626444D01*
X11141671Y78626444D02*
X11105385Y78662730D01*
X11105385Y78662730D02*
X11069099Y78735301D01*
X11069099Y78735301D02*
X11069099Y78807873D01*
X11069099Y78807873D02*
X11105385Y78880444D01*
X11105385Y78880444D02*
X11141671Y78916730D01*
X11141671Y78916730D02*
X11214242Y78953016D01*
X11214242Y78953016D02*
X11395671Y78953016D01*
X11395671Y78953016D02*
X11504528Y78916730D01*
X11939956Y78191016D02*
X11867385Y78227301D01*
X11867385Y78227301D02*
X11831099Y78263587D01*
X11831099Y78263587D02*
X11794813Y78336159D01*
X11794813Y78336159D02*
X11794813Y78553873D01*
X11794813Y78553873D02*
X11831099Y78626444D01*
X11831099Y78626444D02*
X11867385Y78662730D01*
X11867385Y78662730D02*
X11939956Y78699016D01*
X11939956Y78699016D02*
X12048813Y78699016D01*
X12048813Y78699016D02*
X12121385Y78662730D01*
X12121385Y78662730D02*
X12157671Y78626444D01*
X12157671Y78626444D02*
X12193956Y78553873D01*
X12193956Y78553873D02*
X12193956Y78336159D01*
X12193956Y78336159D02*
X12157671Y78263587D01*
X12157671Y78263587D02*
X12121385Y78227301D01*
X12121385Y78227301D02*
X12048813Y78191016D01*
X12048813Y78191016D02*
X11939956Y78191016D01*
X12847100Y78699016D02*
X12847100Y78191016D01*
X12520528Y78699016D02*
X12520528Y78299873D01*
X12520528Y78299873D02*
X12556814Y78227301D01*
X12556814Y78227301D02*
X12629385Y78191016D01*
X12629385Y78191016D02*
X12738242Y78191016D01*
X12738242Y78191016D02*
X12810814Y78227301D01*
X12810814Y78227301D02*
X12847100Y78263587D01*
X13209957Y78191016D02*
X13209957Y78699016D01*
X13209957Y78553873D02*
X13246243Y78626444D01*
X13246243Y78626444D02*
X13282529Y78662730D01*
X13282529Y78662730D02*
X13355100Y78699016D01*
X13355100Y78699016D02*
X13427671Y78699016D01*
X14008243Y78227301D02*
X13935671Y78191016D01*
X13935671Y78191016D02*
X13790528Y78191016D01*
X13790528Y78191016D02*
X13717957Y78227301D01*
X13717957Y78227301D02*
X13681671Y78263587D01*
X13681671Y78263587D02*
X13645385Y78336159D01*
X13645385Y78336159D02*
X13645385Y78553873D01*
X13645385Y78553873D02*
X13681671Y78626444D01*
X13681671Y78626444D02*
X13717957Y78662730D01*
X13717957Y78662730D02*
X13790528Y78699016D01*
X13790528Y78699016D02*
X13935671Y78699016D01*
X13935671Y78699016D02*
X14008243Y78662730D01*
X14625100Y78227301D02*
X14552528Y78191016D01*
X14552528Y78191016D02*
X14407386Y78191016D01*
X14407386Y78191016D02*
X14334814Y78227301D01*
X14334814Y78227301D02*
X14298528Y78299873D01*
X14298528Y78299873D02*
X14298528Y78590159D01*
X14298528Y78590159D02*
X14334814Y78662730D01*
X14334814Y78662730D02*
X14407386Y78699016D01*
X14407386Y78699016D02*
X14552528Y78699016D01*
X14552528Y78699016D02*
X14625100Y78662730D01*
X14625100Y78662730D02*
X14661386Y78590159D01*
X14661386Y78590159D02*
X14661386Y78517587D01*
X14661386Y78517587D02*
X14298528Y78445016D01*
X15532242Y78880444D02*
X15568528Y78916730D01*
X15568528Y78916730D02*
X15641100Y78953016D01*
X15641100Y78953016D02*
X15822528Y78953016D01*
X15822528Y78953016D02*
X15895100Y78916730D01*
X15895100Y78916730D02*
X15931385Y78880444D01*
X15931385Y78880444D02*
X15967671Y78807873D01*
X15967671Y78807873D02*
X15967671Y78735301D01*
X15967671Y78735301D02*
X15931385Y78626444D01*
X15931385Y78626444D02*
X15495957Y78191016D01*
X15495957Y78191016D02*
X15967671Y78191016D01*
X16439385Y78953016D02*
X16511956Y78953016D01*
X16511956Y78953016D02*
X16584528Y78916730D01*
X16584528Y78916730D02*
X16620814Y78880444D01*
X16620814Y78880444D02*
X16657099Y78807873D01*
X16657099Y78807873D02*
X16693385Y78662730D01*
X16693385Y78662730D02*
X16693385Y78481301D01*
X16693385Y78481301D02*
X16657099Y78336159D01*
X16657099Y78336159D02*
X16620814Y78263587D01*
X16620814Y78263587D02*
X16584528Y78227301D01*
X16584528Y78227301D02*
X16511956Y78191016D01*
X16511956Y78191016D02*
X16439385Y78191016D01*
X16439385Y78191016D02*
X16366814Y78227301D01*
X16366814Y78227301D02*
X16330528Y78263587D01*
X16330528Y78263587D02*
X16294242Y78336159D01*
X16294242Y78336159D02*
X16257956Y78481301D01*
X16257956Y78481301D02*
X16257956Y78662730D01*
X16257956Y78662730D02*
X16294242Y78807873D01*
X16294242Y78807873D02*
X16330528Y78880444D01*
X16330528Y78880444D02*
X16366814Y78916730D01*
X16366814Y78916730D02*
X16439385Y78953016D01*
X16983670Y78880444D02*
X17019956Y78916730D01*
X17019956Y78916730D02*
X17092528Y78953016D01*
X17092528Y78953016D02*
X17273956Y78953016D01*
X17273956Y78953016D02*
X17346528Y78916730D01*
X17346528Y78916730D02*
X17382813Y78880444D01*
X17382813Y78880444D02*
X17419099Y78807873D01*
X17419099Y78807873D02*
X17419099Y78735301D01*
X17419099Y78735301D02*
X17382813Y78626444D01*
X17382813Y78626444D02*
X16947385Y78191016D01*
X16947385Y78191016D02*
X17419099Y78191016D01*
X18072242Y78699016D02*
X18072242Y78191016D01*
X17890813Y78989301D02*
X17709384Y78445016D01*
X17709384Y78445016D02*
X18181099Y78445016D01*
X19051955Y78191016D02*
X19051955Y78953016D01*
X19051955Y78590159D02*
X19487384Y78590159D01*
X19487384Y78191016D02*
X19487384Y78953016D01*
X20285670Y78191016D02*
X20031670Y78553873D01*
X19850241Y78191016D02*
X19850241Y78953016D01*
X19850241Y78953016D02*
X20140527Y78953016D01*
X20140527Y78953016D02*
X20213098Y78916730D01*
X20213098Y78916730D02*
X20249384Y78880444D01*
X20249384Y78880444D02*
X20285670Y78807873D01*
X20285670Y78807873D02*
X20285670Y78699016D01*
X20285670Y78699016D02*
X20249384Y78626444D01*
X20249384Y78626444D02*
X20213098Y78590159D01*
X20213098Y78590159D02*
X20140527Y78553873D01*
X20140527Y78553873D02*
X19850241Y78553873D01*
X20612241Y78191016D02*
X20612241Y78953016D01*
X20612241Y78953016D02*
X20793670Y78953016D01*
X20793670Y78953016D02*
X20902527Y78916730D01*
X20902527Y78916730D02*
X20975098Y78844159D01*
X20975098Y78844159D02*
X21011384Y78771587D01*
X21011384Y78771587D02*
X21047670Y78626444D01*
X21047670Y78626444D02*
X21047670Y78517587D01*
X21047670Y78517587D02*
X21011384Y78372444D01*
X21011384Y78372444D02*
X20975098Y78299873D01*
X20975098Y78299873D02*
X20902527Y78227301D01*
X20902527Y78227301D02*
X20793670Y78191016D01*
X20793670Y78191016D02*
X20612241Y78191016D01*
D11*
X21433561Y86731675D02*
X20925561Y87457389D01*
X20562704Y86731675D02*
X20562704Y88255675D01*
X20562704Y88255675D02*
X21143275Y88255675D01*
X21143275Y88255675D02*
X21288418Y88183104D01*
X21288418Y88183104D02*
X21360989Y88110532D01*
X21360989Y88110532D02*
X21433561Y87965389D01*
X21433561Y87965389D02*
X21433561Y87747675D01*
X21433561Y87747675D02*
X21360989Y87602532D01*
X21360989Y87602532D02*
X21288418Y87529961D01*
X21288418Y87529961D02*
X21143275Y87457389D01*
X21143275Y87457389D02*
X20562704Y87457389D01*
X22304418Y86876818D02*
X22376989Y86804246D01*
X22376989Y86804246D02*
X22304418Y86731675D01*
X22304418Y86731675D02*
X22231847Y86804246D01*
X22231847Y86804246D02*
X22304418Y86876818D01*
X22304418Y86876818D02*
X22304418Y86731675D01*
X22014132Y88183104D02*
X22159275Y88255675D01*
X22159275Y88255675D02*
X22522132Y88255675D01*
X22522132Y88255675D02*
X22667275Y88183104D01*
X22667275Y88183104D02*
X22739847Y88037961D01*
X22739847Y88037961D02*
X22739847Y87892818D01*
X22739847Y87892818D02*
X22667275Y87747675D01*
X22667275Y87747675D02*
X22594704Y87675104D01*
X22594704Y87675104D02*
X22449561Y87602532D01*
X22449561Y87602532D02*
X22376989Y87529961D01*
X22376989Y87529961D02*
X22304418Y87384818D01*
X22304418Y87384818D02*
X22304418Y87312246D01*
X13859314Y91911719D02*
X15383314Y91911719D01*
X14004457Y90315148D02*
X13931886Y90387720D01*
X13931886Y90387720D02*
X13859314Y90605434D01*
X13859314Y90605434D02*
X13859314Y90750577D01*
X13859314Y90750577D02*
X13931886Y90968291D01*
X13931886Y90968291D02*
X14077028Y91113434D01*
X14077028Y91113434D02*
X14222171Y91186005D01*
X14222171Y91186005D02*
X14512457Y91258577D01*
X14512457Y91258577D02*
X14730171Y91258577D01*
X14730171Y91258577D02*
X15020457Y91186005D01*
X15020457Y91186005D02*
X15165600Y91113434D01*
X15165600Y91113434D02*
X15310743Y90968291D01*
X15310743Y90968291D02*
X15383314Y90750577D01*
X15383314Y90750577D02*
X15383314Y90605434D01*
X15383314Y90605434D02*
X15310743Y90387720D01*
X15310743Y90387720D02*
X15238171Y90315148D01*
X13859314Y88863720D02*
X13859314Y89734577D01*
X13859314Y89299148D02*
X15383314Y89299148D01*
X15383314Y89299148D02*
X15165600Y89444291D01*
X15165600Y89444291D02*
X15020457Y89589434D01*
X15020457Y89589434D02*
X14947886Y89734577D01*
X4699000Y94631325D02*
X4191000Y95357039D01*
X3828143Y94631325D02*
X3828143Y96155325D01*
X3828143Y96155325D02*
X4408714Y96155325D01*
X4408714Y96155325D02*
X4553857Y96082754D01*
X4553857Y96082754D02*
X4626428Y96010182D01*
X4626428Y96010182D02*
X4699000Y95865039D01*
X4699000Y95865039D02*
X4699000Y95647325D01*
X4699000Y95647325D02*
X4626428Y95502182D01*
X4626428Y95502182D02*
X4553857Y95429611D01*
X4553857Y95429611D02*
X4408714Y95357039D01*
X4408714Y95357039D02*
X3828143Y95357039D01*
X6150428Y94631325D02*
X5279571Y94631325D01*
X5715000Y94631325D02*
X5715000Y96155325D01*
X5715000Y96155325D02*
X5569857Y95937611D01*
X5569857Y95937611D02*
X5424714Y95792468D01*
X5424714Y95792468D02*
X5279571Y95719896D01*
X14207675Y80808291D02*
X15731675Y81316291D01*
X15731675Y81316291D02*
X14207675Y81824291D01*
X15731675Y83203149D02*
X15005961Y82695149D01*
X15731675Y82332292D02*
X14207675Y82332292D01*
X14207675Y82332292D02*
X14207675Y82912863D01*
X14207675Y82912863D02*
X14280246Y83058006D01*
X14280246Y83058006D02*
X14352818Y83130577D01*
X14352818Y83130577D02*
X14497961Y83203149D01*
X14497961Y83203149D02*
X14715675Y83203149D01*
X14715675Y83203149D02*
X14860818Y83130577D01*
X14860818Y83130577D02*
X14933389Y83058006D01*
X14933389Y83058006D02*
X15005961Y82912863D01*
X15005961Y82912863D02*
X15005961Y82332292D01*
X15731675Y84654577D02*
X15731675Y83783720D01*
X15731675Y84219149D02*
X14207675Y84219149D01*
X14207675Y84219149D02*
X14425389Y84074006D01*
X14425389Y84074006D02*
X14570532Y83928863D01*
X14570532Y83928863D02*
X14643104Y83783720D01*
X21970999Y83328325D02*
X21970999Y82239754D01*
X21970999Y82239754D02*
X21898428Y82022039D01*
X21898428Y82022039D02*
X21753285Y81876896D01*
X21753285Y81876896D02*
X21535571Y81804325D01*
X21535571Y81804325D02*
X21390428Y81804325D01*
X22624142Y83183182D02*
X22696714Y83255754D01*
X22696714Y83255754D02*
X22841857Y83328325D01*
X22841857Y83328325D02*
X23204714Y83328325D01*
X23204714Y83328325D02*
X23349857Y83255754D01*
X23349857Y83255754D02*
X23422428Y83183182D01*
X23422428Y83183182D02*
X23494999Y83038039D01*
X23494999Y83038039D02*
X23494999Y82892896D01*
X23494999Y82892896D02*
X23422428Y82675182D01*
X23422428Y82675182D02*
X22551571Y81804325D01*
X22551571Y81804325D02*
X23494999Y81804325D01*
X6730999Y83328325D02*
X6730999Y82239754D01*
X6730999Y82239754D02*
X6658428Y82022039D01*
X6658428Y82022039D02*
X6513285Y81876896D01*
X6513285Y81876896D02*
X6295571Y81804325D01*
X6295571Y81804325D02*
X6150428Y81804325D01*
X8254999Y81804325D02*
X7384142Y81804325D01*
X7819571Y81804325D02*
X7819571Y83328325D01*
X7819571Y83328325D02*
X7674428Y83110611D01*
X7674428Y83110611D02*
X7529285Y82965468D01*
X7529285Y82965468D02*
X7384142Y82892896D01*
%TO.C,R?*%
D12*
X20097000Y84497000D02*
X20097000Y84897000D01*
X20797000Y84497000D02*
X20797000Y84897000D01*
%TO.C,IC1*%
X5462980Y87123020D02*
X5462980Y94232980D01*
X24763020Y87123020D02*
X24763020Y95042990D01*
%TO.C,R1*%
X4221990Y92637000D02*
X4221990Y93037000D01*
X4922010Y92637000D02*
X4922010Y93037000D01*
%TO.C,VR1*%
D13*
X13235990Y85077000D02*
X16736010Y85077000D01*
X13235990Y84677000D02*
X13235990Y85077000D01*
X13235990Y80277010D02*
X13235990Y80677000D01*
X13235990Y80277010D02*
X16736010Y80277010D01*
X18786000Y81477000D02*
G75*
G02*
X18786000Y81377000I0J-50000D01*
G01*
X18786000Y81377000D02*
G75*
G02*
X18786000Y81477000I0J50000D01*
G01*
%TD*%
M02*
